{
.appVersion = "1184";
DisplayStrings = (
"N/CdoubleStruck/Placeholder"
);
classes = (
{
automatic = 1;

glyphs = (
{
color = 3;
glyphname = A;
lastChange = "2018-12-17 15:30:21 +0000";
layers = (
{
anchors = (
{
name = bottom;
position = "{326, 0}";
},
{
name = ogonek;
position = "{641, 10}";
},
{
name = top;
position = "{326, 658}";
}
);
background = {
paths = (
{
closed = 1;
nodes = (
"25 -2 OFFCURVE",
"92 2 OFFCURVE",
"112 2 CURVE SMOOTH",
"146 2 OFFCURVE",
"181 -1 OFFCURVE",
"215 -3 CURVE",
"216 0 OFFCURVE",
"217 5 OFFCURVE",
"217 10 CURVE SMOOTH",
"217 18 OFFCURVE",
"215 26 OFFCURVE",
"213 26 CURVE SMOOTH",
"201 26 OFFCURVE",
"167 33 OFFCURVE",
"155 42 CURVE SMOOTH",
"150 46 OFFCURVE",
"147 53 OFFCURVE",
"147 62 CURVE SMOOTH",
"147 75 OFFCURVE",
"151 99 OFFCURVE",
"164 131 CURVE SMOOTH",
"207 241 LINE",
"212 244 LINE",
"262 247 OFFCURVE",
"304 249 OFFCURVE",
"339 249 CURVE SMOOTH",
"364 249 OFFCURVE",
"390 248 OFFCURVE",
"416 246 CURVE",
"421 242 LINE",
"466 118 LINE SMOOTH",
"471 105 OFFCURVE",
"476 77 OFFCURVE",
"476 60 CURVE SMOOTH",
"476 55 OFFCURVE",
"475 49 OFFCURVE",
"474 44 CURVE SMOOTH",
"472 33 OFFCURVE",
"439 26 OFFCURVE",
"423 26 CURVE SMOOTH",
"420 26 OFFCURVE",
"418 19 OFFCURVE",
"418 12 CURVE SMOOTH",
"418 6 OFFCURVE",
"420 -1 OFFCURVE",
"422 -3 CURVE",
"461 -1 OFFCURVE",
"499 2 OFFCURVE",
"533 2 CURVE SMOOTH",
"545 2 OFFCURVE",
"581 0 OFFCURVE",
"648 -3 CURVE",
"649 1 OFFCURVE",
"650 4 OFFCURVE",
"650 7 CURVE SMOOTH",
"650 20 OFFCURVE",
"649 26 OFFCURVE",
"646 26 CURVE SMOOTH",
"630 26 OFFCURVE",
"586 40 OFFCURVE",
"578 60 CURVE SMOOTH",
"571 77 OFFCURVE",
"561 101 OFFCURVE",
"549 132 CURVE SMOOTH",
"354 646 LINE SMOOTH",
"350 657 OFFCURVE",
"346 663 OFFCURVE",
"337 663 CURVE SMOOTH",
"320 663 OFFCURVE",
"312 654 OFFCURVE",
"304 634 CURVE SMOOTH",
"112 139 LINE SMOOTH",
"95 94 OFFCURVE",
"79 63 OFFCURVE",
"65 45 CURVE SMOOTH",
"56 33 OFFCURVE",
"24 26 OFFCURVE",
"8 26 CURVE SMOOTH",
"5 26 OFFCURVE",
"4 21 OFFCURVE",
"4 12 CURVE SMOOTH",
"4 5 OFFCURVE",
"5 0 OFFCURVE",
"8 -3 CURVE"
);
},
{
closed = 1;
nodes = (
"291 297 OFFCURVE",
"267 298 OFFCURVE",
"232 299 CURVE",
"231 303 LINE",
"317 526 LINE",
"398 305 LINE",
"395 300 LINE",
"364 298 OFFCURVE",
"333 297 OFFCURVE",
"304 297 CURVE SMOOTH"
);
}
);
};
guideLines = (
{
angle = 90;
position = "{653, 111}";
}
);
layerId = "0276F023-BC64-4582-8657-390FE5DB601E";
paths = (
{
closed = 1;
nodes = (
"25 -2 OFFCURVE",
"92 2 OFFCURVE",
"112 2 CURVE SMOOTH",
"146 2 OFFCURVE",
"181 -1 OFFCURVE",
"215 -3 CURVE",
"216 0 OFFCURVE",
"217 5 OFFCURVE",
"217 10 CURVE SMOOTH",
"217 18 OFFCURVE",
"215 26 OFFCURVE",
"213 26 CURVE SMOOTH",
"201 26 OFFCURVE",
"167 33 OFFCURVE",
"155 42 CURVE SMOOTH",
"150 46 OFFCURVE",
"147 53 OFFCURVE",
"147 62 CURVE SMOOTH",
"147 75 OFFCURVE",
"151 99 OFFCURVE",
"164 131 CURVE",
"208 244 LINE",
"258 247 OFFCURVE",
"304 249 OFFCURVE",
"339 249 CURVE SMOOTH",
"364 249 OFFCURVE",
"393 248 OFFCURVE",
"419 246 CURVE",
"466 118 LINE",
"471 105 OFFCURVE",
"476 77 OFFCURVE",
"476 60 CURVE SMOOTH",
"476 55 OFFCURVE",
"475 49 OFFCURVE",
"474 44 CURVE SMOOTH",
"472 33 OFFCURVE",
"439 26 OFFCURVE",
"423 26 CURVE SMOOTH",
"420 26 OFFCURVE",
"418 19 OFFCURVE",
"418 12 CURVE SMOOTH",
"418 6 OFFCURVE",
"420 -1 OFFCURVE",
"422 -3 CURVE",
"461 -1 OFFCURVE",
"499 2 OFFCURVE",
"533 2 CURVE SMOOTH",
"545 2 OFFCURVE",
"581 0 OFFCURVE",
"648 -3 CURVE",
"649 1 OFFCURVE",
"650 4 OFFCURVE",
"650 7 CURVE SMOOTH",
"650 20 OFFCURVE",
"649 26 OFFCURVE",
"646 26 CURVE SMOOTH",
"630 26 OFFCURVE",
"586 40 OFFCURVE",
"578 60 CURVE SMOOTH",
"571 77 OFFCURVE",
"561 101 OFFCURVE",
"549 132 CURVE SMOOTH",
"354 646 LINE SMOOTH",
"350 657 OFFCURVE",
"346 663 OFFCURVE",
"337 663 CURVE SMOOTH",
"320 663 OFFCURVE",
"312 654 OFFCURVE",
"304 634 CURVE SMOOTH",
"112 139 LINE SMOOTH",
"95 94 OFFCURVE",
"79 63 OFFCURVE",
"65 45 CURVE SMOOTH",
"56 33 OFFCURVE",
"24 26 OFFCURVE",
"8 26 CURVE SMOOTH",
"5 26 OFFCURVE",
"4 21 OFFCURVE",
"4 12 CURVE SMOOTH",
"4 5 OFFCURVE",
"5 0 OFFCURVE",
"8 -3 CURVE"
);
},
{
closed = 1;
nodes = (
"291 297 OFFCURVE",
"264 298 OFFCURVE",
"229 299 CURVE",
"333 568 LINE",
"301 568 LINE",
"400 300 LINE",
"369 298 OFFCURVE",
"333 297 OFFCURVE",
"304 297 CURVE SMOOTH"
);
}
);
width = 656;
}
);
note = A;
unicode = 0041;
},
{
color = 6;
glyphname = Abreveacute;
lastChange = "2018-11-29 13:31:51 +0000";
layers = (
{
background = {
paths = (
{
closed = 1;
nodes = (
"320 798 OFFCURVE",
"327 790 OFFCURVE",
"332 790 QCURVE SMOOTH",
"342 790 OFFCURVE",
"467 856 OFFCURVE",
"467 868 QCURVE SMOOTH",
"467 878 OFFCURVE",
"441 891 OFFCURVE",
"422 891 QCURVE SMOOTH",
"410 891 OFFCURVE",
"406 888 QCURVE SMOOTH",
"391 877 OFFCURVE",
"349 837 OFFCURVE",
"320 805 OFFCURVE",
"320 803 QCURVE SMOOTH"
);
},
{
closed = 1;
nodes = (
"261 804 OFFCURVE",
"251 804 OFFCURVE",
"236 796 OFFCURVE",
"236 793 QCURVE SMOOTH",
"236 791 LINE",
"237 789 OFFCURVE",
"237 788 QCURVE",
"245 751 OFFCURVE",
"312 700 OFFCURVE",
"356 700 QCURVE SMOOTH",
"399 700 OFFCURVE",
"467 753 OFFCURVE",
"475 787 QCURVE",
"475 788 OFFCURVE",
"476 790 QCURVE",
"476 793 LINE SMOOTH",
"476 796 OFFCURVE",
"461 804 OFFCURVE",
"451 804 OFFCURVE",
"451 802 QCURVE",
"443 775 OFFCURVE",
"392 746 OFFCURVE",
"320 746 OFFCURVE",
"269 775 OFFCURVE",
"261 802 QCURVE"
);
},
{
closed = 1;
nodes = (
"356 663 LINE",
"349 663 OFFCURVE",
"338 659 OFFCURVE",
"329 649 OFFCURVE",
"323 641 OFFCURVE",
"315 624 OFFCURVE",
"311 613 OFFCURVE",
"304 591 OFFCURVE",
"302 586 QCURVE SMOOTH",
"128 139 LINE SMOOTH",
"102 72 OFFCURVE",
"81 45 QCURVE SMOOTH",
"74 36 OFFCURVE",
"36 26 OFFCURVE",
"24 26 QCURVE SMOOTH",
"20 26 OFFCURVE",
"20 12 QCURVE SMOOTH",
"20 1 OFFCURVE",
"24 -3 QCURVE",
"41 -2 OFFCURVE",
"78 0 OFFCURVE",
"108 2 OFFCURVE",
"128 2 QCURVE SMOOTH",
"131 2 OFFCURVE",
"231 -3 QCURVE",
"233 2 OFFCURVE",
"232 26 OFFCURVE",
"229 26 QCURVE SMOOTH",
"220 26 OFFCURVE",
"180 35 OFFCURVE",
"171 42 QCURVE SMOOTH",
"163 48 OFFCURVE",
"163 62 QCURVE SMOOTH",
"163 81 OFFCURVE",
"180 131 QCURVE",
"223 241 LINE",
"228 244 LINE",
"303 249 OFFCURVE",
"355 249 QCURVE SMOOTH",
"392 249 OFFCURVE",
"431 246 QCURVE",
"434 246 OFFCURVE",
"437 242 QCURVE",
"478 129 LINE",
"482 118 LINE",
"485 108 OFFCURVE",
"492 73 OFFCURVE",
"492 60 QCURVE SMOOTH",
"492 52 OFFCURVE",
"490 44 QCURVE",
"487 36 OFFCURVE",
"451 26 OFFCURVE",
"439 26 QCURVE SMOOTH",
"435 26 OFFCURVE",
"434 1 OFFCURVE",
"438 -3 QCURVE",
"553 2 OFFCURVE",
"554 2 QCURVE SMOOTH",
"564 2 OFFCURVE",
"664 -3 QCURVE",
"666 3 OFFCURVE",
"666 7 QCURVE SMOOTH",
"666 26 OFFCURVE",
"662 26 QCURVE SMOOTH",
"650 26 OFFCURVE",
"600 45 OFFCURVE",
"594 60 QCURVE SMOOTH",
"583 85 OFFCURVE",
"565 132 QCURVE SMOOTH",
"365 660 LINE"
);
},
{
closed = 1;
nodes = (
"247 299 OFFCURVE",
"247 303 QCURVE",
"333 526 LINE",
"414 305 LINE",
"411 300 LINE",
"364 297 OFFCURVE",
"320 297 QCURVE SMOOTH",
"301 297 OFFCURVE",
"249 299 QCURVE"
);
}
);
};
components = (
{
name = A;
},
{
name = brevecomb_acutecomb.case;
transform = "{1, 0, 0, 1, 176, 0}";
}
);
layerId = "0276F023-BC64-4582-8657-390FE5DB601E";
width = 656;
}
);
note = uni1EAE;
unicode = 1EAE;
},
{
color = 6;
glyphname = Abrevegrave;
lastChange = "2018-11-29 13:31:51 +0000";
layers = (
{
background = {
paths = (
{
closed = 1;
nodes = (
"413 805 OFFCURVE",
"384 837 OFFCURVE",
"342 877 OFFCURVE",
"327 888 QCURVE SMOOTH",
"323 891 OFFCURVE",
"311 891 QCURVE SMOOTH",
"292 891 OFFCURVE",
"266 878 OFFCURVE",
"266 868 QCURVE SMOOTH",
"266 856 OFFCURVE",
"391 790 OFFCURVE",
"401 790 QCURVE SMOOTH",
"406 790 OFFCURVE",
"413 798 OFFCURVE",
"413 803 QCURVE SMOOTH"
);
},
{
closed = 1;
nodes = (
"261 804 OFFCURVE",
"251 804 OFFCURVE",
"236 796 OFFCURVE",
"236 793 QCURVE SMOOTH",
"236 791 LINE",
"237 789 OFFCURVE",
"237 788 QCURVE",
"245 751 OFFCURVE",
"312 700 OFFCURVE",
"356 700 QCURVE SMOOTH",
"399 700 OFFCURVE",
"467 753 OFFCURVE",
"475 787 QCURVE",
"475 788 OFFCURVE",
"476 790 QCURVE",
"476 793 LINE SMOOTH",
"476 796 OFFCURVE",
"461 804 OFFCURVE",
"451 804 OFFCURVE",
"451 802 QCURVE",
"443 775 OFFCURVE",
"392 746 OFFCURVE",
"320 746 OFFCURVE",
"269 775 OFFCURVE",
"261 802 QCURVE"
);
},
{
closed = 1;
nodes = (
"356 663 LINE",
"349 663 OFFCURVE",
"338 659 OFFCURVE",
"329 649 OFFCURVE",
"323 641 OFFCURVE",
"315 624 OFFCURVE",
"311 613 OFFCURVE",
"304 591 OFFCURVE",
"302 586 QCURVE SMOOTH",
"128 139 LINE SMOOTH",
"102 72 OFFCURVE",
"81 45 QCURVE SMOOTH",
"74 36 OFFCURVE",
"36 26 OFFCURVE",
"24 26 QCURVE SMOOTH",
"20 26 OFFCURVE",
"20 12 QCURVE SMOOTH",
"20 1 OFFCURVE",
"24 -3 QCURVE",
"41 -2 OFFCURVE",
"78 0 OFFCURVE",
"108 2 OFFCURVE",
"128 2 QCURVE SMOOTH",
"131 2 OFFCURVE",
"231 -3 QCURVE",
"233 2 OFFCURVE",
"232 26 OFFCURVE",
"229 26 QCURVE SMOOTH",
"220 26 OFFCURVE",
"180 35 OFFCURVE",
"171 42 QCURVE SMOOTH",
"163 48 OFFCURVE",
"163 62 QCURVE SMOOTH",
"163 81 OFFCURVE",
"180 131 QCURVE",
"223 241 LINE",
"228 244 LINE",
"303 249 OFFCURVE",
"355 249 QCURVE SMOOTH",
"392 249 OFFCURVE",
"431 246 QCURVE",
"434 246 OFFCURVE",
"437 242 QCURVE",
"478 129 LINE",
"482 118 LINE",
"485 108 OFFCURVE",
"492 73 OFFCURVE",
"492 60 QCURVE SMOOTH",
"492 52 OFFCURVE",
"490 44 QCURVE",
"487 36 OFFCURVE",
"451 26 OFFCURVE",
"439 26 QCURVE SMOOTH",
"435 26 OFFCURVE",
"434 1 OFFCURVE",
"438 -3 QCURVE",
"553 2 OFFCURVE",
"554 2 QCURVE SMOOTH",
"564 2 OFFCURVE",
"664 -3 QCURVE",
"666 3 OFFCURVE",
"666 7 QCURVE SMOOTH",
"666 26 OFFCURVE",
"662 26 QCURVE SMOOTH",
"650 26 OFFCURVE",
"600 45 OFFCURVE",
"594 60 QCURVE SMOOTH",
"583 85 OFFCURVE",
"565 132 QCURVE SMOOTH",
"365 660 LINE"
);
},
{
closed = 1;
nodes = (
"247 299 OFFCURVE",
"247 303 QCURVE",
"333 526 LINE",
"414 305 LINE",
"411 300 LINE",
"364 297 OFFCURVE",
"320 297 QCURVE SMOOTH",
"301 297 OFFCURVE",
"249 299 QCURVE"
);
}
);
};
components = (
{
name = A;
},
{
name = brevecomb_gravecomb.case;
transform = "{1, 0, 0, 1, 176, 0}";
}
);
layerId = "0276F023-BC64-4582-8657-390FE5DB601E";
width = 656;
}
);
note = uni1EB0;
unicode = 1EB0;
},
{
color = 6;
glyphname = Abrevehookabove;
lastChange = "2018-11-29 13:31:51 +0000";
layers = (
{
background = {
paths = (
{
closed = 1;
nodes = (
"261 804 OFFCURVE",
"251 804 OFFCURVE",
"236 796 OFFCURVE",
"236 793 QCURVE SMOOTH",
"236 791 LINE",
"237 789 OFFCURVE",
"237 788 QCURVE",
"245 751 OFFCURVE",
"312 700 OFFCURVE",
"356 700 QCURVE SMOOTH",
"399 700 OFFCURVE",
"467 753 OFFCURVE",
"475 787 QCURVE",
"475 788 OFFCURVE",
"476 790 QCURVE",
"476 793 LINE SMOOTH",
"476 796 OFFCURVE",
"461 804 OFFCURVE",
"451 804 OFFCURVE",
"451 802 QCURVE",
"443 775 OFFCURVE",
"392 746 OFFCURVE",
"320 746 OFFCURVE",
"269 775 OFFCURVE",
"261 802 QCURVE"
);
},
{
closed = 1;
nodes = (
"389 894 OFFCURVE",
"389 873 QCURVE SMOOTH",
"389 856 OFFCURVE",
"369 841 QCURVE",
"367 839 OFFCURVE",
"339 820 OFFCURVE",
"329 810 OFFCURVE",
"329 805 QCURVE SMOOTH",
"329 793 OFFCURVE",
"348 777 OFFCURVE",
"360 777 QCURVE SMOOTH",
"376 777 OFFCURVE",
"376 783 QCURVE",
"371 790 OFFCURVE",
"371 797 QCURVE SMOOTH",
"371 800 OFFCURVE",
"375 806 OFFCURVE",
"378 809 OFFCURVE",
"388 814 OFFCURVE",
"390 816 QCURVE",
"400 823 LINE SMOOTH",
"410 830 OFFCURVE",
"415 835 OFFCURVE",
"430 848 OFFCURVE",
"436 857 OFFCURVE",
"442 871 OFFCURVE",
"442 878 QCURVE SMOOTH",
"442 903 OFFCURVE",
"406 930 OFFCURVE",
"378 930 QCURVE SMOOTH",
"347 930 OFFCURVE",
"292 901 OFFCURVE",
"282 887 QCURVE",
"282 858 OFFCURVE",
"299 858 QCURVE SMOOTH",
"310 858 OFFCURVE",
"346 894 OFFCURVE",
"360 894 QCURVE SMOOTH"
);
},
{
closed = 1;
nodes = (
"356 663 LINE",
"349 663 OFFCURVE",
"338 659 OFFCURVE",
"329 649 OFFCURVE",
"323 641 OFFCURVE",
"315 624 OFFCURVE",
"311 613 OFFCURVE",
"304 591 OFFCURVE",
"302 586 QCURVE SMOOTH",
"128 139 LINE SMOOTH",
"102 72 OFFCURVE",
"81 45 QCURVE SMOOTH",
"74 36 OFFCURVE",
"36 26 OFFCURVE",
"24 26 QCURVE SMOOTH",
"20 26 OFFCURVE",
"20 12 QCURVE SMOOTH",
"20 1 OFFCURVE",
"24 -3 QCURVE",
"41 -2 OFFCURVE",
"78 0 OFFCURVE",
"108 2 OFFCURVE",
"128 2 QCURVE SMOOTH",
"131 2 OFFCURVE",
"231 -3 QCURVE",
"233 2 OFFCURVE",
"232 26 OFFCURVE",
"229 26 QCURVE SMOOTH",
"220 26 OFFCURVE",
"180 35 OFFCURVE",
"171 42 QCURVE SMOOTH",
"163 48 OFFCURVE",
"163 62 QCURVE SMOOTH",
"163 81 OFFCURVE",
"180 131 QCURVE",
"223 241 LINE",
"228 244 LINE",
"303 249 OFFCURVE",
"355 249 QCURVE SMOOTH",
"392 249 OFFCURVE",
"431 246 QCURVE",
"434 246 OFFCURVE",
"437 242 QCURVE",
"478 129 LINE",
"482 118 LINE",
"485 108 OFFCURVE",
"492 73 OFFCURVE",
"492 60 QCURVE SMOOTH",
"492 52 OFFCURVE",
"490 44 QCURVE",
"487 36 OFFCURVE",
"451 26 OFFCURVE",
"439 26 QCURVE SMOOTH",
"435 26 OFFCURVE",
"434 1 OFFCURVE",
"438 -3 QCURVE",
"553 2 OFFCURVE",
"554 2 QCURVE SMOOTH",
"564 2 OFFCURVE",
"664 -3 QCURVE",
"666 3 OFFCURVE",
"666 7 QCURVE SMOOTH",
"666 26 OFFCURVE",
"662 26 QCURVE SMOOTH",
"650 26 OFFCURVE",
"600 45 OFFCURVE",
"594 60 QCURVE SMOOTH",
"583 85 OFFCURVE",
"565 132 QCURVE SMOOTH",
"365 660 LINE"
);
},
{
closed = 1;
nodes = (
"247 299 OFFCURVE",
"247 303 QCURVE",
"333 526 LINE",
"414 305 LINE",
"411 300 LINE",
"364 297 OFFCURVE",
"320 297 QCURVE SMOOTH",
"301 297 OFFCURVE",
"249 299 QCURVE"
);
}
);
};
components = (
{
name = A;
},
{
name = brevecomb_hookabovecomb.case;
transform = "{1, 0, 0, 1, 176, 0}";
}
);
layerId = "0276F023-BC64-4582-8657-390FE5DB601E";
width = 656;
}
);
note = uni1EB2;
unicode = 1EB2;
},
{
color = 6;
glyphname = Abrevetilde;
lastChange = "2018-11-29 13:31:51 +0000";
layers = (
{
background = {
paths = (
{
closed = 1;
nodes = (
"401 865 OFFCURVE",
"322 906 OFFCURVE",
"295 906 QCURVE SMOOTH",
"272 906 OFFCURVE",
"219 870 OFFCURVE",
"219 843 QCURVE SMOOTH",
"219 828 OFFCURVE",
"228 828 QCURVE SMOOTH",
"232 828 OFFCURVE",
"234 829 QCURVE",
"250 862 OFFCURVE",
"281 862 QCURVE SMOOTH",
"307 862 OFFCURVE",
"388 821 OFFCURVE",
"416 821 QCURVE SMOOTH",
"438 821 OFFCURVE",
"492 861 OFFCURVE",
"492 888 QCURVE SMOOTH",
"492 903 OFFCURVE",
"483 903 QCURVE SMOOTH",
"479 903 OFFCURVE",
"477 902 QCURVE",
"459 865 OFFCURVE",
"428 865 QCURVE SMOOTH"
);
},
{
closed = 1;
nodes = (
"261 804 OFFCURVE",
"251 804 OFFCURVE",
"236 796 OFFCURVE",
"236 793 QCURVE SMOOTH",
"236 791 LINE",
"237 789 OFFCURVE",
"237 788 QCURVE",
"245 751 OFFCURVE",
"312 700 OFFCURVE",
"356 700 QCURVE SMOOTH",
"399 700 OFFCURVE",
"467 753 OFFCURVE",
"475 787 QCURVE",
"475 788 OFFCURVE",
"476 790 QCURVE",
"476 793 LINE SMOOTH",
"476 796 OFFCURVE",
"461 804 OFFCURVE",
"451 804 OFFCURVE",
"451 802 QCURVE",
"443 775 OFFCURVE",
"392 746 OFFCURVE",
"320 746 OFFCURVE",
"269 775 OFFCURVE",
"261 802 QCURVE"
);
},
{
closed = 1;
nodes = (
"356 663 LINE",
"349 663 OFFCURVE",
"338 659 OFFCURVE",
"329 649 OFFCURVE",
"323 641 OFFCURVE",
"315 624 OFFCURVE",
"311 613 OFFCURVE",
"304 591 OFFCURVE",
"302 586 QCURVE SMOOTH",
"128 139 LINE SMOOTH",
"102 72 OFFCURVE",
"81 45 QCURVE SMOOTH",
"74 36 OFFCURVE",
"36 26 OFFCURVE",
"24 26 QCURVE SMOOTH",
"20 26 OFFCURVE",
"20 12 QCURVE SMOOTH",
"20 1 OFFCURVE",
"24 -3 QCURVE",
"41 -2 OFFCURVE",
"78 0 OFFCURVE",
"108 2 OFFCURVE",
"128 2 QCURVE SMOOTH",
"131 2 OFFCURVE",
"231 -3 QCURVE",
"233 2 OFFCURVE",
"232 26 OFFCURVE",
"229 26 QCURVE SMOOTH",
"220 26 OFFCURVE",
"180 35 OFFCURVE",
"171 42 QCURVE SMOOTH",
"163 48 OFFCURVE",
"163 62 QCURVE SMOOTH",
"163 81 OFFCURVE",
"180 131 QCURVE",
"223 241 LINE",
"228 244 LINE",
"303 249 OFFCURVE",
"355 249 QCURVE SMOOTH",
"392 249 OFFCURVE",
"431 246 QCURVE",
"434 246 OFFCURVE",
"437 242 QCURVE",
"478 129 LINE",
"482 118 LINE",
"485 108 OFFCURVE",
"492 73 OFFCURVE",
"492 60 QCURVE SMOOTH",
"492 52 OFFCURVE",
"490 44 QCURVE",
"487 36 OFFCURVE",
"451 26 OFFCURVE",
"439 26 QCURVE SMOOTH",
"435 26 OFFCURVE",
"434 1 OFFCURVE",
"438 -3 QCURVE",
"553 2 OFFCURVE",
"554 2 QCURVE SMOOTH",
"564 2 OFFCURVE",
"664 -3 QCURVE",
"666 3 OFFCURVE",
"666 7 QCURVE SMOOTH",
"666 26 OFFCURVE",
"662 26 QCURVE SMOOTH",
"650 26 OFFCURVE",
"600 45 OFFCURVE",
"594 60 QCURVE SMOOTH",
"583 85 OFFCURVE",
"565 132 QCURVE SMOOTH",
"365 660 LINE"
);
},
{
closed = 1;
nodes = (
"247 299 OFFCURVE",
"247 303 QCURVE",
"333 526 LINE",
"414 305 LINE",
"411 300 LINE",
"364 297 OFFCURVE",
"320 297 QCURVE SMOOTH",
"301 297 OFFCURVE",
"249 299 QCURVE"
);
}
);
};
components = (
{
name = A;
},
{
name = brevecomb_tildecomb.case;
transform = "{1, 0, 0, 1, 176, 0}";
}
);
layerId = "0276F023-BC64-4582-8657-390FE5DB601E";
width = 656;
}
);
note = uni1EB4;
unicode = 1EB4;
},
{
color = 6;
glyphname = Acircumflexacute;
lastChange = "2018-11-29 13:31:51 +0000";
layers = (
{
background = {
paths = (
{
closed = 1;
nodes = (
"432 798 OFFCURVE",
"441 789 OFFCURVE",
"444 789 QCURVE SMOOTH",
"454 789 OFFCURVE",
"574 848 OFFCURVE",
"574 859 QCURVE SMOOTH",
"574 865 OFFCURVE",
"543 882 OFFCURVE",
"525 882 QCURVE SMOOTH",
"513 882 OFFCURVE",
"509 879 QCURVE SMOOTH",
"494 868 OFFCURVE",
"457 832 OFFCURVE",
"432 804 OFFCURVE",
"432 802 QCURVE SMOOTH"
);
},
{
closed = 1;
nodes = (
"469 698 OFFCURVE",
"469 718 QCURVE SMOOTH",
"469 719 OFFCURVE",
"451 733 OFFCURVE",
"420 760 OFFCURVE",
"407 772 QCURVE",
"387 792 OFFCURVE",
"366 820 QCURVE",
"361 828 OFFCURVE",
"355 828 QCURVE SMOOTH",
"352 828 OFFCURVE",
"345 820 QCURVE",
"331 800 OFFCURVE",
"303 774 QCURVE SMOOTH",
"289 761 OFFCURVE",
"246 722 OFFCURVE",
"242 718 QCURVE",
"242 698 OFFCURVE",
"252 698 QCURVE SMOOTH",
"261 698 OFFCURVE",
"331 738 OFFCURVE",
"355 756 QCURVE",
"441 698 OFFCURVE",
"460 698 QCURVE SMOOTH"
);
},
{
closed = 1;
nodes = (
"356 663 LINE",
"349 663 OFFCURVE",
"338 659 OFFCURVE",
"329 649 OFFCURVE",
"323 641 OFFCURVE",
"315 624 OFFCURVE",
"311 613 OFFCURVE",
"304 591 OFFCURVE",
"302 586 QCURVE SMOOTH",
"128 139 LINE SMOOTH",
"102 72 OFFCURVE",
"81 45 QCURVE SMOOTH",
"74 36 OFFCURVE",
"36 26 OFFCURVE",
"24 26 QCURVE SMOOTH",
"20 26 OFFCURVE",
"20 12 QCURVE SMOOTH",
"20 1 OFFCURVE",
"24 -3 QCURVE",
"41 -2 OFFCURVE",
"78 0 OFFCURVE",
"108 2 OFFCURVE",
"128 2 QCURVE SMOOTH",
"131 2 OFFCURVE",
"231 -3 QCURVE",
"233 2 OFFCURVE",
"232 26 OFFCURVE",
"229 26 QCURVE SMOOTH",
"220 26 OFFCURVE",
"180 35 OFFCURVE",
"171 42 QCURVE SMOOTH",
"163 48 OFFCURVE",
"163 62 QCURVE SMOOTH",
"163 81 OFFCURVE",
"180 131 QCURVE",
"223 241 LINE",
"228 244 LINE",
"303 249 OFFCURVE",
"355 249 QCURVE SMOOTH",
"392 249 OFFCURVE",
"431 246 QCURVE",
"434 246 OFFCURVE",
"437 242 QCURVE",
"478 129 LINE",
"482 118 LINE",
"485 108 OFFCURVE",
"492 73 OFFCURVE",
"492 60 QCURVE SMOOTH",
"492 52 OFFCURVE",
"490 44 QCURVE",
"487 36 OFFCURVE",
"451 26 OFFCURVE",
"439 26 QCURVE SMOOTH",
"435 26 OFFCURVE",
"434 1 OFFCURVE",
"438 -3 QCURVE",
"553 2 OFFCURVE",
"554 2 QCURVE SMOOTH",
"564 2 OFFCURVE",
"664 -3 QCURVE",
"666 3 OFFCURVE",
"666 7 QCURVE SMOOTH",
"666 26 OFFCURVE",
"662 26 QCURVE SMOOTH",
"650 26 OFFCURVE",
"600 45 OFFCURVE",
"594 60 QCURVE SMOOTH",
"583 85 OFFCURVE",
"565 132 QCURVE SMOOTH",
"365 660 LINE"
);
},
{
closed = 1;
nodes = (
"247 299 OFFCURVE",
"247 303 QCURVE",
"333 526 LINE",
"414 305 LINE",
"411 300 LINE",
"364 297 OFFCURVE",
"320 297 QCURVE SMOOTH",
"301 297 OFFCURVE",
"249 299 QCURVE"
);
}
);
};
components = (
{
name = A;
},
{
name = circumflexcomb_acutecomb.case;
transform = "{1, 0, 0, 1, 176, 0}";
}
);
layerId = "0276F023-BC64-4582-8657-390FE5DB601E";
width = 656;
}
);
note = uni1EA4;
unicode = 1EA4;
},
{
color = 6;
glyphname = Acircumflexgrave;
lastChange = "2018-11-29 13:31:51 +0000";
layers = (
{
background = {
paths = (
{
closed = 1;
nodes = (
"397 836 OFFCURVE",
"508 761 OFFCURVE",
"517 761 QCURVE SMOOTH",
"520 761 OFFCURVE",
"531 769 OFFCURVE",
"531 772 QCURVE SMOOTH",
"531 776 OFFCURVE",
"484 840 OFFCURVE",
"464 859 QCURVE SMOOTH",
"459 864 OFFCURVE",
"441 864 QCURVE SMOOTH",
"425 864 OFFCURVE",
"397 852 OFFCURVE",
"397 847 QCURVE SMOOTH"
);
},
{
closed = 1;
nodes = (
"356 663 LINE",
"349 663 OFFCURVE",
"338 659 OFFCURVE",
"329 649 OFFCURVE",
"323 641 OFFCURVE",
"315 624 OFFCURVE",
"311 613 OFFCURVE",
"304 591 OFFCURVE",
"302 586 QCURVE SMOOTH",
"128 139 LINE SMOOTH",
"102 72 OFFCURVE",
"81 45 QCURVE SMOOTH",
"74 36 OFFCURVE",
"36 26 OFFCURVE",
"24 26 QCURVE SMOOTH",
"20 26 OFFCURVE",
"20 12 QCURVE SMOOTH",
"20 1 OFFCURVE",
"24 -3 QCURVE",
"41 -2 OFFCURVE",
"78 0 OFFCURVE",
"108 2 OFFCURVE",
"128 2 QCURVE SMOOTH",
"131 2 OFFCURVE",
"231 -3 QCURVE",
"233 2 OFFCURVE",
"232 26 OFFCURVE",
"229 26 QCURVE SMOOTH",
"220 26 OFFCURVE",
"180 35 OFFCURVE",
"171 42 QCURVE SMOOTH",
"163 48 OFFCURVE",
"163 62 QCURVE SMOOTH",
"163 81 OFFCURVE",
"180 131 QCURVE",
"223 241 LINE",
"228 244 LINE",
"303 249 OFFCURVE",
"355 249 QCURVE SMOOTH",
"392 249 OFFCURVE",
"431 246 QCURVE",
"434 246 OFFCURVE",
"437 242 QCURVE",
"478 129 LINE",
"482 118 LINE",
"485 108 OFFCURVE",
"492 73 OFFCURVE",
"492 60 QCURVE SMOOTH",
"492 52 OFFCURVE",
"490 44 QCURVE",
"487 36 OFFCURVE",
"451 26 OFFCURVE",
"439 26 QCURVE SMOOTH",
"435 26 OFFCURVE",
"434 1 OFFCURVE",
"438 -3 QCURVE",
"553 2 OFFCURVE",
"554 2 QCURVE SMOOTH",
"564 2 OFFCURVE",
"664 -3 QCURVE",
"666 3 OFFCURVE",
"666 7 QCURVE SMOOTH",
"666 26 OFFCURVE",
"662 26 QCURVE SMOOTH",
"650 26 OFFCURVE",
"600 45 OFFCURVE",
"594 60 QCURVE SMOOTH",
"583 85 OFFCURVE",
"565 132 QCURVE SMOOTH",
"365 660 LINE"
);
},
{
closed = 1;
nodes = (
"247 299 OFFCURVE",
"247 303 QCURVE",
"333 526 LINE",
"414 305 LINE",
"411 300 LINE",
"364 297 OFFCURVE",
"320 297 QCURVE SMOOTH",
"301 297 OFFCURVE",
"249 299 QCURVE"
);
},
{
closed = 1;
nodes = (
"469 698 OFFCURVE",
"469 718 QCURVE SMOOTH",
"469 719 OFFCURVE",
"451 733 OFFCURVE",
"420 760 OFFCURVE",
"407 772 QCURVE",
"387 792 OFFCURVE",
"366 820 QCURVE",
"361 828 OFFCURVE",
"355 828 QCURVE SMOOTH",
"352 828 OFFCURVE",
"345 820 QCURVE",
"331 800 OFFCURVE",
"303 774 QCURVE SMOOTH",
"289 761 OFFCURVE",
"246 722 OFFCURVE",
"242 718 QCURVE",
"242 698 OFFCURVE",
"252 698 QCURVE SMOOTH",
"261 698 OFFCURVE",
"331 738 OFFCURVE",
"355 756 QCURVE",
"441 698 OFFCURVE",
"460 698 QCURVE SMOOTH"
);
}
);
};
components = (
{
name = A;
},
{
name = circumflexcomb_gravecomb.case;
transform = "{1, 0, 0, 1, 176, 0}";
}
);
layerId = "0276F023-BC64-4582-8657-390FE5DB601E";
width = 656;
}
);
note = uni1EA6;
unicode = 1EA6;
},
{
color = 6;
glyphname = Acircumflextilde;
lastChange = "2018-11-29 13:31:51 +0000";
layers = (
{
background = {
paths = (
{
closed = 1;
nodes = (
"401 865 OFFCURVE",
"322 906 OFFCURVE",
"295 906 QCURVE SMOOTH",
"272 906 OFFCURVE",
"219 870 OFFCURVE",
"219 843 QCURVE SMOOTH",
"219 828 OFFCURVE",
"228 828 QCURVE SMOOTH",
"232 828 OFFCURVE",
"234 829 QCURVE",
"250 862 OFFCURVE",
"281 862 QCURVE SMOOTH",
"307 862 OFFCURVE",
"388 821 OFFCURVE",
"416 821 QCURVE SMOOTH",
"438 821 OFFCURVE",
"492 861 OFFCURVE",
"492 888 QCURVE SMOOTH",
"492 903 OFFCURVE",
"483 903 QCURVE SMOOTH",
"479 903 OFFCURVE",
"477 902 QCURVE",
"459 865 OFFCURVE",
"428 865 QCURVE SMOOTH"
);
},
{
closed = 1;
nodes = (
"469 693 OFFCURVE",
"469 711 QCURVE SMOOTH",
"469 712 OFFCURVE",
"451 725 OFFCURVE",
"420 749 OFFCURVE",
"407 760 QCURVE",
"384 781 OFFCURVE",
"366 804 QCURVE",
"362 811 OFFCURVE",
"355 811 QCURVE SMOOTH",
"352 811 OFFCURVE",
"345 804 QCURVE",
"330 786 OFFCURVE",
"303 762 QCURVE SMOOTH",
"288 749 OFFCURVE",
"246 715 OFFCURVE",
"242 711 QCURVE",
"242 693 OFFCURVE",
"252 693 QCURVE SMOOTH",
"261 693 OFFCURVE",
"331 728 OFFCURVE",
"355 744 QCURVE",
"381 728 OFFCURVE",
"452 693 OFFCURVE",
"460 693 QCURVE SMOOTH"
);
},
{
closed = 1;
nodes = (
"356 663 LINE",
"349 663 OFFCURVE",
"338 659 OFFCURVE",
"329 649 OFFCURVE",
"323 641 OFFCURVE",
"315 624 OFFCURVE",
"311 613 OFFCURVE",
"304 591 OFFCURVE",
"302 586 QCURVE SMOOTH",
"128 139 LINE SMOOTH",
"102 72 OFFCURVE",
"81 45 QCURVE SMOOTH",
"74 36 OFFCURVE",
"36 26 OFFCURVE",
"24 26 QCURVE SMOOTH",
"20 26 OFFCURVE",
"20 12 QCURVE SMOOTH",
"20 1 OFFCURVE",
"24 -3 QCURVE",
"41 -2 OFFCURVE",
"78 0 OFFCURVE",
"108 2 OFFCURVE",
"128 2 QCURVE SMOOTH",
"131 2 OFFCURVE",
"231 -3 QCURVE",
"233 2 OFFCURVE",
"232 26 OFFCURVE",
"229 26 QCURVE SMOOTH",
"220 26 OFFCURVE",
"180 35 OFFCURVE",
"171 42 QCURVE SMOOTH",
"163 48 OFFCURVE",
"163 62 QCURVE SMOOTH",
"163 81 OFFCURVE",
"180 131 QCURVE",
"223 241 LINE",
"228 244 LINE",
"303 249 OFFCURVE",
"355 249 QCURVE SMOOTH",
"392 249 OFFCURVE",
"431 246 QCURVE",
"434 246 OFFCURVE",
"437 242 QCURVE",
"478 129 LINE",
"482 118 LINE",
"485 108 OFFCURVE",
"492 73 OFFCURVE",
"492 60 QCURVE SMOOTH",
"492 52 OFFCURVE",
"490 44 QCURVE",
"487 36 OFFCURVE",
"451 26 OFFCURVE",
"439 26 QCURVE SMOOTH",
"435 26 OFFCURVE",
"434 1 OFFCURVE",
"438 -3 QCURVE",
"553 2 OFFCURVE",
"554 2 QCURVE SMOOTH",
"564 2 OFFCURVE",
"664 -3 QCURVE",
"666 3 OFFCURVE",
"666 7 QCURVE SMOOTH",
"666 26 OFFCURVE",
"662 26 QCURVE SMOOTH",
"650 26 OFFCURVE",
"600 45 OFFCURVE",
"594 60 QCURVE SMOOTH",
"583 85 OFFCURVE",
"565 132 QCURVE SMOOTH",
"365 660 LINE"
);
},
{
closed = 1;
nodes = (
"247 299 OFFCURVE",
"247 303 QCURVE",
"333 526 LINE",
"414 305 LINE",
"411 300 LINE",
"364 297 OFFCURVE",
"320 297 QCURVE SMOOTH",
"301 297 OFFCURVE",
"249 299 QCURVE"
);
}
);
};
components = (
{
name = A;
},
{
name = circumflexcomb_tildecomb.case;
transform = "{1, 0, 0, 1, 176, 0}";
}
);
layerId = "0276F023-BC64-4582-8657-390FE5DB601E";
width = 656;
}
);
note = uni1EAA;
unicode = 1EAA;
},
{
color = 3;
glyphname = Aogonek;
lastChange = "2018-11-27 20:13:45 +0000";
layers = (
{
anchors = (
{
name = bottom;
position = "{326, 0}";
},
{
name = top;
position = "{326, 658}";
}
);
background = {
paths = (
{
closed = 1;
nodes = (
"25 -2 OFFCURVE",
"92 2 OFFCURVE",
"112 2 CURVE SMOOTH",
"146 2 OFFCURVE",
"181 -1 OFFCURVE",
"215 -3 CURVE",
"216 0 OFFCURVE",
"217 5 OFFCURVE",
"217 10 CURVE SMOOTH",
"217 18 OFFCURVE",
"215 26 OFFCURVE",
"213 26 CURVE SMOOTH",
"201 26 OFFCURVE",
"167 33 OFFCURVE",
"155 42 CURVE SMOOTH",
"150 46 OFFCURVE",
"147 53 OFFCURVE",
"147 62 CURVE SMOOTH",
"147 75 OFFCURVE",
"151 99 OFFCURVE",
"164 131 CURVE",
"208 244 LINE",
"258 247 OFFCURVE",
"304 249 OFFCURVE",
"339 249 CURVE SMOOTH",
"364 249 OFFCURVE",
"393 248 OFFCURVE",
"419 246 CURVE",
"466 118 LINE",
"471 105 OFFCURVE",
"476 77 OFFCURVE",
"476 60 CURVE SMOOTH",
"476 55 OFFCURVE",
"475 49 OFFCURVE",
"474 44 CURVE SMOOTH",
"472 33 OFFCURVE",
"439 26 OFFCURVE",
"423 26 CURVE SMOOTH",
"420 26 OFFCURVE",
"418 19 OFFCURVE",
"418 12 CURVE SMOOTH",
"418 6 OFFCURVE",
"420 -1 OFFCURVE",
"422 -3 CURVE",
"461 -1 OFFCURVE",
"499 2 OFFCURVE",
"533 2 CURVE SMOOTH",
"545 2 OFFCURVE",
"581 0 OFFCURVE",
"648 -3 CURVE",
"649 1 OFFCURVE",
"650 4 OFFCURVE",
"650 7 CURVE SMOOTH",
"650 20 OFFCURVE",
"649 26 OFFCURVE",
"646 26 CURVE SMOOTH",
"630 26 OFFCURVE",
"586 40 OFFCURVE",
"578 60 CURVE SMOOTH",
"571 77 OFFCURVE",
"561 101 OFFCURVE",
"549 132 CURVE SMOOTH",
"354 646 LINE SMOOTH",
"350 657 OFFCURVE",
"346 663 OFFCURVE",
"337 663 CURVE SMOOTH",
"320 663 OFFCURVE",
"312 654 OFFCURVE",
"304 634 CURVE SMOOTH",
"112 139 LINE SMOOTH",
"95 94 OFFCURVE",
"79 63 OFFCURVE",
"65 45 CURVE SMOOTH",
"56 33 OFFCURVE",
"24 26 OFFCURVE",
"8 26 CURVE SMOOTH",
"5 26 OFFCURVE",
"4 21 OFFCURVE",
"4 12 CURVE SMOOTH",
"4 5 OFFCURVE",
"5 0 OFFCURVE",
"8 -3 CURVE"
);
},
{
closed = 1;
nodes = (
"291 297 OFFCURVE",
"264 298 OFFCURVE",
"229 299 CURVE",
"333 568 LINE",
"301 568 LINE",
"400 300 LINE",
"369 298 OFFCURVE",
"333 297 OFFCURVE",
"304 297 CURVE SMOOTH"
);
},
{
closed = 1;
nodes = (
"641 10 LINE",
"599 14 LINE",
"581 2 LINE",
"521 -37 OFFCURVE",
"469 -95 OFFCURVE",
"469 -146 CURVE SMOOTH",
"469 -182 OFFCURVE",
"491 -223 OFFCURVE",
"540 -223 CURVE SMOOTH",
"577 -223 OFFCURVE",
"617 -204 OFFCURVE",
"645 -157 CURVE SMOOTH",
"648 -152 OFFCURVE",
"650 -146 OFFCURVE",
"650 -139 CURVE SMOOTH",
"650 -130 OFFCURVE",
"648 -126 OFFCURVE",
"645 -126 CURVE",
"629 -143 OFFCURVE",
"598 -164 OFFCURVE",
"564 -164 CURVE SMOOTH",
"533 -164 OFFCURVE",
"523 -142 OFFCURVE",
"523 -121 CURVE SMOOTH",
"523 -81 OFFCURVE",
"575 -29 OFFCURVE",
"627 2 CURVE"
);
}
);
};
layerId = "0276F023-BC64-4582-8657-390FE5DB601E";
paths = (
{
closed = 1;
nodes = (
"577 -223 OFFCURVE",
"617 -204 OFFCURVE",
"645 -157 CURVE SMOOTH",
"648 -152 OFFCURVE",
"650 -146 OFFCURVE",
"650 -139 CURVE SMOOTH",
"650 -130 OFFCURVE",
"648 -126 OFFCURVE",
"645 -126 CURVE",
"629 -143 OFFCURVE",
"598 -164 OFFCURVE",
"564 -164 CURVE SMOOTH",
"533 -164 OFFCURVE",
"523 -146 OFFCURVE",
"523 -128 CURVE SMOOTH",
"523 -87 OFFCURVE",
"586 -33 OFFCURVE",
"648 -3 CURVE",
"649 1 OFFCURVE",
"650 4 OFFCURVE",
"650 7 CURVE SMOOTH",
"650 20 OFFCURVE",
"649 26 OFFCURVE",
"646 26 CURVE SMOOTH",
"630 26 OFFCURVE",
"586 40 OFFCURVE",
"578 60 CURVE SMOOTH",
"571 77 OFFCURVE",
"561 101 OFFCURVE",
"549 132 CURVE SMOOTH",
"354 646 LINE SMOOTH",
"350 657 OFFCURVE",
"346 663 OFFCURVE",
"337 663 CURVE SMOOTH",
"320 663 OFFCURVE",
"312 654 OFFCURVE",
"304 634 CURVE SMOOTH",
"112 139 LINE SMOOTH",
"95 94 OFFCURVE",
"79 63 OFFCURVE",
"65 45 CURVE SMOOTH",
"56 33 OFFCURVE",
"24 26 OFFCURVE",
"8 26 CURVE SMOOTH",
"5 26 OFFCURVE",
"4 21 OFFCURVE",
"4 12 CURVE SMOOTH",
"4 5 OFFCURVE",
"5 0 OFFCURVE",
"8 -3 CURVE",
"25 -2 OFFCURVE",
"92 2 OFFCURVE",
"112 2 CURVE SMOOTH",
"146 2 OFFCURVE",
"181 -1 OFFCURVE",
"215 -3 CURVE",
"216 0 OFFCURVE",
"217 5 OFFCURVE",
"217 10 CURVE SMOOTH",
"217 18 OFFCURVE",
"215 26 OFFCURVE",
"213 26 CURVE SMOOTH",
"201 26 OFFCURVE",
"167 33 OFFCURVE",
"155 42 CURVE SMOOTH",
"150 46 OFFCURVE",
"147 53 OFFCURVE",
"147 62 CURVE SMOOTH",
"147 75 OFFCURVE",
"151 99 OFFCURVE",
"164 131 CURVE SMOOTH",
"208 244 LINE",
"258 247 OFFCURVE",
"304 249 OFFCURVE",
"339 249 CURVE SMOOTH",
"364 249 OFFCURVE",
"393 248 OFFCURVE",
"419 246 CURVE",
"466 118 LINE SMOOTH",
"471 105 OFFCURVE",
"476 77 OFFCURVE",
"476 60 CURVE SMOOTH",
"476 55 OFFCURVE",
"475 49 OFFCURVE",
"474 44 CURVE SMOOTH",
"472 33 OFFCURVE",
"439 26 OFFCURVE",
"423 26 CURVE SMOOTH",
"420 26 OFFCURVE",
"418 19 OFFCURVE",
"418 12 CURVE SMOOTH",
"418 6 OFFCURVE",
"420 -1 OFFCURVE",
"422 -3 CURVE",
"461 -1 OFFCURVE",
"499 2 OFFCURVE",
"533 2 CURVE SMOOTH",
"540 2 OFFCURVE",
"563 2 OFFCURVE",
"592 1 CURVE",
"516 -39 OFFCURVE",
"469 -95 OFFCURVE",
"469 -146 CURVE SMOOTH",
"469 -182 OFFCURVE",
"491 -223 OFFCURVE",
"540 -223 CURVE SMOOTH"
);
},
{
closed = 1;
nodes = (
"291 297 OFFCURVE",
"264 298 OFFCURVE",
"229 299 CURVE",
"333 568 LINE",
"301 568 LINE",
"400 300 LINE",
"369 298 OFFCURVE",
"333 297 OFFCURVE",
"304 297 CURVE SMOOTH"
);
}
);
width = 656;
}
);
leftMetricsKey = A;
widthMetricsKey = A;
note = Aogonek;
unicode = 0104;
},
{
color = 3;
glyphname = AE;
lastChange = "2018-12-15 20:42:08 +0000";
layers = (
{
anchors = (
{
name = bottom;
position = "{544, 0}";
},
{
name = top;
position = "{544, 658}";
}
);
background = {
paths = (
{
closed = 1;
nodes = (
"97 -1 OFFCURVE",
"132 0 OFFCURVE",
"156 0 CURVE SMOOTH",
"184 0 OFFCURVE",
"218 -1 OFFCURVE",
"258 -3 CURVE",
"261 7 OFFCURVE",
"264 16 OFFCURVE",
"264 26 CURVE",
"236 26 OFFCURVE",
"218 31 OFFCURVE",
"209 40 CURVE SMOOTH",
"206 43 OFFCURVE",
"204 48 OFFCURVE",
"204 53 CURVE SMOOTH",
"204 68 OFFCURVE",
"222 104 OFFCURVE",
"238 129 CURVE SMOOTH",
"307 239 LINE",
"312 242 LINE",
"363 245 OFFCURVE",
"396 247 OFFCURVE",
"411 247 CURVE SMOOTH",
"448 247 OFFCURVE",
"473 246 OFFCURVE",
"487 244 CURVE",
"496 242 OFFCURVE",
"500 238 OFFCURVE",
"500 233 CURVE SMOOTH",
"500 135 LINE SMOOTH",
"500 96 OFFCURVE",
"498 67 OFFCURVE",
"493 49 CURVE",
"489 38 OFFCURVE",
"443 26 OFFCURVE",
"427 26 CURVE SMOOTH",
"424 26 OFFCURVE",
"423 21 OFFCURVE",
"423 12 CURVE SMOOTH",
"423 5 OFFCURVE",
"424 0 OFFCURVE",
"427 -3 CURVE",
"545 2 LINE",
"574 2 OFFCURVE",
"628 1 OFFCURVE",
"709 -1 CURVE SMOOTH",
"789 -3 OFFCURVE",
"848 -4 OFFCURVE",
"886 -4 CURVE",
"890 29 OFFCURVE",
"929 134 OFFCURVE",
"940 162 CURVE",
"936 166 OFFCURVE",
"928 168 OFFCURVE",
"915 168 CURVE SMOOTH",
"907 168 OFFCURVE",
"902 166 OFFCURVE",
"901 162 CURVE",
"886 111 OFFCURVE",
"858 72 OFFCURVE",
"838 61 CURVE SMOOTH",
"816 49 OFFCURVE",
"774 44 OFFCURVE",
"712 44 CURVE SMOOTH",
"664 44 LINE SMOOTH",
"621 44 OFFCURVE",
"598 47 OFFCURVE",
"596 54 CURVE",
"590 71 OFFCURVE",
"587 102 OFFCURVE",
"587 145 CURVE SMOOTH",
"587 300 LINE SMOOTH",
"587 306 OFFCURVE",
"611 309 OFFCURVE",
"659 309 CURVE SMOOTH",
"721 309 OFFCURVE",
"757 306 OFFCURVE",
"765 301 CURVE SMOOTH",
"776 294 OFFCURVE",
"781 285 OFFCURVE",
"793 238 CURVE",
"795 233 OFFCURVE",
"800 230 OFFCURVE",
"809 230 CURVE SMOOTH",
"817 230 OFFCURVE",
"822 231 OFFCURVE",
"825 234 CURVE",
"825 423 LINE",
"822 426 OFFCURVE",
"816 428 OFFCURVE",
"808 428 CURVE SMOOTH",
"799 428 OFFCURVE",
"794 426 OFFCURVE",
"793 421 CURVE",
"783 370 OFFCURVE",
"773 364 OFFCURVE",
"761 360 CURVE SMOOTH",
"747 355 OFFCURVE",
"731 353 OFFCURVE",
"723 353 CURVE SMOOTH",
"630 353 LINE SMOOTH",
"601 353 OFFCURVE",
"587 355 OFFCURVE",
"587 359 CURVE SMOOTH",
"587 519 LINE SMOOTH",
"587 559 OFFCURVE",
"589 587 OFFCURVE",
"592 603 CURVE",
"593 612 OFFCURVE",
"623 616 OFFCURVE",
"680 616 CURVE SMOOTH",
"737 616 LINE SMOOTH",
"810 616 OFFCURVE",
"845 604 OFFCURVE",
"863 530 CURVE",
"864 525 OFFCURVE",
"868 523 OFFCURVE",
"877 523 CURVE SMOOTH",
"886 523 OFFCURVE",
"892 525 OFFCURVE",
"895 528 CURVE",
"889 556 OFFCURVE",
"875 611 OFFCURVE",
"866 664 CURVE",
"828 664 OFFCURVE",
"772 663 OFFCURVE",
"698 660 CURVE SMOOTH",
"624 657 OFFCURVE",
"572 656 OFFCURVE",
"543 656 CURVE SMOOTH",
"498 656 OFFCURVE",
"460 657 OFFCURVE",
"427 658 CURVE",
"424 655 OFFCURVE",
"423 650 OFFCURVE",
"423 643 CURVE SMOOTH",
"423 634 OFFCURVE",
"424 629 OFFCURVE",
"427 629 CURVE SMOOTH",
"444 629 OFFCURVE",
"472 620 OFFCURVE",
"472 604 CURVE SMOOTH",
"472 599 OFFCURVE",
"470 592 OFFCURVE",
"465 584 CURVE SMOOTH",
"188 137 LINE SMOOTH",
"160 91 OFFCURVE",
"137 61 OFFCURVE",
"119 43 CURVE SMOOTH",
"108 32 OFFCURVE",
"87 26 OFFCURVE",
"58 26 CURVE SMOOTH",
"53 26 OFFCURVE",
"50 10 OFFCURVE",
"50 4 CURVE SMOOTH",
"50 2 OFFCURVE",
"50 1 OFFCURVE",
"51 -3 CURVE"
);
},
{
closed = 1;
nodes = (
"404 295 OFFCURVE",
"381 296 OFFCURVE",
"346 297 CURVE",
"345 301 LINE",
"482 524 LINE",
"485 529 OFFCURVE",
"488 531 OFFCURVE",
"491 531 CURVE SMOOTH",
"497 531 OFFCURVE",
"500 528 OFFCURVE",
"500 523 CURVE SMOOTH",
"500 308 LINE SMOOTH",
"500 301 OFFCURVE",
"496 297 OFFCURVE",
"488 297 CURVE",
"453 296 OFFCURVE",
"429 295 OFFCURVE",
"416 295 CURVE SMOOTH"
);
}
);
};
layerId = "0276F023-BC64-4582-8657-390FE5DB601E";
paths = (
{
closed = 1;
nodes = (
"97 -1 OFFCURVE",
"132 0 OFFCURVE",
"156 0 CURVE SMOOTH",
"184 0 OFFCURVE",
"218 -1 OFFCURVE",
"258 -3 CURVE",
"261 7 OFFCURVE",
"264 16 OFFCURVE",
"264 26 CURVE",
"236 26 OFFCURVE",
"218 31 OFFCURVE",
"209 40 CURVE SMOOTH",
"206 43 OFFCURVE",
"204 48 OFFCURVE",
"204 53 CURVE SMOOTH",
"204 68 OFFCURVE",
"222 104 OFFCURVE",
"238 129 CURVE SMOOTH",
"309 242 LINE",
"360 245 OFFCURVE",
"396 247 OFFCURVE",
"411 247 CURVE SMOOTH",
"448 247 OFFCURVE",
"486 246 OFFCURVE",
"500 243 CURVE",
"500 135 LINE",
"500 96 OFFCURVE",
"498 67 OFFCURVE",
"493 49 CURVE",
"489 38 OFFCURVE",
"443 26 OFFCURVE",
"427 26 CURVE SMOOTH",
"424 26 OFFCURVE",
"423 21 OFFCURVE",
"423 12 CURVE SMOOTH",
"423 5 OFFCURVE",
"424 0 OFFCURVE",
"427 -3 CURVE",
"545 2 LINE",
"574 2 OFFCURVE",
"628 1 OFFCURVE",
"709 -1 CURVE SMOOTH",
"789 -3 OFFCURVE",
"848 -4 OFFCURVE",
"886 -4 CURVE",
"890 29 OFFCURVE",
"929 134 OFFCURVE",
"940 162 CURVE",
"936 166 OFFCURVE",
"928 168 OFFCURVE",
"915 168 CURVE SMOOTH",
"907 168 OFFCURVE",
"902 166 OFFCURVE",
"901 162 CURVE",
"886 111 OFFCURVE",
"858 72 OFFCURVE",
"838 61 CURVE SMOOTH",
"816 49 OFFCURVE",
"774 44 OFFCURVE",
"712 44 CURVE SMOOTH",
"664 44 LINE SMOOTH",
"621 44 OFFCURVE",
"598 47 OFFCURVE",
"596 54 CURVE",
"590 71 OFFCURVE",
"587 102 OFFCURVE",
"587 145 CURVE SMOOTH",
"587 300 LINE SMOOTH",
"587 306 OFFCURVE",
"611 309 OFFCURVE",
"659 309 CURVE SMOOTH",
"721 309 OFFCURVE",
"757 306 OFFCURVE",
"765 301 CURVE SMOOTH",
"776 294 OFFCURVE",
"781 285 OFFCURVE",
"793 238 CURVE",
"795 233 OFFCURVE",
"800 230 OFFCURVE",
"809 230 CURVE SMOOTH",
"817 230 OFFCURVE",
"822 231 OFFCURVE",
"825 234 CURVE",
"825 423 LINE",
"822 426 OFFCURVE",
"816 428 OFFCURVE",
"808 428 CURVE SMOOTH",
"799 428 OFFCURVE",
"794 426 OFFCURVE",
"793 421 CURVE",
"783 370 OFFCURVE",
"773 364 OFFCURVE",
"761 360 CURVE SMOOTH",
"747 355 OFFCURVE",
"731 353 OFFCURVE",
"723 353 CURVE SMOOTH",
"630 353 LINE SMOOTH",
"601 353 OFFCURVE",
"587 355 OFFCURVE",
"587 359 CURVE SMOOTH",
"587 519 LINE SMOOTH",
"587 559 OFFCURVE",
"589 587 OFFCURVE",
"592 603 CURVE",
"593 612 OFFCURVE",
"623 616 OFFCURVE",
"680 616 CURVE SMOOTH",
"737 616 LINE SMOOTH",
"810 616 OFFCURVE",
"845 604 OFFCURVE",
"863 530 CURVE",
"864 525 OFFCURVE",
"868 523 OFFCURVE",
"877 523 CURVE SMOOTH",
"886 523 OFFCURVE",
"892 525 OFFCURVE",
"895 528 CURVE",
"889 556 OFFCURVE",
"875 611 OFFCURVE",
"866 664 CURVE",
"828 664 OFFCURVE",
"772 663 OFFCURVE",
"698 660 CURVE SMOOTH",
"624 657 OFFCURVE",
"572 656 OFFCURVE",
"543 656 CURVE SMOOTH",
"498 656 OFFCURVE",
"460 657 OFFCURVE",
"427 658 CURVE",
"424 655 OFFCURVE",
"423 650 OFFCURVE",
"423 643 CURVE SMOOTH",
"423 634 OFFCURVE",
"424 629 OFFCURVE",
"427 629 CURVE SMOOTH",
"444 629 OFFCURVE",
"472 620 OFFCURVE",
"472 604 CURVE SMOOTH",
"472 599 OFFCURVE",
"470 592 OFFCURVE",
"465 584 CURVE SMOOTH",
"188 137 LINE SMOOTH",
"160 91 OFFCURVE",
"137 61 OFFCURVE",
"119 43 CURVE SMOOTH",
"108 32 OFFCURVE",
"87 26 OFFCURVE",
"58 26 CURVE SMOOTH",
"53 26 OFFCURVE",
"50 10 OFFCURVE",
"50 4 CURVE SMOOTH",
"50 2 OFFCURVE",
"50 1 OFFCURVE",
"51 -3 CURVE"
);
},
{
closed = 1;
nodes = (
"404 295 OFFCURVE",
"377 296 OFFCURVE",
"342 297 CURVE",
"507 564 LINE",
"500 564 LINE",
"500 297 LINE",
"465 296 OFFCURVE",
"429 295 OFFCURVE",
"416 295 CURVE SMOOTH"
);
}
);
width = 963;
}
);
note = AE;
rightMetricsKey = E;
unicode = 00C6;
},
{
color = 3;
glyphname = B;
lastChange = "2018-11-27 13:18:45 +0000";
layers = (
{
anchors = (
{
name = bottom;
position = "{297, 0}";
},
{
name = top;
position = "{297, 658}";
}
);
background = {
paths = (
{
closed = 1;
nodes = (
"455 89 OFFCURVE",
"397 45 OFFCURVE",
"271 45 CURVE SMOOTH",
"246 45 OFFCURVE",
"227 50 OFFCURVE",
"217 59 CURVE SMOOTH",
"207 68 OFFCURVE",
"201 100 OFFCURVE",
"201 148 CURVE SMOOTH",
"201 294 LINE SMOOTH",
"201 308 OFFCURVE",
"202 319 OFFCURVE",
"205 327 CURVE",
"238 330 OFFCURVE",
"262 331 OFFCURVE",
"277 331 CURVE SMOOTH",
"384 331 OFFCURVE",
"455 272 OFFCURVE",
"455 183 CURVE SMOOTH"
);
},
{
closed = 1;
nodes = (
"114 88 OFFCURVE",
"112 57 OFFCURVE",
"107 49 CURVE SMOOTH",
"102 39 OFFCURVE",
"62 26 OFFCURVE",
"38 26 CURVE SMOOTH",
"36 26 OFFCURVE",
"35 22 OFFCURVE",
"35 13 CURVE SMOOTH",
"35 4 OFFCURVE",
"36 -1 OFFCURVE",
"38 -3 CURVE",
"78 -1 OFFCURVE",
"119 0 OFFCURVE",
"159 0 CURVE SMOOTH",
"296 0 LINE SMOOTH",
"452 0 OFFCURVE",
"550 75 OFFCURVE",
"550 194 CURVE SMOOTH",
"550 274 OFFCURVE",
"486 344 OFFCURVE",
"400 360 CURVE",
"398 362 OFFCURVE",
"400 364 OFFCURVE",
"405 366 CURVE SMOOTH",
"465 390 OFFCURVE",
"507 444 OFFCURVE",
"507 499 CURVE SMOOTH",
"507 590 OFFCURVE",
"419 657 OFFCURVE",
"298 657 CURVE SMOOTH",
"255 657 OFFCURVE",
"194 656 OFFCURVE",
"157 656 CURVE SMOOTH",
"112 656 OFFCURVE",
"73 657 OFFCURVE",
"38 658 CURVE",
"35 655 OFFCURVE",
"34 650 OFFCURVE",
"34 641 CURVE SMOOTH",
"34 633 OFFCURVE",
"35 629 OFFCURVE",
"38 629 CURVE SMOOTH",
"61 629 OFFCURVE",
"104 615 OFFCURVE",
"107 607 CURVE",
"112 589 OFFCURVE",
"114 560 OFFCURVE",
"114 521 CURVE SMOOTH",
"114 143 LINE SMOOTH"
);
},
{
closed = 1;
nodes = (
"307 374 OFFCURVE",
"288 373 OFFCURVE",
"267 373 CURVE SMOOTH",
"223 373 OFFCURVE",
"201 375 OFFCURVE",
"201 380 CURVE SMOOTH",
"201 499 LINE",
"205 600 LINE",
"205 605 OFFCURVE",
"207 608 OFFCURVE",
"211 609 CURVE",
"228 614 OFFCURVE",
"251 616 OFFCURVE",
"282 616 CURVE SMOOTH",
"366 616 OFFCURVE",
"419 568 OFFCURVE",
"419 490 CURVE SMOOTH",
"419 423 OFFCURVE",
"385 382 OFFCURVE",
"323 376 CURVE SMOOTH"
);
}
);
};
color = -1;
layerId = "0276F023-BC64-4582-8657-390FE5DB601E";
paths = (
{
closed = 1;
nodes = (
"81 -1 OFFCURVE",
"122 0 OFFCURVE",
"162 0 CURVE SMOOTH",
"208 0 OFFCURVE",
"243 0 OFFCURVE",
"289 0 CURVE SMOOTH",
"453 0 OFFCURVE",
"553 74 OFFCURVE",
"553 194 CURVE SMOOTH",
"553 279 OFFCURVE",
"484 350 OFFCURVE",
"388 363 CURVE",
"388 356 LINE",
"464 384 OFFCURVE",
"510 441 OFFCURVE",
"510 509 CURVE SMOOTH",
"510 598 OFFCURVE",
"431 657 OFFCURVE",
"311 657 CURVE SMOOTH",
"258 657 OFFCURVE",
"197 656 OFFCURVE",
"160 656 CURVE SMOOTH",
"125 656 OFFCURVE",
"91 657 OFFCURVE",
"41 658 CURVE",
"38 655 OFFCURVE",
"37 650 OFFCURVE",
"37 641 CURVE SMOOTH",
"37 633 OFFCURVE",
"38 629 OFFCURVE",
"41 629 CURVE SMOOTH",
"64 629 OFFCURVE",
"107 615 OFFCURVE",
"110 607 CURVE",
"115 591 OFFCURVE",
"117 564 OFFCURVE",
"117 521 CURVE SMOOTH",
"117 143 LINE SMOOTH",
"117 85 OFFCURVE",
"115 57 OFFCURVE",
"110 49 CURVE SMOOTH",
"105 39 OFFCURVE",
"66 26 OFFCURVE",
"41 26 CURVE SMOOTH",
"39 26 OFFCURVE",
"38 22 OFFCURVE",
"38 13 CURVE SMOOTH",
"38 4 OFFCURVE",
"39 -1 OFFCURVE",
"41 -3 CURVE"
);
},
{
closed = 1;
nodes = (
"227 45 OFFCURVE",
"204 60 OFFCURVE",
"204 108 CURVE SMOOTH",
"204 327 LINE",
"223 330 OFFCURVE",
"247 331 OFFCURVE",
"270 331 CURVE SMOOTH",
"395 331 OFFCURVE",
"458 274 OFFCURVE",
"458 183 CURVE SMOOTH",
"458 93 OFFCURVE",
"404 45 OFFCURVE",
"304 45 CURVE SMOOTH"
);
},
{
closed = 1;
nodes = (
"241 373 OFFCURVE",
"224 374 OFFCURVE",
"204 376 CURVE",
"204 594 LINE SMOOTH",
"204 611 OFFCURVE",
"220 616 OFFCURVE",
"275 616 CURVE SMOOTH",
"367 616 OFFCURVE",
"422 570 OFFCURVE",
"422 493 CURVE SMOOTH",
"422 410 OFFCURVE",
"376 373 OFFCURVE",
"270 373 CURVE SMOOTH"
);
}
);
width = 598;
}
);
note = B;
unicode = 0042;
},
{
color = 3;
glyphname = C;
lastChange = "2018-12-05 21:28:22 +0000";
layers = (
{
anchors = (
{
name = bottom;
position = "{335, 0}";
},
{
name = top;
position = "{335, 658}";
}
);
background = {
paths = (
{
closed = 1;
nodes = (
"476 -6 OFFCURVE",
"555 9 OFFCURVE",
"604 38 CURVE",
"612 42 OFFCURVE",
"638 168 OFFCURVE",
"638 183 CURVE",
"629 188 OFFCURVE",
"619 192 OFFCURVE",
"602 192 CURVE",
"590 144 OFFCURVE",
"571 107 OFFCURVE",
"542 81 CURVE SMOOTH",
"509 52 OFFCURVE",
"463 37 OFFCURVE",
"403 37 CURVE SMOOTH",
"244 37 OFFCURVE",
"143 167 OFFCURVE",
"143 341 CURVE SMOOTH",
"143 498 OFFCURVE",
"248 625 OFFCURVE",
"379 625 CURVE SMOOTH",
"442 625 OFFCURVE",
"494 607 OFFCURVE",
"522 587 CURVE SMOOTH",
"550 567 OFFCURVE",
"567 541 OFFCURVE",
"583 485 CURVE",
"589 482 OFFCURVE",
"612 485 OFFCURVE",
"617 491 CURVE",
"617 505 OFFCURVE",
"618 553 OFFCURVE",
"619 642 CURVE",
"536 659 OFFCURVE",
"465 667 OFFCURVE",
"406 667 CURVE SMOOTH",
"299 667 OFFCURVE",
"226 635 OFFCURVE",
"174 595 CURVE SMOOTH",
"93 533 OFFCURVE",
"48 431 OFFCURVE",
"48 322 CURVE SMOOTH",
"48 244 OFFCURVE",
"73 172 OFFCURVE",
"125 109 CURVE SMOOTH",
"181 41 OFFCURVE",
"278 -6 OFFCURVE",
"402 -6 CURVE SMOOTH"
);
}
);
};
layerId = "0276F023-BC64-4582-8657-390FE5DB601E";
paths = (
{
closed = 1;
nodes = (
"479 -6 OFFCURVE",
"558 9 OFFCURVE",
"607 38 CURVE",
"615 42 OFFCURVE",
"641 168 OFFCURVE",
"641 183 CURVE",
"632 188 OFFCURVE",
"622 192 OFFCURVE",
"605 192 CURVE",
"593 144 OFFCURVE",
"574 107 OFFCURVE",
"545 81 CURVE SMOOTH",
"512 52 OFFCURVE",
"466 37 OFFCURVE",
"406 37 CURVE SMOOTH",
"247 37 OFFCURVE",
"146 167 OFFCURVE",
"146 341 CURVE SMOOTH",
"146 498 OFFCURVE",
"243 625 OFFCURVE",
"392 625 CURVE SMOOTH",
"497 625 OFFCURVE",
"557 587 OFFCURVE",
"586 485 CURVE",
"592 482 OFFCURVE",
"615 485 OFFCURVE",
"620 491 CURVE",
"620 505 OFFCURVE",
"621 553 OFFCURVE",
"622 642 CURVE",
"539 659 OFFCURVE",
"468 667 OFFCURVE",
"409 667 CURVE SMOOTH",
"196 667 OFFCURVE",
"51 528 OFFCURVE",
"51 322 CURVE SMOOTH",
"51 129 OFFCURVE",
"199 -6 OFFCURVE",
"405 -6 CURVE SMOOTH"
);
}
);
width = 666;
}
);
leftMetricsKey = O;
note = C;
unicode = 0043;
},
{
color = 3;
glyphname = D;
lastChange = "2018-11-27 20:44:50 +0000";
layers = (
{
anchors = (
{
name = bottom;
position = "{364, 0}";
},
{
name = center;
position = "{364, 329}";
},
{
name = stroke;
position = "{221, 330}";
},
{
name = top;
position = "{364, 658}";
}
);
background = {
paths = (
{
closed = 1;
nodes = (
"112.333 656 OFFCURVE",
"72.667 656.667 OFFCURVE",
"38 658 CURVE",
"35.333 655.333 OFFCURVE",
"34 649.667 OFFCURVE",
"34 641 CURVE SMOOTH",
"34 633 OFFCURVE",
"35.333 629 OFFCURVE",
"38 629 CURVE SMOOTH",
"61 629 OFFCURVE",
"104 615 OFFCURVE",
"107 607 CURVE",
"111.667 589 OFFCURVE",
"114 560.333 OFFCURVE",
"114 521 CURVE SMOOTH",
"114 143 LINE SMOOTH",
"114 88.333 OFFCURVE",
"111.667 57 OFFCURVE",
"107 49 CURVE SMOOTH",
"102 39 OFFCURVE",
"63 26 OFFCURVE",
"38 26 CURVE SMOOTH",
"36 26 OFFCURVE",
"35 21.333 OFFCURVE",
"35 12 CURVE SMOOTH",
"35 4 OFFCURVE",
"36 -1 OFFCURVE",
"38 -3 CURVE",
"159 0 LINE SMOOTH",
"185.667 0.667 OFFCURVE",
"218.833 0.333 OFFCURVE",
"258.5 -1 CURVE SMOOTH",
"298.167 -2.333 OFFCURVE",
"322 -3 OFFCURVE",
"330 -3 CURVE SMOOTH",
"537 -3 OFFCURVE",
"676 134 OFFCURVE",
"676 336 CURVE SMOOTH",
"676 519 OFFCURVE",
"533 658 OFFCURVE",
"341 658 CURVE SMOOTH",
"282 658 OFFCURVE",
"186 656 OFFCURVE",
"157 656 CURVE SMOOTH"
);
},
{
closed = 1;
nodes = (
"201 565 OFFCURVE",
"205.333 586 OFFCURVE",
"214 598 CURVE SMOOTH",
"222 608.667 OFFCURVE",
"263 614 OFFCURVE",
"311 614 CURVE SMOOTH",
"346 614 LINE SMOOTH",
"483 614 OFFCURVE",
"576 504 OFFCURVE",
"576 337 CURVE SMOOTH",
"576 141 OFFCURVE",
"499.333 43 OFFCURVE",
"346 43 CURVE SMOOTH",
"286 43 OFFCURVE",
"220 53 OFFCURVE",
"216 63 CURVE",
"206 85.667 OFFCURVE",
"201 111 OFFCURVE",
"201 139 CURVE SMOOTH",
"201 535 LINE SMOOTH"
);
}
);
};
guideLines = (
{
angle = 90;
position = "{38, 327}";
}
);
layerId = "0276F023-BC64-4582-8657-390FE5DB601E";
paths = (
{
closed = 1;
nodes = (
"115 656 OFFCURVE",
"76 657 OFFCURVE",
"41 658 CURVE",
"38 655 OFFCURVE",
"37 650 OFFCURVE",
"37 641 CURVE SMOOTH",
"37 633 OFFCURVE",
"38 629 OFFCURVE",
"41 629 CURVE SMOOTH",
"64 629 OFFCURVE",
"107 615 OFFCURVE",
"110 607 CURVE",
"115 589 OFFCURVE",
"117 560 OFFCURVE",
"117 521 CURVE SMOOTH",
"117 143 LINE SMOOTH",
"117 88 OFFCURVE",
"115 57 OFFCURVE",
"110 49 CURVE SMOOTH",
"105 39 OFFCURVE",
"66 26 OFFCURVE",
"41 26 CURVE SMOOTH",
"39 26 OFFCURVE",
"38 21 OFFCURVE",
"38 12 CURVE SMOOTH",
"38 4 OFFCURVE",
"39 -1 OFFCURVE",
"41 -3 CURVE",
"81 -2 OFFCURVE",
"122 0 OFFCURVE",
"162 0 CURVE SMOOTH",
"205 0 OFFCURVE",
"310 -3 OFFCURVE",
"333 -3 CURVE SMOOTH",
"540 -3 OFFCURVE",
"679 134 OFFCURVE",
"679 336 CURVE SMOOTH",
"679 519 OFFCURVE",
"536 658 OFFCURVE",
"324 658 CURVE SMOOTH",
"285 658 OFFCURVE",
"189 656 OFFCURVE",
"160 656 CURVE SMOOTH"
);
},
{
closed = 1;
nodes = (
"204 565 OFFCURVE",
"208 586 OFFCURVE",
"217 598 CURVE SMOOTH",
"225 609 OFFCURVE",
"266 614 OFFCURVE",
"314 614 CURVE SMOOTH",
"490 614 OFFCURVE",
"579 517 OFFCURVE",
"579 337 CURVE SMOOTH",
"579 141 OFFCURVE",
"502 43 OFFCURVE",
"349 43 CURVE SMOOTH",
"289 43 OFFCURVE",
"223 53 OFFCURVE",
"219 63 CURVE",
"209 86 OFFCURVE",
"204 111 OFFCURVE",
"204 139 CURVE SMOOTH",
"204 535 LINE SMOOTH"
);
}
);
width = 730;
}
);
note = D;
rightMetricsKey = O;
unicode = 0044;
},
{
color = 6;
glyphname = Dafrican;
lastChange = "2018-11-29 13:32:46 +0000";
layers = (
{
background = {
paths = (
{
closed = 1;
nodes = (
"107 656 OFFCURVE",
"55 658 QCURVE",
"51 654 OFFCURVE",
"51 641 QCURVE SMOOTH",
"51 629 OFFCURVE",
"55 629 QCURVE SMOOTH",
"68 629 OFFCURVE",
"121 615 OFFCURVE",
"124 607 QCURVE",
"131 580 OFFCURVE",
"131 521 QCURVE SMOOTH",
"131 353 LINE",
"68 353 LINE",
"66 353 LINE SMOOTH",
"65 353 OFFCURVE",
"62 351 OFFCURVE",
"61 349 QCURVE",
"53 325 OFFCURVE",
"53 315 QCURVE SMOOTH",
"53 312 OFFCURVE",
"54 310 QCURVE",
"59 308 OFFCURVE",
"59 308 QCURVE",
"131 308 LINE",
"131 143 LINE SMOOTH",
"131 61 OFFCURVE",
"124 49 QCURVE SMOOTH",
"119 40 OFFCURVE",
"68 26 OFFCURVE",
"55 26 QCURVE SMOOTH",
"52 26 OFFCURVE",
"52 12 QCURVE SMOOTH",
"52 0 OFFCURVE",
"55 -3 QCURVE",
"176 0 LINE SMOOTH",
"214 1 OFFCURVE",
"335 -3 OFFCURVE",
"347 -3 QCURVE SMOOTH",
"509 -3 OFFCURVE",
"693 191 OFFCURVE",
"693 336 QCURVE SMOOTH",
"693 466 OFFCURVE",
"511 658 OFFCURVE",
"348 658 QCURVE SMOOTH",
"329 658 OFFCURVE",
"210 656 OFFCURVE",
"174 656 QCURVE SMOOTH"
);
},
{
closed = 1;
nodes = (
"218 580 OFFCURVE",
"231 598 QCURVE SMOOTH",
"243 614 OFFCURVE",
"351 614 QCURVE SMOOTH",
"356 614 LINE SMOOTH",
"472 614 OFFCURVE",
"597 453 OFFCURVE",
"597 340 QCURVE SMOOTH",
"597 194 OFFCURVE",
"478 43 OFFCURVE",
"363 43 QCURVE SMOOTH",
"336 43 OFFCURVE",
"237 53 OFFCURVE",
"233 63 QCURVE",
"218 97 OFFCURVE",
"218 139 QCURVE SMOOTH",
"218 308 LINE",
"352 308 LINE",
"359 314 LINE",
"365 330 OFFCURVE",
"367 344 QCURVE",
"368 349 OFFCURVE",
"364 354 OFFCURVE",
"361 353 OFFCURVE",
"360 353 QCURVE SMOOTH",
"218 353 LINE",
"218 535 LINE SMOOTH"
);
}
);
};
components = (
{
name = Eth;
}
);
layerId = "0276F023-BC64-4582-8657-390FE5DB601E";
width = 730;
}
);
note = uni0189;
unicode = "0189,0256";
},
{
color = 6;
glyphname = Eth;
lastChange = "2018-11-28 09:30:54 +0000";
layers = (
{
background = {
paths = (
{
closed = 1;
nodes = (
"48 339 OFFCURVE",
"48 321 QCURVE SMOOTH",
"48 308 OFFCURVE",
"53 308 QCURVE SMOOTH",
"399 308 OFFCURVE",
"399 308 QCURVE",
"405 322 OFFCURVE",
"405 338 QCURVE SMOOTH",
"405 348 OFFCURVE",
"399 348 QCURVE SMOOTH",
"54 348 OFFCURVE",
"54 348 QCURVE"
);
},
{
closed = 1;
nodes = (
"90 656 OFFCURVE",
"38 658 QCURVE",
"34 654 OFFCURVE",
"34 641 QCURVE SMOOTH",
"34 629 OFFCURVE",
"38 629 QCURVE SMOOTH",
"51 629 OFFCURVE",
"104 615 OFFCURVE",
"107 607 QCURVE",
"114 580 OFFCURVE",
"114 521 QCURVE SMOOTH",
"114 143 LINE SMOOTH",
"114 61 OFFCURVE",
"107 49 QCURVE SMOOTH",
"102 40 OFFCURVE",
"51 26 OFFCURVE",
"38 26 QCURVE SMOOTH",
"35 26 OFFCURVE",
"35 12 QCURVE SMOOTH",
"35 0 OFFCURVE",
"38 -3 QCURVE",
"159 0 LINE SMOOTH",
"197 1 OFFCURVE",
"318 -3 OFFCURVE",
"330 -3 QCURVE SMOOTH",
"492 -3 OFFCURVE",
"676 191 OFFCURVE",
"676 336 QCURVE SMOOTH",
"676 466 OFFCURVE",
"494 658 OFFCURVE",
"331 658 QCURVE SMOOTH",
"312 658 OFFCURVE",
"193 656 OFFCURVE",
"157 656 QCURVE SMOOTH"
);
},
{
closed = 1;
nodes = (
"201 580 OFFCURVE",
"214 598 QCURVE SMOOTH",
"226 614 OFFCURVE",
"334 614 QCURVE SMOOTH",
"339 614 LINE SMOOTH",
"455 614 OFFCURVE",
"580 453 OFFCURVE",
"580 340 QCURVE SMOOTH",
"580 194 OFFCURVE",
"461 43 OFFCURVE",
"346 43 QCURVE SMOOTH",
"319 43 OFFCURVE",
"220 53 OFFCURVE",
"216 63 QCURVE",
"201 97 OFFCURVE",
"201 139 QCURVE SMOOTH",
"201 535 LINE SMOOTH"
);
}
);
};
components = (
{
name = D;
},
{
name = strokeshortcomb.case;
transform = "{1, 0, 0, 1, 71, 0}";
}
);
layerId = "0276F023-BC64-4582-8657-390FE5DB601E";
width = 730;
}
);
widthMetricsKey = D;
note = Eth;
rightMetricsKey = O;
unicode = 00D0;
},
{
color = 3;
glyphname = E;
lastChange = "2018-11-27 13:18:45 +0000";
layers = (
{
anchors = (
{
name = bottom;
position = "{294, 0}";
},
{
name = ogonek;
position = "{526, 10}";
},
{
name = top;
position = "{294, 658}";
},
{
name = topleft;
position = "{28, 658}";
}
);
background = {
paths = (
{
closed = 1;
nodes = (
"90 656 OFFCURVE",
"38 658 QCURVE",
"34 654 OFFCURVE",
"34 641 QCURVE SMOOTH",
"34 629 OFFCURVE",
"38 629 QCURVE SMOOTH",
"51 629 OFFCURVE",
"104 615 OFFCURVE",
"107 607 QCURVE",
"114 580 OFFCURVE",
"114 521 QCURVE SMOOTH",
"114 143 LINE SMOOTH",
"114 61 OFFCURVE",
"107 49 QCURVE SMOOTH",
"102 40 OFFCURVE",
"51 26 OFFCURVE",
"38 26 QCURVE SMOOTH",
"35 26 OFFCURVE",
"35 0 OFFCURVE",
"38 -3 QCURVE",
"159 0 LINE SMOOTH",
"229 0 OFFCURVE",
"449 -4 OFFCURVE",
"500 -4 QCURVE",
"502 11 OFFCURVE",
"516 57 OFFCURVE",
"528 92 OFFCURVE",
"549 149 OFFCURVE",
"554 162 QCURVE",
"548 168 OFFCURVE",
"529 168 QCURVE SMOOTH",
"517 168 OFFCURVE",
"515 162 QCURVE",
"504 124 OFFCURVE",
"467 69 OFFCURVE",
"452 61 QCURVE SMOOTH",
"419 44 OFFCURVE",
"326 44 QCURVE SMOOTH",
"278 44 LINE SMOOTH",
"213 44 OFFCURVE",
"210 54 QCURVE",
"201 80 OFFCURVE",
"201 145 QCURVE SMOOTH",
"201 300 LINE SMOOTH",
"201 309 OFFCURVE",
"273 309 QCURVE SMOOTH",
"366 309 OFFCURVE",
"379 301 QCURVE",
"385 297 OFFCURVE",
"390 292 OFFCURVE",
"400 265 OFFCURVE",
"407 238 QCURVE",
"410 230 OFFCURVE",
"423 230 QCURVE SMOOTH",
"435 230 OFFCURVE",
"439 234 QCURVE",
"439 423 LINE",
"434 428 OFFCURVE",
"422 428 QCURVE SMOOTH",
"408 428 OFFCURVE",
"407 421 QCURVE",
"401 398 OFFCURVE",
"399 387 OFFCURVE",
"386 363 OFFCURVE",
"378 361 OFFCURVE",
"350 353 OFFCURVE",
"325 353 OFFCURVE",
"297 353 QCURVE SMOOTH",
"244 353 LINE SMOOTH",
"201 353 OFFCURVE",
"201 359 QCURVE SMOOTH",
"201 519 LINE SMOOTH",
"201 579 OFFCURVE",
"206 603 QCURVE",
"208 616 OFFCURVE",
"294 616 QCURVE SMOOTH",
"361 616 LINE SMOOTH",
"408 616 OFFCURVE",
"462 585 OFFCURVE",
"477 530 QCURVE",
"478 523 OFFCURVE",
"504 523 OFFCURVE",
"509 528 QCURVE",
"507 540 OFFCURVE",
"484 635 OFFCURVE",
"480 664 QCURVE",
"424 664 OFFCURVE",
"202 656 OFFCURVE",
"157 656 QCURVE SMOOTH"
);
}
);
};
layerId = "0276F023-BC64-4582-8657-390FE5DB601E";
paths = (
{
closed = 1;
nodes = (
"115 656 OFFCURVE",
"76 657 OFFCURVE",
"41 658 CURVE",
"38 655 OFFCURVE",
"37 650 OFFCURVE",
"37 641 CURVE SMOOTH",
"37 633 OFFCURVE",
"38 629 OFFCURVE",
"41 629 CURVE SMOOTH",
"58 629 OFFCURVE",
"106 618 OFFCURVE",
"110 607 CURVE",
"115 589 OFFCURVE",
"117 560 OFFCURVE",
"117 521 CURVE SMOOTH",
"117 143 LINE SMOOTH",
"117 88 OFFCURVE",
"115 57 OFFCURVE",
"110 49 CURVE SMOOTH",
"103 37 OFFCURVE",
"58 26 OFFCURVE",
"41 26 CURVE SMOOTH",
"39 26 OFFCURVE",
"38 22 OFFCURVE",
"38 13 CURVE SMOOTH",
"38 4 OFFCURVE",
"39 -1 OFFCURVE",
"41 -3 CURVE",
"162 0 LINE SMOOTH",
"209 0 OFFCURVE",
"269 -1 OFFCURVE",
"342 -2 CURVE SMOOTH",
"415 -3 OFFCURVE",
"469 -4 OFFCURVE",
"503 -4 CURVE",
"507 29 OFFCURVE",
"546 134 OFFCURVE",
"557 162 CURVE",
"553 166 OFFCURVE",
"545 168 OFFCURVE",
"532 168 CURVE SMOOTH",
"524 168 OFFCURVE",
"519 166 OFFCURVE",
"518 162 CURVE",
"503 111 OFFCURVE",
"475 72 OFFCURVE",
"455 61 CURVE SMOOTH",
"433 50 OFFCURVE",
"391 44 OFFCURVE",
"329 44 CURVE SMOOTH",
"281 44 LINE SMOOTH",
"238 44 OFFCURVE",
"215 47 OFFCURVE",
"213 54 CURVE",
"207 71 OFFCURVE",
"204 102 OFFCURVE",
"204 145 CURVE SMOOTH",
"204 300 LINE SMOOTH",
"204 306 OFFCURVE",
"228 309 OFFCURVE",
"276 309 CURVE SMOOTH",
"338 309 OFFCURVE",
"372 307 OFFCURVE",
"381 301 CURVE SMOOTH",
"396 291 OFFCURVE",
"401 276 OFFCURVE",
"410 238 CURVE",
"412 233 OFFCURVE",
"417 230 OFFCURVE",
"426 230 CURVE SMOOTH",
"434 230 OFFCURVE",
"439 231 OFFCURVE",
"442 234 CURVE",
"442 423 LINE",
"439 426 OFFCURVE",
"433 428 OFFCURVE",
"425 428 CURVE SMOOTH",
"416 428 OFFCURVE",
"411 426 OFFCURVE",
"410 421 CURVE",
"403 389 OFFCURVE",
"396 367 OFFCURVE",
"382 361 CURVE SMOOTH",
"371 357 OFFCURVE",
"352 353 OFFCURVE",
"324 353 CURVE SMOOTH",
"247 353 LINE SMOOTH",
"218 353 OFFCURVE",
"204 355 OFFCURVE",
"204 359 CURVE SMOOTH",
"204 519 LINE SMOOTH",
"204 559 OFFCURVE",
"206 587 OFFCURVE",
"209 603 CURVE",
"210 612 OFFCURVE",
"240 616 OFFCURVE",
"297 616 CURVE SMOOTH",
"364 616 LINE SMOOTH",
"427 616 OFFCURVE",
"460 603 OFFCURVE",
"480 530 CURVE",
"481 525 OFFCURVE",
"485 523 OFFCURVE",
"494 523 CURVE SMOOTH",
"503 523 OFFCURVE",
"509 525 OFFCURVE",
"512 528 CURVE",
"509 546 OFFCURVE",
"489 621 OFFCURVE",
"483 664 CURVE",
"446 664 OFFCURVE",
"390 663 OFFCURVE",
"316 660 CURVE SMOOTH",
"242 657 OFFCURVE",
"190 656 OFFCURVE",
"160 656 CURVE SMOOTH"
);
}
);
width = 580;
}
);
note = E;
unicode = 0045;
},
{
color = 6;
glyphname = Ecircumflexacute;
lastChange = "2018-11-29 13:31:51 +0000";
layers = (
{
background = {
paths = (
{
closed = 1;
nodes = (
"357 798 OFFCURVE",
"366 789 OFFCURVE",
"369 789 QCURVE SMOOTH",
"379 789 OFFCURVE",
"499 848 OFFCURVE",
"499 859 QCURVE SMOOTH",
"499 865 OFFCURVE",
"468 882 OFFCURVE",
"450 882 QCURVE SMOOTH",
"438 882 OFFCURVE",
"434 879 QCURVE SMOOTH",
"419 868 OFFCURVE",
"382 832 OFFCURVE",
"357 804 OFFCURVE",
"357 802 QCURVE SMOOTH"
);
},
{
closed = 1;
nodes = (
"85 656 OFFCURVE",
"33 658 QCURVE",
"29 654 OFFCURVE",
"29 641 QCURVE SMOOTH",
"29 629 OFFCURVE",
"33 629 QCURVE SMOOTH",
"46 629 OFFCURVE",
"99 615 OFFCURVE",
"102 607 QCURVE",
"109 580 OFFCURVE",
"109 521 QCURVE SMOOTH",
"109 143 LINE SMOOTH",
"109 61 OFFCURVE",
"102 49 QCURVE SMOOTH",
"97 40 OFFCURVE",
"46 26 OFFCURVE",
"33 26 QCURVE SMOOTH",
"30 26 OFFCURVE",
"30 0 OFFCURVE",
"33 -3 QCURVE",
"154 0 LINE SMOOTH",
"224 0 OFFCURVE",
"444 -4 OFFCURVE",
"495 -4 QCURVE",
"497 11 OFFCURVE",
"511 57 OFFCURVE",
"523 92 OFFCURVE",
"544 149 OFFCURVE",
"549 162 QCURVE",
"543 168 OFFCURVE",
"524 168 QCURVE SMOOTH",
"512 168 OFFCURVE",
"510 162 QCURVE",
"499 124 OFFCURVE",
"462 69 OFFCURVE",
"447 61 QCURVE SMOOTH",
"414 44 OFFCURVE",
"321 44 QCURVE SMOOTH",
"273 44 LINE SMOOTH",
"208 44 OFFCURVE",
"205 54 QCURVE",
"196 80 OFFCURVE",
"196 145 QCURVE SMOOTH",
"196 300 LINE SMOOTH",
"196 309 OFFCURVE",
"268 309 QCURVE SMOOTH",
"361 309 OFFCURVE",
"374 301 QCURVE",
"380 297 OFFCURVE",
"385 292 OFFCURVE",
"395 265 OFFCURVE",
"402 238 QCURVE",
"405 230 OFFCURVE",
"418 230 QCURVE SMOOTH",
"430 230 OFFCURVE",
"434 234 QCURVE",
"434 423 LINE",
"429 428 OFFCURVE",
"417 428 QCURVE SMOOTH",
"403 428 OFFCURVE",
"402 421 QCURVE",
"396 398 OFFCURVE",
"394 387 OFFCURVE",
"381 363 OFFCURVE",
"373 361 OFFCURVE",
"345 353 OFFCURVE",
"320 353 OFFCURVE",
"292 353 QCURVE SMOOTH",
"239 353 LINE SMOOTH",
"196 353 OFFCURVE",
"196 359 QCURVE SMOOTH",
"196 519 LINE SMOOTH",
"196 579 OFFCURVE",
"201 603 QCURVE",
"203 616 OFFCURVE",
"289 616 QCURVE SMOOTH",
"356 616 LINE SMOOTH",
"403 616 OFFCURVE",
"457 585 OFFCURVE",
"472 530 QCURVE",
"473 523 OFFCURVE",
"499 523 OFFCURVE",
"504 528 QCURVE",
"502 540 OFFCURVE",
"479 635 OFFCURVE",
"475 664 QCURVE",
"419 664 OFFCURVE",
"197 656 OFFCURVE",
"152 656 QCURVE SMOOTH"
);
},
{
closed = 1;
nodes = (
"394 698 OFFCURVE",
"394 718 QCURVE SMOOTH",
"394 719 OFFCURVE",
"376 733 OFFCURVE",
"345 760 OFFCURVE",
"332 772 QCURVE",
"312 792 OFFCURVE",
"291 820 QCURVE",
"286 828 OFFCURVE",
"280 828 QCURVE SMOOTH",
"277 828 OFFCURVE",
"270 820 QCURVE",
"256 800 OFFCURVE",
"228 774 QCURVE SMOOTH",
"214 761 OFFCURVE",
"171 722 OFFCURVE",
"167 718 QCURVE",
"167 698 OFFCURVE",
"177 698 QCURVE SMOOTH",
"186 698 OFFCURVE",
"256 738 OFFCURVE",
"280 756 QCURVE",
"366 698 OFFCURVE",
"385 698 QCURVE SMOOTH"
);
}
);
};
components = (
{
name = E;
},
{
name = circumflexcomb_acutecomb.case;
transform = "{1, 0, 0, 1, 144, 0}";
}
);
layerId = "0276F023-BC64-4582-8657-390FE5DB601E";
width = 580;
}
);
note = uni1EBE;
unicode = 1EBE;
},
{
color = 6;
glyphname = Ecircumflexgrave;
lastChange = "2018-11-29 13:31:51 +0000";
layers = (
{
background = {
paths = (
{
closed = 1;
nodes = (
"325 836 OFFCURVE",
"436 761 OFFCURVE",
"445 761 QCURVE SMOOTH",
"448 761 OFFCURVE",
"459 769 OFFCURVE",
"459 772 QCURVE SMOOTH",
"459 776 OFFCURVE",
"412 840 OFFCURVE",
"392 859 QCURVE SMOOTH",
"387 864 OFFCURVE",
"369 864 QCURVE SMOOTH",
"353 864 OFFCURVE",
"325 852 OFFCURVE",
"325 847 QCURVE SMOOTH"
);
},
{
closed = 1;
nodes = (
"85 656 OFFCURVE",
"33 658 QCURVE",
"29 654 OFFCURVE",
"29 641 QCURVE SMOOTH",
"29 629 OFFCURVE",
"33 629 QCURVE SMOOTH",
"46 629 OFFCURVE",
"99 615 OFFCURVE",
"102 607 QCURVE",
"109 580 OFFCURVE",
"109 521 QCURVE SMOOTH",
"109 143 LINE SMOOTH",
"109 61 OFFCURVE",
"102 49 QCURVE SMOOTH",
"97 40 OFFCURVE",
"46 26 OFFCURVE",
"33 26 QCURVE SMOOTH",
"30 26 OFFCURVE",
"30 0 OFFCURVE",
"33 -3 QCURVE",
"154 0 LINE SMOOTH",
"224 0 OFFCURVE",
"444 -4 OFFCURVE",
"495 -4 QCURVE",
"497 11 OFFCURVE",
"511 57 OFFCURVE",
"523 92 OFFCURVE",
"544 149 OFFCURVE",
"549 162 QCURVE",
"543 168 OFFCURVE",
"524 168 QCURVE SMOOTH",
"512 168 OFFCURVE",
"510 162 QCURVE",
"499 124 OFFCURVE",
"462 69 OFFCURVE",
"447 61 QCURVE SMOOTH",
"414 44 OFFCURVE",
"321 44 QCURVE SMOOTH",
"273 44 LINE SMOOTH",
"208 44 OFFCURVE",
"205 54 QCURVE",
"196 80 OFFCURVE",
"196 145 QCURVE SMOOTH",
"196 300 LINE SMOOTH",
"196 309 OFFCURVE",
"268 309 QCURVE SMOOTH",
"361 309 OFFCURVE",
"374 301 QCURVE",
"380 297 OFFCURVE",
"385 292 OFFCURVE",
"395 265 OFFCURVE",
"402 238 QCURVE",
"405 230 OFFCURVE",
"418 230 QCURVE SMOOTH",
"430 230 OFFCURVE",
"434 234 QCURVE",
"434 423 LINE",
"429 428 OFFCURVE",
"417 428 QCURVE SMOOTH",
"403 428 OFFCURVE",
"402 421 QCURVE",
"396 398 OFFCURVE",
"394 387 OFFCURVE",
"381 363 OFFCURVE",
"373 361 OFFCURVE",
"345 353 OFFCURVE",
"320 353 OFFCURVE",
"292 353 QCURVE SMOOTH",
"239 353 LINE SMOOTH",
"196 353 OFFCURVE",
"196 359 QCURVE SMOOTH",
"196 519 LINE SMOOTH",
"196 579 OFFCURVE",
"201 603 QCURVE",
"203 616 OFFCURVE",
"289 616 QCURVE SMOOTH",
"356 616 LINE SMOOTH",
"403 616 OFFCURVE",
"457 585 OFFCURVE",
"472 530 QCURVE",
"473 523 OFFCURVE",
"499 523 OFFCURVE",
"504 528 QCURVE",
"502 540 OFFCURVE",
"479 635 OFFCURVE",
"475 664 QCURVE",
"419 664 OFFCURVE",
"197 656 OFFCURVE",
"152 656 QCURVE SMOOTH"
);
},
{
closed = 1;
nodes = (
"397 698 OFFCURVE",
"397 718 QCURVE SMOOTH",
"397 719 OFFCURVE",
"379 733 OFFCURVE",
"348 760 OFFCURVE",
"335 772 QCURVE",
"315 792 OFFCURVE",
"294 820 QCURVE",
"289 828 OFFCURVE",
"283 828 QCURVE SMOOTH",
"280 828 OFFCURVE",
"273 820 QCURVE",
"259 800 OFFCURVE",
"231 774 QCURVE SMOOTH",
"217 761 OFFCURVE",
"174 722 OFFCURVE",
"170 718 QCURVE",
"170 698 OFFCURVE",
"180 698 QCURVE SMOOTH",
"189 698 OFFCURVE",
"259 738 OFFCURVE",
"283 756 QCURVE",
"369 698 OFFCURVE",
"388 698 QCURVE SMOOTH"
);
}
);
};
components = (
{
name = E;
},
{
name = circumflexcomb_gravecomb.case;
transform = "{1, 0, 0, 1, 144, 0}";
}
);
layerId = "0276F023-BC64-4582-8657-390FE5DB601E";
width = 580;
}
);
note = uni1EC0;
unicode = 1EC0;
},
{
color = 6;
glyphname = Ecircumflextilde;
lastChange = "2018-11-29 13:31:51 +0000";
layers = (
{
background = {
paths = (
{
closed = 1;
nodes = (
"324 865 OFFCURVE",
"245 906 OFFCURVE",
"218 906 QCURVE SMOOTH",
"195 906 OFFCURVE",
"142 870 OFFCURVE",
"142 843 QCURVE SMOOTH",
"142 828 OFFCURVE",
"151 828 QCURVE SMOOTH",
"155 828 OFFCURVE",
"157 829 QCURVE",
"173 862 OFFCURVE",
"204 862 QCURVE SMOOTH",
"230 862 OFFCURVE",
"311 821 OFFCURVE",
"339 821 QCURVE SMOOTH",
"361 821 OFFCURVE",
"415 861 OFFCURVE",
"415 888 QCURVE SMOOTH",
"415 903 OFFCURVE",
"406 903 QCURVE SMOOTH",
"402 903 OFFCURVE",
"400 902 QCURVE",
"382 865 OFFCURVE",
"351 865 QCURVE SMOOTH"
);
},
{
closed = 1;
nodes = (
"392 693 OFFCURVE",
"392 711 QCURVE SMOOTH",
"392 712 OFFCURVE",
"374 725 OFFCURVE",
"343 749 OFFCURVE",
"330 760 QCURVE",
"307 781 OFFCURVE",
"289 804 QCURVE",
"285 811 OFFCURVE",
"278 811 QCURVE SMOOTH",
"275 811 OFFCURVE",
"268 804 QCURVE",
"253 786 OFFCURVE",
"226 762 QCURVE SMOOTH",
"211 749 OFFCURVE",
"169 715 OFFCURVE",
"165 711 QCURVE",
"165 693 OFFCURVE",
"175 693 QCURVE SMOOTH",
"184 693 OFFCURVE",
"254 728 OFFCURVE",
"278 744 QCURVE",
"304 728 OFFCURVE",
"375 693 OFFCURVE",
"383 693 QCURVE SMOOTH"
);
},
{
closed = 1;
nodes = (
"85 656 OFFCURVE",
"33 658 QCURVE",
"29 654 OFFCURVE",
"29 641 QCURVE SMOOTH",
"29 629 OFFCURVE",
"33 629 QCURVE SMOOTH",
"46 629 OFFCURVE",
"99 615 OFFCURVE",
"102 607 QCURVE",
"109 580 OFFCURVE",
"109 521 QCURVE SMOOTH",
"109 143 LINE SMOOTH",
"109 61 OFFCURVE",
"102 49 QCURVE SMOOTH",
"97 40 OFFCURVE",
"46 26 OFFCURVE",
"33 26 QCURVE SMOOTH",
"30 26 OFFCURVE",
"30 0 OFFCURVE",
"33 -3 QCURVE",
"154 0 LINE SMOOTH",
"224 0 OFFCURVE",
"444 -4 OFFCURVE",
"495 -4 QCURVE",
"497 11 OFFCURVE",
"511 57 OFFCURVE",
"523 92 OFFCURVE",
"544 149 OFFCURVE",
"549 162 QCURVE",
"543 168 OFFCURVE",
"524 168 QCURVE SMOOTH",
"512 168 OFFCURVE",
"510 162 QCURVE",
"499 124 OFFCURVE",
"462 69 OFFCURVE",
"447 61 QCURVE SMOOTH",
"414 44 OFFCURVE",
"321 44 QCURVE SMOOTH",
"273 44 LINE SMOOTH",
"208 44 OFFCURVE",
"205 54 QCURVE",
"196 80 OFFCURVE",
"196 145 QCURVE SMOOTH",
"196 300 LINE SMOOTH",
"196 309 OFFCURVE",
"268 309 QCURVE SMOOTH",
"361 309 OFFCURVE",
"374 301 QCURVE",
"380 297 OFFCURVE",
"385 292 OFFCURVE",
"395 265 OFFCURVE",
"402 238 QCURVE",
"405 230 OFFCURVE",
"418 230 QCURVE SMOOTH",
"430 230 OFFCURVE",
"434 234 QCURVE",
"434 423 LINE",
"429 428 OFFCURVE",
"417 428 QCURVE SMOOTH",
"403 428 OFFCURVE",
"402 421 QCURVE",
"396 398 OFFCURVE",
"394 387 OFFCURVE",
"381 363 OFFCURVE",
"373 361 OFFCURVE",
"345 353 OFFCURVE",
"320 353 OFFCURVE",
"292 353 QCURVE SMOOTH",
"239 353 LINE SMOOTH",
"196 353 OFFCURVE",
"196 359 QCURVE SMOOTH",
"196 519 LINE SMOOTH",
"196 579 OFFCURVE",
"201 603 QCURVE",
"203 616 OFFCURVE",
"289 616 QCURVE SMOOTH",
"356 616 LINE SMOOTH",
"403 616 OFFCURVE",
"457 585 OFFCURVE",
"472 530 QCURVE",
"473 523 OFFCURVE",
"499 523 OFFCURVE",
"504 528 QCURVE",
"502 540 OFFCURVE",
"479 635 OFFCURVE",
"475 664 QCURVE",
"419 664 OFFCURVE",
"197 656 OFFCURVE",
"152 656 QCURVE SMOOTH"
);
}
);
};
components = (
{
name = E;
},
{
name = circumflexcomb_tildecomb.case;
transform = "{1, 0, 0, 1, 144, 0}";
}
);
layerId = "0276F023-BC64-4582-8657-390FE5DB601E";
width = 580;
}
);
note = uni1EC4;
unicode = 1EC4;
},
{
color = 3;
glyphname = Eogonek;
lastChange = "2018-12-15 23:22:28 +0000";
layers = (
{
anchors = (
{
name = bottom;
position = "{294, 0}";
},
{
name = top;
position = "{294, 658}";
},
{
name = topleft;
position = "{28, 658}";
}
);
background = {
paths = (
{
closed = 1;
nodes = (
"115 656 OFFCURVE",
"76 657 OFFCURVE",
"41 658 CURVE",
"38 655 OFFCURVE",
"37 650 OFFCURVE",
"37 641 CURVE SMOOTH",
"37 633 OFFCURVE",
"38 629 OFFCURVE",
"41 629 CURVE SMOOTH",
"58 629 OFFCURVE",
"106 618 OFFCURVE",
"110 607 CURVE",
"115 589 OFFCURVE",
"117 560 OFFCURVE",
"117 521 CURVE SMOOTH",
"117 143 LINE SMOOTH",
"117 88 OFFCURVE",
"115 57 OFFCURVE",
"110 49 CURVE SMOOTH",
"103 37 OFFCURVE",
"58 26 OFFCURVE",
"41 26 CURVE SMOOTH",
"39 26 OFFCURVE",
"38 22 OFFCURVE",
"38 13 CURVE SMOOTH",
"38 4 OFFCURVE",
"39 -1 OFFCURVE",
"41 -3 CURVE",
"162 0 LINE SMOOTH",
"209 0 OFFCURVE",
"269 -1 OFFCURVE",
"342 -2 CURVE SMOOTH",
"415 -3 OFFCURVE",
"469 -4 OFFCURVE",
"503 -4 CURVE",
"507 29 OFFCURVE",
"546 134 OFFCURVE",
"557 162 CURVE",
"553 166 OFFCURVE",
"545 168 OFFCURVE",
"532 168 CURVE SMOOTH",
"524 168 OFFCURVE",
"519 166 OFFCURVE",
"518 162 CURVE",
"503 111 OFFCURVE",
"475 72 OFFCURVE",
"455 61 CURVE SMOOTH",
"433 50 OFFCURVE",
"391 44 OFFCURVE",
"329 44 CURVE SMOOTH",
"281 44 LINE SMOOTH",
"238 44 OFFCURVE",
"215 47 OFFCURVE",
"213 54 CURVE",
"207 71 OFFCURVE",
"204 102 OFFCURVE",
"204 145 CURVE SMOOTH",
"204 300 LINE SMOOTH",
"204 306 OFFCURVE",
"228 309 OFFCURVE",
"276 309 CURVE SMOOTH",
"338 309 OFFCURVE",
"372 307 OFFCURVE",
"381 301 CURVE SMOOTH",
"396 291 OFFCURVE",
"401 276 OFFCURVE",
"410 238 CURVE",
"412 233 OFFCURVE",
"417 230 OFFCURVE",
"426 230 CURVE SMOOTH",
"434 230 OFFCURVE",
"439 231 OFFCURVE",
"442 234 CURVE",
"442 423 LINE",
"439 426 OFFCURVE",
"433 428 OFFCURVE",
"425 428 CURVE SMOOTH",
"416 428 OFFCURVE",
"411 426 OFFCURVE",
"410 421 CURVE",
"403 389 OFFCURVE",
"396 367 OFFCURVE",
"382 361 CURVE SMOOTH",
"371 357 OFFCURVE",
"352 353 OFFCURVE",
"324 353 CURVE SMOOTH",
"247 353 LINE SMOOTH",
"218 353 OFFCURVE",
"204 355 OFFCURVE",
"204 359 CURVE SMOOTH",
"204 519 LINE SMOOTH",
"204 559 OFFCURVE",
"206 587 OFFCURVE",
"209 603 CURVE",
"210 612 OFFCURVE",
"240 616 OFFCURVE",
"297 616 CURVE SMOOTH",
"364 616 LINE SMOOTH",
"427 616 OFFCURVE",
"460 603 OFFCURVE",
"480 530 CURVE",
"481 525 OFFCURVE",
"485 523 OFFCURVE",
"494 523 CURVE SMOOTH",
"503 523 OFFCURVE",
"509 525 OFFCURVE",
"512 528 CURVE",
"509 546 OFFCURVE",
"489 621 OFFCURVE",
"483 664 CURVE",
"446 664 OFFCURVE",
"390 663 OFFCURVE",
"316 660 CURVE SMOOTH",
"242 657 OFFCURVE",
"190 656 OFFCURVE",
"160 656 CURVE SMOOTH"
);
},
{
closed = 1;
nodes = (
"526 10 LINE",
"484 14 LINE",
"466 2 LINE",
"406 -37 OFFCURVE",
"354 -95 OFFCURVE",
"354 -146 CURVE SMOOTH",
"354 -182 OFFCURVE",
"376 -223 OFFCURVE",
"425 -223 CURVE SMOOTH",
"462 -223 OFFCURVE",
"502 -204 OFFCURVE",
"530 -157 CURVE SMOOTH",
"533 -152 OFFCURVE",
"535 -146 OFFCURVE",
"535 -139 CURVE SMOOTH",
"535 -130 OFFCURVE",
"533 -126 OFFCURVE",
"530 -126 CURVE",
"514 -143 OFFCURVE",
"483 -164 OFFCURVE",
"449 -164 CURVE SMOOTH",
"418 -164 OFFCURVE",
"408 -142 OFFCURVE",
"408 -121 CURVE SMOOTH",
"408 -81 OFFCURVE",
"460 -29 OFFCURVE",
"512 2 CURVE"
);
}
);
};
layerId = "0276F023-BC64-4582-8657-390FE5DB601E";
paths = (
{
closed = 1;
nodes = (
"514 -143 OFFCURVE",
"483 -164 OFFCURVE",
"449 -164 CURVE SMOOTH",
"418 -164 OFFCURVE",
"408 -142 OFFCURVE",
"408 -121 CURVE SMOOTH",
"408 -81 OFFCURVE",
"460 -29 OFFCURVE",
"503 -4 CURVE",
"507 29 OFFCURVE",
"546 134 OFFCURVE",
"557 162 CURVE",
"553 166 OFFCURVE",
"545 168 OFFCURVE",
"532 168 CURVE SMOOTH",
"524 168 OFFCURVE",
"519 166 OFFCURVE",
"518 162 CURVE",
"503 111 OFFCURVE",
"475 72 OFFCURVE",
"455 61 CURVE",
"433 50 OFFCURVE",
"391 44 OFFCURVE",
"329 44 CURVE SMOOTH",
"281 44 LINE SMOOTH",
"238 44 OFFCURVE",
"215 47 OFFCURVE",
"213 54 CURVE",
"207 71 OFFCURVE",
"204 102 OFFCURVE",
"204 145 CURVE SMOOTH",
"204 300 LINE SMOOTH",
"204 306 OFFCURVE",
"228 309 OFFCURVE",
"276 309 CURVE SMOOTH",
"338 309 OFFCURVE",
"372 307 OFFCURVE",
"381 301 CURVE SMOOTH",
"396 291 OFFCURVE",
"401 276 OFFCURVE",
"410 238 CURVE",
"412 233 OFFCURVE",
"417 230 OFFCURVE",
"426 230 CURVE SMOOTH",
"434 230 OFFCURVE",
"439 231 OFFCURVE",
"442 234 CURVE",
"442 423 LINE",
"439 426 OFFCURVE",
"433 428 OFFCURVE",
"425 428 CURVE SMOOTH",
"416 428 OFFCURVE",
"411 426 OFFCURVE",
"410 421 CURVE SMOOTH",
"403 389 OFFCURVE",
"396 367 OFFCURVE",
"382 361 CURVE",
"371 357 OFFCURVE",
"352 353 OFFCURVE",
"324 353 CURVE SMOOTH",
"247 353 LINE SMOOTH",
"218 353 OFFCURVE",
"204 355 OFFCURVE",
"204 359 CURVE SMOOTH",
"204 519 LINE SMOOTH",
"204 559 OFFCURVE",
"206 587 OFFCURVE",
"209 603 CURVE",
"210 612 OFFCURVE",
"240 616 OFFCURVE",
"297 616 CURVE SMOOTH",
"364 616 LINE SMOOTH",
"427 616 OFFCURVE",
"460 603 OFFCURVE",
"480 530 CURVE",
"481 525 OFFCURVE",
"485 523 OFFCURVE",
"494 523 CURVE SMOOTH",
"503 523 OFFCURVE",
"509 525 OFFCURVE",
"512 528 CURVE",
"509 546 OFFCURVE",
"489 621 OFFCURVE",
"483 664 CURVE",
"446 664 OFFCURVE",
"390 663 OFFCURVE",
"316 660 CURVE SMOOTH",
"242 657 OFFCURVE",
"190 656 OFFCURVE",
"160 656 CURVE SMOOTH",
"115 656 OFFCURVE",
"76 657 OFFCURVE",
"41 658 CURVE",
"38 655 OFFCURVE",
"37 650 OFFCURVE",
"37 641 CURVE SMOOTH",
"37 633 OFFCURVE",
"38 629 OFFCURVE",
"41 629 CURVE SMOOTH",
"58 629 OFFCURVE",
"106 618 OFFCURVE",
"110 607 CURVE",
"115 589 OFFCURVE",
"117 560 OFFCURVE",
"117 521 CURVE SMOOTH",
"117 143 LINE SMOOTH",
"117 88 OFFCURVE",
"115 57 OFFCURVE",
"110 49 CURVE SMOOTH",
"103 37 OFFCURVE",
"58 26 OFFCURVE",
"41 26 CURVE SMOOTH",
"39 26 OFFCURVE",
"38 22 OFFCURVE",
"38 13 CURVE SMOOTH",
"38 4 OFFCURVE",
"39 -1 OFFCURVE",
"41 -3 CURVE",
"162 0 LINE SMOOTH",
"209 0 OFFCURVE",
"269 -1 OFFCURVE",
"342 -2 CURVE SMOOTH",
"383 -3 OFFCURVE",
"417 -3 OFFCURVE",
"447 -4 CURVE",
"396 -42 OFFCURVE",
"354 -97 OFFCURVE",
"354 -146 CURVE SMOOTH",
"354 -182 OFFCURVE",
"376 -223 OFFCURVE",
"425 -223 CURVE SMOOTH",
"462 -223 OFFCURVE",
"502 -204 OFFCURVE",
"530 -157 CURVE SMOOTH",
"533 -152 OFFCURVE",
"535 -146 OFFCURVE",
"535 -139 CURVE SMOOTH",
"535 -130 OFFCURVE",
"533 -126 OFFCURVE",
"530 -126 CURVE"
);
}
);
width = 580;
}
);
note = Eogonek;
unicode = 0118;
},
{
color = 3;
glyphname = F;
lastChange = "2018-11-27 13:18:45 +0000";
layers = (
{
anchors = (
{
name = bottom;
position = "{273, 0}";
},
{
name = top;
position = "{273, 658}";
}
);
background = {
paths = (
{
closed = 1;
nodes = (
"90 656 OFFCURVE",
"38 658 QCURVE",
"34 654 OFFCURVE",
"34 641 QCURVE SMOOTH",
"34 629 OFFCURVE",
"38 629 QCURVE SMOOTH",
"51 629 OFFCURVE",
"104 615 OFFCURVE",
"107 607 QCURVE",
"114 580 OFFCURVE",
"114 521 QCURVE SMOOTH",
"114 136 LINE SMOOTH",
"114 73 OFFCURVE",
"107 46 QCURVE",
"104 38 OFFCURVE",
"53 26 OFFCURVE",
"40 26 QCURVE SMOOTH",
"36 26 OFFCURVE",
"36 12 QCURVE SMOOTH",
"36 1 OFFCURVE",
"40 -3 QCURVE",
"155 2 OFFCURVE",
"160 2 QCURVE SMOOTH",
"176 2 OFFCURVE",
"276 -3 QCURVE",
"278 3 OFFCURVE",
"278 11 QCURVE SMOOTH",
"278 26 OFFCURVE",
"274 26 QCURVE SMOOTH",
"264 26 OFFCURVE",
"212 39 OFFCURVE",
"210 46 QCURVE SMOOTH",
"201 81 OFFCURVE",
"201 139 QCURVE SMOOTH",
"201 297 LINE SMOOTH",
"201 306 OFFCURVE",
"272 306 QCURVE SMOOTH",
"365 306 OFFCURVE",
"378 298 QCURVE",
"384 294 OFFCURVE",
"389 289 OFFCURVE",
"399 262 OFFCURVE",
"406 235 QCURVE",
"409 227 OFFCURVE",
"422 227 QCURVE SMOOTH",
"434 227 OFFCURVE",
"438 231 QCURVE",
"438 425 LINE",
"433 430 OFFCURVE",
"421 430 QCURVE SMOOTH",
"407 430 OFFCURVE",
"406 423 QCURVE",
"405 420 OFFCURVE",
"404 414 QCURVE",
"393 369 OFFCURVE",
"363 350 OFFCURVE",
"296 350 QCURVE SMOOTH",
"243 350 LINE SMOOTH",
"201 350 OFFCURVE",
"201 356 QCURVE SMOOTH",
"201 519 LINE SMOOTH",
"201 579 OFFCURVE",
"206 603 QCURVE",
"208 616 OFFCURVE",
"294 616 QCURVE SMOOTH",
"361 616 LINE SMOOTH",
"408 616 OFFCURVE",
"462 585 OFFCURVE",
"477 530 QCURVE",
"478 523 OFFCURVE",
"504 523 OFFCURVE",
"509 528 QCURVE",
"507 540 OFFCURVE",
"484 635 OFFCURVE",
"480 664 QCURVE",
"424 664 OFFCURVE",
"202 656 OFFCURVE",
"157 656 QCURVE SMOOTH"
);
}
);
};
layerId = "0276F023-BC64-4582-8657-390FE5DB601E";
paths = (
{
closed = 1;
nodes = (
"80 0 OFFCURVE",
"120 2 OFFCURVE",
"163 2 CURVE SMOOTH",
"174 2 OFFCURVE",
"212 0 OFFCURVE",
"279 -3 CURVE",
"280 1 OFFCURVE",
"281 6 OFFCURVE",
"281 11 CURVE SMOOTH",
"281 21 OFFCURVE",
"280 26 OFFCURVE",
"277 26 CURVE SMOOTH",
"257 26 OFFCURVE",
"215 39 OFFCURVE",
"213 46 CURVE SMOOTH",
"207 69 OFFCURVE",
"204 100 OFFCURVE",
"204 139 CURVE SMOOTH",
"204 297 LINE SMOOTH",
"204 303 OFFCURVE",
"228 306 OFFCURVE",
"275 306 CURVE SMOOTH",
"337 306 OFFCURVE",
"372 303 OFFCURVE",
"381 298 CURVE SMOOTH",
"393 291 OFFCURVE",
"398 274 OFFCURVE",
"409 235 CURVE",
"411 230 OFFCURVE",
"416 227 OFFCURVE",
"425 227 CURVE SMOOTH",
"433 227 OFFCURVE",
"438 228 OFFCURVE",
"441 231 CURVE",
"441 425 LINE",
"438 428 OFFCURVE",
"432 430 OFFCURVE",
"424 430 CURVE SMOOTH",
"415 430 OFFCURVE",
"410 428 OFFCURVE",
"409 423 CURVE",
"399 383 OFFCURVE",
"392 367 OFFCURVE",
"382 360 CURVE SMOOTH",
"373 354 OFFCURVE",
"345 350 OFFCURVE",
"319 350 CURVE SMOOTH",
"246 350 LINE SMOOTH",
"218 350 OFFCURVE",
"204 352 OFFCURVE",
"204 356 CURVE SMOOTH",
"204 519 LINE SMOOTH",
"204 559 OFFCURVE",
"206 587 OFFCURVE",
"209 603 CURVE",
"210 612 OFFCURVE",
"240 616 OFFCURVE",
"297 616 CURVE SMOOTH",
"364 616 LINE SMOOTH",
"435 616 OFFCURVE",
"462 596 OFFCURVE",
"480 530 CURVE",
"481 525 OFFCURVE",
"485 523 OFFCURVE",
"494 523 CURVE SMOOTH",
"503 523 OFFCURVE",
"509 525 OFFCURVE",
"512 528 CURVE",
"509 546 OFFCURVE",
"489 621 OFFCURVE",
"483 664 CURVE",
"446 664 OFFCURVE",
"390 663 OFFCURVE",
"316 660 CURVE SMOOTH",
"242 657 OFFCURVE",
"190 656 OFFCURVE",
"160 656 CURVE SMOOTH",
"115 656 OFFCURVE",
"76 657 OFFCURVE",
"41 658 CURVE",
"38 655 OFFCURVE",
"37 650 OFFCURVE",
"37 641 CURVE SMOOTH",
"37 633 OFFCURVE",
"38 629 OFFCURVE",
"41 629 CURVE SMOOTH",
"67 627 OFFCURVE",
"106 617 OFFCURVE",
"110 607 CURVE",
"115 589 OFFCURVE",
"117 560 OFFCURVE",
"117 521 CURVE SMOOTH",
"117 136 LINE SMOOTH",
"117 94 OFFCURVE",
"115 64 OFFCURVE",
"110 46 CURVE",
"107 38 OFFCURVE",
"67 26 OFFCURVE",
"43 26 CURVE SMOOTH",
"40 26 OFFCURVE",
"39 21 OFFCURVE",
"39 12 CURVE SMOOTH",
"39 5 OFFCURVE",
"40 0 OFFCURVE",
"43 -3 CURVE"
);
}
);
width = 539;
}
);
note = F;
unicode = 0046;
},
{
color = 3;
glyphname = G;
lastChange = "2018-11-27 13:19:58 +0000";
layers = (
{
anchors = (
{
name = bottom;
position = "{365, 0}";
},
{
name = top;
position = "{365, 658}";
}
);
background = {
paths = (
{
closed = 1;
nodes = (
"476 -6 OFFCURVE",
"555 9 OFFCURVE",
"604 38 CURVE",
"612 42 OFFCURVE",
"638 168 OFFCURVE",
"638 183 CURVE",
"629 188 OFFCURVE",
"619 192 OFFCURVE",
"602 192 CURVE",
"590 144 OFFCURVE",
"571 107 OFFCURVE",
"542 81 CURVE SMOOTH",
"509 52 OFFCURVE",
"463 37 OFFCURVE",
"403 37 CURVE SMOOTH",
"244 37 OFFCURVE",
"143 167 OFFCURVE",
"143 341 CURVE SMOOTH",
"143 498 OFFCURVE",
"240 625 OFFCURVE",
"389 625 CURVE SMOOTH",
"494 625 OFFCURVE",
"554 587 OFFCURVE",
"583 485 CURVE",
"589 482 OFFCURVE",
"612 485 OFFCURVE",
"617 491 CURVE",
"617 505 OFFCURVE",
"618 553 OFFCURVE",
"619 642 CURVE",
"536 659 OFFCURVE",
"465 667 OFFCURVE",
"406 667 CURVE SMOOTH",
"193 667 OFFCURVE",
"48 528 OFFCURVE",
"48 322 CURVE SMOOTH",
"48 129 OFFCURVE",
"196 -6 OFFCURVE",
"402 -6 CURVE SMOOTH"
);
}
);
};
layerId = "0276F023-BC64-4582-8657-390FE5DB601E";
paths = (
{
closed = 1;
nodes = (
"51 129 OFFCURVE",
"199 -6 OFFCURVE",
"401 -6 CURVE SMOOTH",
"465 -6 OFFCURVE",
"542 4 OFFCURVE",
"618 39 CURVE",
"635 48 OFFCURVE",
"643 54 OFFCURVE",
"643 59 CURVE SMOOTH",
"643 61 OFFCURVE",
"641 68 OFFCURVE",
"636 79 CURVE SMOOTH",
"631 90 OFFCURVE",
"628 106 OFFCURVE",
"628 122 CURVE SMOOTH",
"626 186 LINE SMOOTH",
"625 226 OFFCURVE",
"629 248 OFFCURVE",
"636 253 CURVE",
"648 260 OFFCURVE",
"686 271 OFFCURVE",
"694 271 CURVE SMOOTH",
"697 271 OFFCURVE",
"698 276 OFFCURVE",
"698 286 CURVE SMOOTH",
"698 291 OFFCURVE",
"697 296 OFFCURVE",
"696 300 CURVE",
"629 297 OFFCURVE",
"593 295 OFFCURVE",
"578 295 CURVE SMOOTH",
"546 295 OFFCURVE",
"502 297 OFFCURVE",
"457 300 CURVE",
"454 297 OFFCURVE",
"453 292 OFFCURVE",
"453 284 CURVE SMOOTH",
"453 275 OFFCURVE",
"454 271 OFFCURVE",
"457 271 CURVE SMOOTH",
"478 271 OFFCURVE",
"529 262 OFFCURVE",
"534 249 CURVE SMOOTH",
"539 235 OFFCURVE",
"542 206 OFFCURVE",
"542 163 CURVE SMOOTH",
"543 74 LINE SMOOTH",
"543 66 OFFCURVE",
"541 61 OFFCURVE",
"536 59 CURVE",
"508 44 OFFCURVE",
"465 37 OFFCURVE",
"406 37 CURVE SMOOTH",
"247 37 OFFCURVE",
"146 167 OFFCURVE",
"146 341 CURVE SMOOTH",
"146 498 OFFCURVE",
"243 625 OFFCURVE",
"392 625 CURVE SMOOTH",
"497 625 OFFCURVE",
"557 587 OFFCURVE",
"585 486 CURVE",
"592 482 OFFCURVE",
"615 485 OFFCURVE",
"620 491 CURVE",
"620 505 OFFCURVE",
"621 553 OFFCURVE",
"622 642 CURVE",
"539 659 OFFCURVE",
"468 667 OFFCURVE",
"409 667 CURVE SMOOTH",
"196 667 OFFCURVE",
"51 528 OFFCURVE",
"51 322 CURVE SMOOTH"
);
}
);
width = 729;
}
);
leftMetricsKey = O;
note = G;
unicode = 0047;
},
{
color = 3;
glyphname = H;
lastChange = "2018-11-27 21:10:46 +0000";
layers = (
{
anchors = (
{
name = bottom;
position = "{355, 0}";
},
{
name = stroke;
position = "{356, 499}";
},
{
name = top;
position = "{355, 658}";
},
{
name = topleft;
position = "{21, 658}";
}
);
background = {
paths = (
{
closed = 1;
nodes = (
"505 73 OFFCURVE",
"498 46 QCURVE",
"495 38 OFFCURVE",
"444 26 OFFCURVE",
"431 26 QCURVE SMOOTH",
"427 26 OFFCURVE",
"427 1 OFFCURVE",
"431 -3 QCURVE",
"546 2 OFFCURVE",
"552 2 QCURVE SMOOTH",
"566 2 OFFCURVE",
"666 -3 QCURVE",
"668 3 OFFCURVE",
"668 11 QCURVE SMOOTH",
"668 26 OFFCURVE",
"664 26 QCURVE SMOOTH",
"654 26 OFFCURVE",
"602 39 OFFCURVE",
"600 46 QCURVE SMOOTH",
"592 77 OFFCURVE",
"592 139 QCURVE SMOOTH",
"592 519 LINE SMOOTH",
"592 581 OFFCURVE",
"600 612 QCURVE SMOOTH",
"602 619 OFFCURVE",
"654 633 OFFCURVE",
"664 633 QCURVE SMOOTH",
"668 633 OFFCURVE",
"668 647 QCURVE SMOOTH",
"668 656 OFFCURVE",
"666 662 QCURVE",
"652 661 OFFCURVE",
"609 658 OFFCURVE",
"571 656 OFFCURVE",
"552 656 QCURVE SMOOTH",
"525 656 OFFCURVE",
"443 661 OFFCURVE",
"431 662 QCURVE",
"427 658 OFFCURVE",
"427 633 OFFCURVE",
"431 633 QCURVE SMOOTH",
"444 633 OFFCURVE",
"495 620 OFFCURVE",
"498 612 QCURVE",
"505 585 OFFCURVE",
"505 523 QCURVE SMOOTH",
"505 371 LINE SMOOTH",
"505 369 OFFCURVE",
"503 367 QCURVE",
"413 365 OFFCURVE",
"355 365 QCURVE SMOOTH",
"301 365 OFFCURVE",
"203 367 QCURVE",
"201 370 LINE",
"201 519 LINE SMOOTH",
"201 577 OFFCURVE",
"210 612 QCURVE SMOOTH",
"212 619 OFFCURVE",
"264 633 OFFCURVE",
"274 633 QCURVE SMOOTH",
"277 633 OFFCURVE",
"278 658 OFFCURVE",
"276 662 QCURVE",
"262 661 OFFCURVE",
"218 658 OFFCURVE",
"180 656 OFFCURVE",
"160 656 QCURVE SMOOTH",
"133 656 OFFCURVE",
"53 661 OFFCURVE",
"40 662 QCURVE",
"36 658 OFFCURVE",
"36 646 QCURVE SMOOTH",
"36 633 OFFCURVE",
"40 633 QCURVE SMOOTH",
"53 633 OFFCURVE",
"104 620 OFFCURVE",
"107 612 QCURVE",
"114 585 OFFCURVE",
"114 523 QCURVE SMOOTH",
"114 135 LINE SMOOTH",
"114 73 OFFCURVE",
"107 46 QCURVE",
"104 38 OFFCURVE",
"53 26 OFFCURVE",
"40 26 QCURVE SMOOTH",
"36 26 OFFCURVE",
"36 12 QCURVE SMOOTH",
"36 1 OFFCURVE",
"40 -3 QCURVE",
"155 2 OFFCURVE",
"160 2 QCURVE SMOOTH",
"176 2 OFFCURVE",
"276 -3 QCURVE",
"278 2 OFFCURVE",
"277 26 OFFCURVE",
"274 26 QCURVE SMOOTH",
"264 26 OFFCURVE",
"212 39 OFFCURVE",
"210 46 QCURVE SMOOTH",
"201 81 OFFCURVE",
"201 139 QCURVE SMOOTH",
"201 312 LINE SMOOTH",
"201 317 OFFCURVE",
"355 317 QCURVE SMOOTH",
"409 317 OFFCURVE",
"503 315 QCURVE",
"505 311 OFFCURVE",
"505 311 QCURVE",
"505 135 LINE SMOOTH"
);
}
);
};
layerId = "0276F023-BC64-4582-8657-390FE5DB601E";
paths = (
{
closed = 1;
nodes = (
"120 0 OFFCURVE",
"160 2 OFFCURVE",
"163 2 CURVE SMOOTH",
"174 2 OFFCURVE",
"212 0 OFFCURVE",
"279 -3 CURVE",
"280 2 OFFCURVE",
"281 7 OFFCURVE",
"281 10 CURVE SMOOTH",
"281 18 OFFCURVE",
"279 26 OFFCURVE",
"277 26 CURVE SMOOTH",
"257 26 OFFCURVE",
"215 39 OFFCURVE",
"213 46 CURVE SMOOTH",
"207 69 OFFCURVE",
"204 100 OFFCURVE",
"204 139 CURVE SMOOTH",
"204 309 LINE",
"208 313 LINE",
"222 316 OFFCURVE",
"265 317 OFFCURVE",
"358 317 CURVE SMOOTH",
"394 317 OFFCURVE",
"443 316 OFFCURVE",
"506 315 CURVE",
"508 311 LINE",
"508 135 LINE SMOOTH",
"508 94 OFFCURVE",
"506 64 OFFCURVE",
"501 46 CURVE",
"498 38 OFFCURVE",
"458 26 OFFCURVE",
"434 26 CURVE SMOOTH",
"431 26 OFFCURVE",
"430 22 OFFCURVE",
"430 14 CURVE SMOOTH",
"430 5 OFFCURVE",
"431 0 OFFCURVE",
"434 -3 CURVE",
"511 0 OFFCURVE",
"551 2 OFFCURVE",
"555 2 CURVE SMOOTH",
"564 2 OFFCURVE",
"602 0 OFFCURVE",
"669 -3 CURVE",
"670 1 OFFCURVE",
"671 6 OFFCURVE",
"671 11 CURVE SMOOTH",
"671 21 OFFCURVE",
"670 26 OFFCURVE",
"667 26 CURVE SMOOTH",
"647 26 OFFCURVE",
"605 39 OFFCURVE",
"603 46 CURVE SMOOTH",
"598 67 OFFCURVE",
"595 98 OFFCURVE",
"595 139 CURVE SMOOTH",
"595 519 LINE SMOOTH",
"595 560 OFFCURVE",
"598 591 OFFCURVE",
"603 612 CURVE",
"605 619 OFFCURVE",
"647 633 OFFCURVE",
"667 633 CURVE SMOOTH",
"670 633 OFFCURVE",
"671 638 OFFCURVE",
"671 647 CURVE SMOOTH",
"671 653 OFFCURVE",
"670 658 OFFCURVE",
"669 662 CURVE",
"627 659 OFFCURVE",
"577 656 OFFCURVE",
"555 656 CURVE SMOOTH",
"530 656 OFFCURVE",
"466 659 OFFCURVE",
"434 662 CURVE",
"431 659 OFFCURVE",
"430 654 OFFCURVE",
"430 646 CURVE SMOOTH",
"430 637 OFFCURVE",
"431 633 OFFCURVE",
"434 633 CURVE SMOOTH",
"457 633 OFFCURVE",
"498 620 OFFCURVE",
"501 612 CURVE",
"506 594 OFFCURVE",
"508 564 OFFCURVE",
"508 523 CURVE SMOOTH",
"508 371 LINE",
"506 367 LINE",
"446 366 OFFCURVE",
"397 365 OFFCURVE",
"358 365 CURVE SMOOTH",
"322 365 OFFCURVE",
"271 366 OFFCURVE",
"206 367 CURVE",
"204 370 LINE",
"204 519 LINE SMOOTH",
"204 558 OFFCURVE",
"207 590 OFFCURVE",
"213 613 CURVE",
"215 620 OFFCURVE",
"257 633 OFFCURVE",
"277 633 CURVE SMOOTH",
"279 633 OFFCURVE",
"281 642 OFFCURVE",
"281 649 CURVE SMOOTH",
"281 654 OFFCURVE",
"280 660 OFFCURVE",
"279 662 CURVE",
"212 658 OFFCURVE",
"177 656 OFFCURVE",
"163 656 CURVE SMOOTH",
"143 656 OFFCURVE",
"91 659 OFFCURVE",
"43 662 CURVE",
"40 659 OFFCURVE",
"39 654 OFFCURVE",
"39 646 CURVE SMOOTH",
"39 637 OFFCURVE",
"40 633 OFFCURVE",
"43 633 CURVE SMOOTH",
"66 633 OFFCURVE",
"107 620 OFFCURVE",
"110 612 CURVE",
"115 594 OFFCURVE",
"117 564 OFFCURVE",
"117 523 CURVE SMOOTH",
"117 135 LINE SMOOTH",
"117 94 OFFCURVE",
"115 64 OFFCURVE",
"110 46 CURVE",
"107 38 OFFCURVE",
"67 26 OFFCURVE",
"43 26 CURVE SMOOTH",
"40 26 OFFCURVE",
"39 21 OFFCURVE",
"39 12 CURVE SMOOTH",
"39 5 OFFCURVE",
"40 0 OFFCURVE",
"43 -3 CURVE"
);
}
);
width = 712;
}
);
note = H;
unicode = 0048;
},
{
color = 6;
glyphname = Hbar;
lastChange = "2018-11-28 09:30:54 +0000";
layers = (
{
background = {
paths = (
{
closed = 1;
nodes = (
"133 656 OFFCURVE",
"53 661 OFFCURVE",
"40 662 QCURVE",
"36 658 OFFCURVE",
"36 646 QCURVE SMOOTH",
"36 633 OFFCURVE",
"40 633 QCURVE SMOOTH",
"53 633 OFFCURVE",
"104 620 OFFCURVE",
"107 612 QCURVE",
"114 585 OFFCURVE",
"114 508 QCURVE",
"81 508 LINE",
"75 499 OFFCURVE",
"75 483 QCURVE SMOOTH",
"75 470 OFFCURVE",
"80 470 QCURVE SMOOTH",
"114 470 LINE",
"114 135 LINE SMOOTH",
"114 73 OFFCURVE",
"107 46 QCURVE",
"104 38 OFFCURVE",
"53 26 OFFCURVE",
"40 26 QCURVE SMOOTH",
"36 26 OFFCURVE",
"36 12 QCURVE SMOOTH",
"36 1 OFFCURVE",
"40 -3 QCURVE",
"155 2 OFFCURVE",
"160 2 QCURVE SMOOTH",
"176 2 OFFCURVE",
"276 -3 QCURVE",
"278 2 OFFCURVE",
"277 26 OFFCURVE",
"274 26 QCURVE SMOOTH",
"264 26 OFFCURVE",
"212 39 OFFCURVE",
"210 46 QCURVE SMOOTH",
"201 81 OFFCURVE",
"201 139 QCURVE SMOOTH",
"201 294 LINE SMOOTH",
"201 299 OFFCURVE",
"355 299 QCURVE SMOOTH",
"409 299 OFFCURVE",
"503 297 QCURVE",
"505 293 LINE",
"505 135 LINE SMOOTH",
"505 73 OFFCURVE",
"498 46 QCURVE",
"495 38 OFFCURVE",
"444 26 OFFCURVE",
"431 26 QCURVE SMOOTH",
"427 26 OFFCURVE",
"427 1 OFFCURVE",
"431 -3 QCURVE",
"546 2 OFFCURVE",
"552 2 QCURVE SMOOTH",
"566 2 OFFCURVE",
"666 -3 QCURVE",
"668 3 OFFCURVE",
"668 11 QCURVE SMOOTH",
"668 26 OFFCURVE",
"664 26 QCURVE SMOOTH",
"654 26 OFFCURVE",
"602 39 OFFCURVE",
"600 46 QCURVE SMOOTH",
"592 77 OFFCURVE",
"592 139 QCURVE SMOOTH",
"592 470 LINE",
"632 470 LINE",
"638 479 OFFCURVE",
"638 495 QCURVE SMOOTH",
"638 508 OFFCURVE",
"633 508 QCURVE SMOOTH",
"592 508 LINE",
"592 581 OFFCURVE",
"600 612 QCURVE SMOOTH",
"602 619 OFFCURVE",
"654 633 OFFCURVE",
"664 633 QCURVE SMOOTH",
"668 633 OFFCURVE",
"668 647 QCURVE SMOOTH",
"668 656 OFFCURVE",
"666 662 QCURVE",
"652 661 OFFCURVE",
"609 658 OFFCURVE",
"571 656 OFFCURVE",
"552 656 QCURVE SMOOTH",
"525 656 OFFCURVE",
"443 661 OFFCURVE",
"431 662 QCURVE",
"427 658 OFFCURVE",
"427 633 OFFCURVE",
"431 633 QCURVE SMOOTH",
"444 633 OFFCURVE",
"495 620 OFFCURVE",
"498 612 QCURVE",
"505 585 OFFCURVE",
"505 508 QCURVE",
"465 507 OFFCURVE",
"355 507 QCURVE SMOOTH",
"213 507 OFFCURVE",
"201 508 QCURVE",
"201 577 OFFCURVE",
"210 612 QCURVE SMOOTH",
"212 619 OFFCURVE",
"264 633 OFFCURVE",
"274 633 QCURVE SMOOTH",
"277 633 OFFCURVE",
"278 658 OFFCURVE",
"276 662 QCURVE",
"262 661 OFFCURVE",
"218 658 OFFCURVE",
"180 656 OFFCURVE",
"160 656 QCURVE SMOOTH"
);
},
{
closed = 1;
nodes = (
"505 353 LINE SMOOTH",
"505 351 OFFCURVE",
"503 349 QCURVE",
"413 347 OFFCURVE",
"355 347 QCURVE SMOOTH",
"301 347 OFFCURVE",
"203 349 QCURVE SMOOTH",
"201 349 OFFCURVE",
"201 352 QCURVE SMOOTH",
"201 470 LINE",
"246 471 OFFCURVE",
"464 471 OFFCURVE",
"505 470 QCURVE"
);
}
);
};
components = (
{
name = H;
},
{
name = strokelongcomb.case;
transform = "{1, 0, 0, 1, 206, 169}";
}
);
layerId = "0276F023-BC64-4582-8657-390FE5DB601E";
width = 712;
}
);
note = Hbar;
unicode = 0126;
},
{
color = 3;
glyphname = I;
lastChange = "2018-11-27 13:18:45 +0000";
layers = (
{
anchors = (
{
name = bottom;
position = "{160, 0}";
},
{
name = ogonek;
position = "{238, 10}";
},
{
name = top;
position = "{160, 658}";
},
{
name = topleft;
position = "{21, 658}";
}
);
background = {
paths = (
{
closed = 1;
nodes = (
"114 135 LINE SMOOTH",
"114 73 OFFCURVE",
"107 46 QCURVE",
"104 38 OFFCURVE",
"53 26 OFFCURVE",
"40 26 QCURVE SMOOTH",
"36 26 OFFCURVE",
"36 12 QCURVE SMOOTH",
"36 1 OFFCURVE",
"40 -3 QCURVE",
"155 2 OFFCURVE",
"160 2 QCURVE SMOOTH",
"176 2 OFFCURVE",
"276 -3 QCURVE",
"278 3 OFFCURVE",
"278 11 QCURVE SMOOTH",
"278 26 OFFCURVE",
"274 26 QCURVE SMOOTH",
"264 26 OFFCURVE",
"212 39 OFFCURVE",
"210 46 QCURVE SMOOTH",
"201 81 OFFCURVE",
"201 139 QCURVE SMOOTH",
"201 519 LINE SMOOTH",
"201 577 OFFCURVE",
"210 612 QCURVE SMOOTH",
"212 619 OFFCURVE",
"264 633 OFFCURVE",
"274 633 QCURVE SMOOTH",
"278 633 OFFCURVE",
"278 647 QCURVE SMOOTH",
"278 656 OFFCURVE",
"276 662 QCURVE",
"176 657 OFFCURVE",
"160 657 QCURVE SMOOTH",
"155 657 OFFCURVE",
"40 662 QCURVE",
"36 658 OFFCURVE",
"36 646 QCURVE SMOOTH",
"36 633 OFFCURVE",
"40 633 QCURVE SMOOTH",
"53 633 OFFCURVE",
"104 620 OFFCURVE",
"107 612 QCURVE",
"114 585 OFFCURVE",
"114 523 QCURVE SMOOTH"
);
}
);
};
layerId = "0276F023-BC64-4582-8657-390FE5DB601E";
paths = (
{
closed = 1;
nodes = (
"90 0 OFFCURVE",
"140 2 OFFCURVE",
"163 2 CURVE SMOOTH",
"194 2 OFFCURVE",
"232 0 OFFCURVE",
"279 -3 CURVE",
"280 1 OFFCURVE",
"281 6 OFFCURVE",
"281 11 CURVE SMOOTH",
"281 21 OFFCURVE",
"280 26 OFFCURVE",
"277 26 CURVE SMOOTH",
"264 26 OFFCURVE",
"216 37 OFFCURVE",
"213 45 CURVE",
"207 69 OFFCURVE",
"204 100 OFFCURVE",
"204 139 CURVE SMOOTH",
"204 519 LINE SMOOTH",
"204 558 OFFCURVE",
"207 589 OFFCURVE",
"213 612 CURVE",
"216 621 OFFCURVE",
"264 633 OFFCURVE",
"277 633 CURVE SMOOTH",
"280 633 OFFCURVE",
"281 638 OFFCURVE",
"281 647 CURVE SMOOTH",
"281 653 OFFCURVE",
"280 658 OFFCURVE",
"279 662 CURVE",
"222 659 OFFCURVE",
"194 657 OFFCURVE",
"163 657 CURVE SMOOTH",
"140 657 OFFCURVE",
"100 659 OFFCURVE",
"43 662 CURVE",
"40 659 OFFCURVE",
"39 654 OFFCURVE",
"39 646 CURVE SMOOTH",
"39 637 OFFCURVE",
"40 633 OFFCURVE",
"43 633 CURVE SMOOTH",
"60 633 OFFCURVE",
"106 623 OFFCURVE",
"110 612 CURVE",
"115 594 OFFCURVE",
"117 564 OFFCURVE",
"117 523 CURVE SMOOTH",
"117 135 LINE SMOOTH",
"117 94 OFFCURVE",
"115 64 OFFCURVE",
"110 46 CURVE",
"106 35 OFFCURVE",
"60 26 OFFCURVE",
"43 26 CURVE SMOOTH",
"40 26 OFFCURVE",
"39 21 OFFCURVE",
"39 12 CURVE SMOOTH",
"39 5 OFFCURVE",
"40 0 OFFCURVE",
"43 -3 CURVE"
);
}
);
width = 322;
}
);
leftMetricsKey = H;
note = I;
rightMetricsKey = H;
unicode = 0049;
},
{
color = 6;
glyphname = Iogonek;
lastChange = "2018-11-28 09:30:54 +0000";
layers = (
{
background = {
paths = (
{
closed = 1;
nodes = (
"157 657 OFFCURVE",
"42 662 QCURVE",
"38 658 OFFCURVE",
"38 646 QCURVE SMOOTH",
"38 633 OFFCURVE",
"42 633 QCURVE SMOOTH",
"55 633 OFFCURVE",
"106 620 OFFCURVE",
"109 612 QCURVE",
"116 585 OFFCURVE",
"116 523 QCURVE SMOOTH",
"116 135 LINE SMOOTH",
"116 73 OFFCURVE",
"109 46 QCURVE",
"106 38 OFFCURVE",
"55 26 OFFCURVE",
"42 26 QCURVE SMOOTH",
"38 26 OFFCURVE",
"38 12 QCURVE SMOOTH",
"38 1 OFFCURVE",
"42 -3 QCURVE",
"157 2 OFFCURVE",
"162 2 QCURVE SMOOTH",
"180 2 LINE",
"134 -29 OFFCURVE",
"64 -110 OFFCURVE",
"64 -147 QCURVE SMOOTH",
"64 -174 OFFCURVE",
"98 -224 OFFCURVE",
"135 -224 QCURVE SMOOTH",
"188 -224 OFFCURVE",
"240 -158 QCURVE SMOOTH",
"244 -153 OFFCURVE",
"244 -127 OFFCURVE",
"240 -127 QCURVE SMOOTH",
"239 -127 OFFCURVE",
"219 -146 OFFCURVE",
"181 -165 OFFCURVE",
"159 -165 QCURVE SMOOTH",
"136 -165 OFFCURVE",
"118 -138 OFFCURVE",
"118 -122 QCURVE SMOOTH",
"118 -92 OFFCURVE",
"185 -24 OFFCURVE",
"225 0 QCURVE",
"233 0 OFFCURVE",
"278 -3 QCURVE",
"280 3 OFFCURVE",
"280 11 QCURVE SMOOTH",
"280 26 OFFCURVE",
"276 26 QCURVE SMOOTH",
"266 26 OFFCURVE",
"214 39 OFFCURVE",
"212 46 QCURVE SMOOTH",
"203 81 OFFCURVE",
"203 139 QCURVE SMOOTH",
"203 519 LINE SMOOTH",
"202 577 OFFCURVE",
"212 612 QCURVE SMOOTH",
"214 619 OFFCURVE",
"266 633 OFFCURVE",
"276 633 QCURVE SMOOTH",
"280 633 OFFCURVE",
"280 647 QCURVE SMOOTH",
"280 656 OFFCURVE",
"278 662 QCURVE",
"178 657 OFFCURVE",
"162 657 QCURVE SMOOTH"
);
}
);
};
components = (
{
name = I;
},
{
name = ogonekcomb;
transform = "{1, 0, 0, 1, 7, 0}";
}
);
layerId = "0276F023-BC64-4582-8657-390FE5DB601E";
width = 322;
}
);
note = Iogonek;
unicode = 012E;
},
{
color = 3;
glyphname = J;
lastChange = "2018-11-27 13:18:45 +0000";
layers = (
{
anchors = (
{
name = bottom;
position = "{144, 0}";
},
{
name = top;
position = "{161, 658}";
}
);
background = {
paths = (
{
closed = 1;
nodes = (
"131 656 OFFCURVE",
"51 661 OFFCURVE",
"38 662 QCURVE",
"34 658 OFFCURVE",
"34 646 QCURVE SMOOTH",
"34 633 OFFCURVE",
"38 633 QCURVE SMOOTH",
"51 633 OFFCURVE",
"102 620 OFFCURVE",
"105 612 QCURVE",
"112 585 OFFCURVE",
"112 523 QCURVE SMOOTH",
"112 77 LINE SMOOTH",
"112 14 OFFCURVE",
"94 -85 OFFCURVE",
"66 -139 OFFCURVE",
"37 -167 OFFCURVE",
"23 -167 QCURVE SMOOTH",
"10 -167 OFFCURVE",
"-35 -124 OFFCURVE",
"-53 -124 QCURVE SMOOTH",
"-78 -124 OFFCURVE",
"-115 -152 OFFCURVE",
"-115 -174 QCURVE SMOOTH",
"-115 -197 OFFCURVE",
"-103 -211 QCURVE",
"-96 -215 LINE",
"-88 -219 OFFCURVE",
"-62 -227 OFFCURVE",
"-51 -227 QCURVE SMOOTH",
"58 -227 OFFCURVE",
"199 -41 OFFCURVE",
"199 85 QCURVE SMOOTH",
"199 519 LINE SMOOTH",
"199 577 OFFCURVE",
"208 612 QCURVE SMOOTH",
"210 619 OFFCURVE",
"262 633 OFFCURVE",
"272 633 QCURVE SMOOTH",
"276 633 OFFCURVE",
"276 647 QCURVE SMOOTH",
"276 656 OFFCURVE",
"274 662 QCURVE",
"260 661 OFFCURVE",
"216 658 OFFCURVE",
"178 656 OFFCURVE",
"158 656 QCURVE SMOOTH"
);
}
);
};
layerId = "0276F023-BC64-4582-8657-390FE5DB601E";
paths = (
{
closed = 1;
nodes = (
"125 656 OFFCURVE",
"58 661 OFFCURVE",
"41 662 CURVE",
"38 659 OFFCURVE",
"37 654 OFFCURVE",
"37 646 CURVE SMOOTH",
"37 637 OFFCURVE",
"38 633 OFFCURVE",
"41 633 CURVE SMOOTH",
"58 633 OFFCURVE",
"104 623 OFFCURVE",
"108 612 CURVE",
"113 594 OFFCURVE",
"115 564 OFFCURVE",
"115 523 CURVE SMOOTH",
"115 77 LINE SMOOTH",
"115 -7 OFFCURVE",
"102 -76 OFFCURVE",
"83 -112 CURVE SMOOTH",
"64 -148 OFFCURVE",
"45 -167 OFFCURVE",
"26 -167 CURVE SMOOTH",
"17 -167 OFFCURVE",
"6 -160 OFFCURVE",
"-10 -146 CURVE SMOOTH",
"-25 -131 OFFCURVE",
"-44 -124 OFFCURVE",
"-57 -124 CURVE SMOOTH",
"-89 -124 OFFCURVE",
"-112 -144 OFFCURVE",
"-112 -172 CURVE SMOOTH",
"-112 -206 OFFCURVE",
"-84 -227 OFFCURVE",
"-28 -227 CURVE SMOOTH",
"91 -227 OFFCURVE",
"202 -83 OFFCURVE",
"202 85 CURVE SMOOTH",
"202 519 LINE SMOOTH",
"202 558 OFFCURVE",
"205 589 OFFCURVE",
"211 613 CURVE",
"214 621 OFFCURVE",
"262 633 OFFCURVE",
"275 633 CURVE SMOOTH",
"278 633 OFFCURVE",
"279 638 OFFCURVE",
"279 647 CURVE SMOOTH",
"279 653 OFFCURVE",
"278 658 OFFCURVE",
"277 662 CURVE",
"249 660 OFFCURVE",
"187 656 OFFCURVE",
"161 656 CURVE SMOOTH"
);
}
);
width = 314;
}
);
note = J;
unicode = 004A;
},
{
color = 3;
glyphname = K;
lastChange = "2018-11-27 13:18:45 +0000";
layers = (
{
anchors = (
{
name = bottom;
position = "{345, 0}";
},
{
name = top;
position = "{345, 658}";
}
);
background = {
paths = (
{
closed = 1;
nodes = (
"133 656 OFFCURVE",
"53 661 OFFCURVE",
"40 662 QCURVE",
"36 658 OFFCURVE",
"36 646 QCURVE SMOOTH",
"36 633 OFFCURVE",
"40 633 QCURVE SMOOTH",
"53 633 OFFCURVE",
"104 620 OFFCURVE",
"107 612 QCURVE",
"114 585 OFFCURVE",
"114 523 QCURVE SMOOTH",
"114 135 LINE SMOOTH",
"114 73 OFFCURVE",
"107 46 QCURVE",
"104 38 OFFCURVE",
"53 26 OFFCURVE",
"40 26 QCURVE SMOOTH",
"36 26 OFFCURVE",
"36 12 QCURVE SMOOTH",
"36 1 OFFCURVE",
"40 -3 QCURVE",
"155 2 OFFCURVE",
"160 2 QCURVE SMOOTH",
"176 2 OFFCURVE",
"276 -3 QCURVE",
"278 2 OFFCURVE",
"277 26 OFFCURVE",
"274 26 QCURVE SMOOTH",
"264 26 OFFCURVE",
"212 39 OFFCURVE",
"210 46 QCURVE SMOOTH",
"201 81 OFFCURVE",
"201 139 QCURVE SMOOTH",
"201 303 LINE SMOOTH",
"201 311 OFFCURVE",
"208 311 QCURVE SMOOTH",
"233 311 OFFCURVE",
"237 307 QCURVE SMOOTH",
"464 74 OFFCURVE",
"464 42 QCURVE SMOOTH",
"464 34 OFFCURVE",
"433 26 OFFCURVE",
"421 26 QCURVE SMOOTH",
"417 26 OFFCURVE",
"417 1 OFFCURVE",
"421 -3 QCURVE",
"441 -2 OFFCURVE",
"491 0 OFFCURVE",
"531 2 OFFCURVE",
"556 2 QCURVE SMOOTH",
"580 2 OFFCURVE",
"680 -3 QCURVE",
"682 1 OFFCURVE",
"682 8 QCURVE SMOOTH",
"682 26 OFFCURVE",
"677 26 QCURVE SMOOTH",
"668 26 OFFCURVE",
"639 30 OFFCURVE",
"587 52 OFFCURVE",
"571 69 QCURVE SMOOTH",
"330 334 LINE",
"315 352 OFFCURVE",
"323 361 QCURVE SMOOTH",
"524 595 LINE SMOOTH",
"555 630 OFFCURVE",
"616 637 QCURVE",
"619 637 OFFCURVE",
"620 658 OFFCURVE",
"618 662 QCURVE",
"606 661 OFFCURVE",
"542 656 OFFCURVE",
"517 656 QCURVE SMOOTH",
"501 656 OFFCURVE",
"465 658 OFFCURVE",
"423 661 OFFCURVE",
"410 662 QCURVE",
"408 655 OFFCURVE",
"408 637 OFFCURVE",
"412 637 QCURVE SMOOTH",
"469 637 OFFCURVE",
"469 620 QCURVE SMOOTH",
"469 611 OFFCURVE",
"445 582 QCURVE",
"390 510 OFFCURVE",
"273 379 QCURVE SMOOTH",
"247 350 OFFCURVE",
"215 350 QCURVE SMOOTH",
"208 350 LINE",
"201 356 LINE",
"201 519 LINE SMOOTH",
"201 577 OFFCURVE",
"210 612 QCURVE SMOOTH",
"212 619 OFFCURVE",
"264 633 OFFCURVE",
"274 633 QCURVE SMOOTH",
"277 633 OFFCURVE",
"278 658 OFFCURVE",
"276 662 QCURVE",
"262 661 OFFCURVE",
"218 658 OFFCURVE",
"180 656 OFFCURVE",
"160 656 QCURVE SMOOTH"
);
}
);
};
layerId = "0276F023-BC64-4582-8657-390FE5DB601E";
paths = (
{
closed = 1;
nodes = (
"100 0 OFFCURVE",
"139 2 OFFCURVE",
"163 2 CURVE SMOOTH",
"174 2 OFFCURVE",
"212 0 OFFCURVE",
"279 -3 CURVE",
"280 0 OFFCURVE",
"281 5 OFFCURVE",
"281 10 CURVE SMOOTH",
"281 18 OFFCURVE",
"279 26 OFFCURVE",
"277 26 CURVE SMOOTH",
"264 26 OFFCURVE",
"216 37 OFFCURVE",
"213 46 CURVE SMOOTH",
"207 69 OFFCURVE",
"204 100 OFFCURVE",
"204 139 CURVE SMOOTH",
"204 311 LINE",
"224 311 LINE SMOOTH",
"235 311 OFFCURVE",
"242 308 OFFCURVE",
"247 302 CURVE SMOOTH",
"427 104 LINE SMOOTH",
"459 69 OFFCURVE",
"467 53 OFFCURVE",
"467 45 CURVE SMOOTH",
"467 31 OFFCURVE",
"440 26 OFFCURVE",
"424 26 CURVE SMOOTH",
"421 26 OFFCURVE",
"420 22 OFFCURVE",
"420 14 CURVE SMOOTH",
"420 5 OFFCURVE",
"421 0 OFFCURVE",
"424 -3 CURVE",
"446 -2 OFFCURVE",
"520 2 OFFCURVE",
"559 2 CURVE SMOOTH",
"575 2 OFFCURVE",
"616 0 OFFCURVE",
"683 -3 CURVE",
"684 0 OFFCURVE",
"685 3 OFFCURVE",
"685 8 CURVE SMOOTH",
"685 20 OFFCURVE",
"683 26 OFFCURVE",
"680 26 CURVE SMOOTH",
"655 26 OFFCURVE",
"602 39 OFFCURVE",
"574 69 CURVE SMOOTH",
"330 330 LINE",
"323 338 OFFCURVE",
"320 343 OFFCURVE",
"320 348 CURVE SMOOTH",
"320 351 OFFCURVE",
"321 355 OFFCURVE",
"323 357 CURVE SMOOTH",
"527 595 LINE SMOOTH",
"548 619 OFFCURVE",
"578 632 OFFCURVE",
"619 637 CURVE",
"621 639 OFFCURVE",
"623 644 OFFCURVE",
"623 651 CURVE SMOOTH",
"623 655 OFFCURVE",
"622 660 OFFCURVE",
"621 662 CURVE",
"605 661 OFFCURVE",
"553 656 OFFCURVE",
"520 656 CURVE SMOOTH",
"498 656 OFFCURVE",
"439 660 OFFCURVE",
"413 662 CURVE",
"412 657 OFFCURVE",
"411 652 OFFCURVE",
"411 646 CURVE SMOOTH",
"411 640 OFFCURVE",
"412 637 OFFCURVE",
"415 637 CURVE SMOOTH",
"453 637 OFFCURVE",
"472 631 OFFCURVE",
"472 620 CURVE SMOOTH",
"472 614 OFFCURVE",
"465 601 OFFCURVE",
"449 582 CURVE SMOOTH",
"276 379 LINE SMOOTH",
"260 360 OFFCURVE",
"239 350 OFFCURVE",
"218 350 CURVE SMOOTH",
"204 350 LINE",
"204 519 LINE SMOOTH",
"204 558 OFFCURVE",
"207 589 OFFCURVE",
"213 612 CURVE SMOOTH",
"216 621 OFFCURVE",
"264 633 OFFCURVE",
"277 633 CURVE SMOOTH",
"279 633 OFFCURVE",
"281 642 OFFCURVE",
"281 649 CURVE SMOOTH",
"281 655 OFFCURVE",
"280 660 OFFCURVE",
"279 662 CURVE",
"251 660 OFFCURVE",
"189 656 OFFCURVE",
"163 656 CURVE SMOOTH",
"127 656 OFFCURVE",
"60 661 OFFCURVE",
"43 662 CURVE",
"40 659 OFFCURVE",
"39 654 OFFCURVE",
"39 646 CURVE SMOOTH",
"39 637 OFFCURVE",
"40 633 OFFCURVE",
"43 633 CURVE SMOOTH",
"60 633 OFFCURVE",
"106 623 OFFCURVE",
"110 612 CURVE",
"115 594 OFFCURVE",
"117 564 OFFCURVE",
"117 523 CURVE SMOOTH",
"117 135 LINE SMOOTH",
"117 94 OFFCURVE",
"115 64 OFFCURVE",
"110 46 CURVE",
"106 35 OFFCURVE",
"60 26 OFFCURVE",
"43 26 CURVE SMOOTH",
"40 26 OFFCURVE",
"39 21 OFFCURVE",
"39 12 CURVE SMOOTH",
"39 5 OFFCURVE",
"40 0 OFFCURVE",
"43 -3 CURVE"
);
}
);
width = 665;
}
);
note = K;
unicode = 004B;
},
{
color = 3;
glyphname = L;
lastChange = "2018-12-03 12:14:13 +0000";
layers = (
{
anchors = (
{
name = bottom;
position = "{286, 0}";
},
{
name = center;
position = "{224, 329}";
},
{
name = dotacc;
position = "{387, 329}";
},
{
name = top;
position = "{286, 658}";
},
{
name = topright;
position = "{417, 431}";
}
);
background = {
paths = (
{
closed = 1;
nodes = (
"133 656 OFFCURVE",
"53 661 OFFCURVE",
"40 662 QCURVE",
"36 658 OFFCURVE",
"36 646 QCURVE SMOOTH",
"36 633 OFFCURVE",
"40 633 QCURVE SMOOTH",
"53 633 OFFCURVE",
"104 620 OFFCURVE",
"107 612 QCURVE",
"114 585 OFFCURVE",
"114 521 QCURVE SMOOTH",
"114 143 LINE SMOOTH",
"114 61 OFFCURVE",
"107 49 QCURVE SMOOTH",
"102 40 OFFCURVE",
"52 28 OFFCURVE",
"38 28 QCURVE SMOOTH",
"35 28 OFFCURVE",
"35 2 OFFCURVE",
"38 -1 QCURVE",
"159 2 LINE SMOOTH",
"227 2 OFFCURVE",
"448 -4 OFFCURVE",
"500 -4 QCURVE",
"502 11 OFFCURVE",
"516 57 OFFCURVE",
"528 92 OFFCURVE",
"549 149 OFFCURVE",
"554 162 QCURVE",
"548 168 OFFCURVE",
"529 168 QCURVE SMOOTH",
"517 168 OFFCURVE",
"515 162 QCURVE",
"504 124 OFFCURVE",
"467 69 OFFCURVE",
"452 61 QCURVE SMOOTH",
"419 44 OFFCURVE",
"326 44 QCURVE SMOOTH",
"278 44 LINE SMOOTH",
"213 44 OFFCURVE",
"210 54 QCURVE",
"201 89 OFFCURVE",
"201 142 QCURVE SMOOTH",
"201 519 LINE SMOOTH",
"201 577 OFFCURVE",
"210 612 QCURVE SMOOTH",
"212 619 OFFCURVE",
"264 633 OFFCURVE",
"274 633 QCURVE SMOOTH",
"278 633 OFFCURVE",
"278 647 QCURVE SMOOTH",
"278 656 OFFCURVE",
"276 662 QCURVE",
"262 661 OFFCURVE",
"218 658 OFFCURVE",
"180 656 OFFCURVE",
"160 656 QCURVE SMOOTH"
);
}
);
};
guideLines = (
{
angle = 90;
position = "{503, 251}";
}
);
layerId = "0276F023-BC64-4582-8657-390FE5DB601E";
paths = (
{
closed = 1;
nodes = (
"143 656 OFFCURVE",
"91 659 OFFCURVE",
"43 662 CURVE",
"40 659 OFFCURVE",
"39 654 OFFCURVE",
"39 646 CURVE SMOOTH",
"39 637 OFFCURVE",
"40 633 OFFCURVE",
"43 633 CURVE SMOOTH",
"66 633 OFFCURVE",
"107 620 OFFCURVE",
"110 612 CURVE",
"115 594 OFFCURVE",
"117 564 OFFCURVE",
"117 521 CURVE SMOOTH",
"117 143 LINE SMOOTH",
"117 88 OFFCURVE",
"115 57 OFFCURVE",
"110 49 CURVE SMOOTH",
"105 40 OFFCURVE",
"66 28 OFFCURVE",
"41 28 CURVE SMOOTH",
"39 28 OFFCURVE",
"38 24 OFFCURVE",
"38 15 CURVE SMOOTH",
"38 6 OFFCURVE",
"39 1 OFFCURVE",
"41 -1 CURVE",
"71 0 OFFCURVE",
"122 2 OFFCURVE",
"162 2 CURVE SMOOTH",
"207 2 OFFCURVE",
"267 1 OFFCURVE",
"341 -1 CURVE SMOOTH",
"414 -3 OFFCURVE",
"468 -4 OFFCURVE",
"503 -4 CURVE",
"506 18 OFFCURVE",
"532 98 OFFCURVE",
"557 162 CURVE",
"553 166 OFFCURVE",
"545 168 OFFCURVE",
"532 168 CURVE SMOOTH",
"524 168 OFFCURVE",
"519 166 OFFCURVE",
"518 162 CURVE",
"482 54 OFFCURVE",
"444 44 OFFCURVE",
"329 44 CURVE SMOOTH",
"281 44 LINE SMOOTH",
"238 44 OFFCURVE",
"215 47 OFFCURVE",
"213 54 CURVE",
"207 77 OFFCURVE",
"204 107 OFFCURVE",
"204 142 CURVE SMOOTH",
"204 519 LINE SMOOTH",
"204 558 OFFCURVE",
"207 589 OFFCURVE",
"213 612 CURVE SMOOTH",
"215 619 OFFCURVE",
"257 633 OFFCURVE",
"277 633 CURVE SMOOTH",
"280 633 OFFCURVE",
"281 638 OFFCURVE",
"281 647 CURVE SMOOTH",
"281 653 OFFCURVE",
"280 658 OFFCURVE",
"279 662 CURVE",
"212 658 OFFCURVE",
"177 656 OFFCURVE",
"163 656 CURVE SMOOTH"
);
}
);
width = 559;
}
);
note = L;
unicode = 004C;
},
{
color = 6;
glyphname = Lslash;
lastChange = "2018-12-03 12:15:24 +0000";
layers = (
{
background = {
paths = (
{
closed = 1;
nodes = (
"409 416 LINE",
"389 447 LINE",
"39 207 LINE",
"59 176 LINE"
);
},
{
closed = 1;
nodes = (
"204 304 LINE",
"204 519 LINE SMOOTH",
"204 558 OFFCURVE",
"207 589 OFFCURVE",
"213 612 CURVE SMOOTH",
"216 621 OFFCURVE",
"264 633 OFFCURVE",
"277 633 CURVE SMOOTH",
"280 633 OFFCURVE",
"281 638 OFFCURVE",
"281 647 CURVE SMOOTH",
"281 653 OFFCURVE",
"280 658 OFFCURVE",
"279 662 CURVE",
"251 660 OFFCURVE",
"189 656 OFFCURVE",
"163 656 CURVE SMOOTH",
"127 656 OFFCURVE",
"60 661 OFFCURVE",
"43 662 CURVE",
"40 659 OFFCURVE",
"39 654 OFFCURVE",
"39 646 CURVE SMOOTH",
"39 637 OFFCURVE",
"40 633 OFFCURVE",
"43 633 CURVE SMOOTH",
"60 633 OFFCURVE",
"106 623 OFFCURVE",
"110 612 CURVE",
"115 594 OFFCURVE",
"117 564 OFFCURVE",
"117 521 CURVE SMOOTH",
"117 244 LINE"
);
},
{
closed = 1;
nodes = (
"117 236 LINE",
"117 143 LINE SMOOTH",
"117 88 OFFCURVE",
"115 57 OFFCURVE",
"110 49 CURVE SMOOTH",
"103 37 OFFCURVE",
"60 28 OFFCURVE",
"41 28 CURVE SMOOTH",
"39 28 OFFCURVE",
"38 24 OFFCURVE",
"38 15 CURVE SMOOTH",
"38 6 OFFCURVE",
"39 1 OFFCURVE",
"41 -1 CURVE",
"162 2 LINE SMOOTH",
"207 2 OFFCURVE",
"267 1 OFFCURVE",
"341 -1 CURVE SMOOTH",
"414 -3 OFFCURVE",
"468 -4 OFFCURVE",
"503 -4 CURVE",
"507 29 OFFCURVE",
"546 134 OFFCURVE",
"557 162 CURVE",
"553 166 OFFCURVE",
"545 168 OFFCURVE",
"532 168 CURVE SMOOTH",
"524 168 OFFCURVE",
"519 166 OFFCURVE",
"518 162 CURVE",
"503 111 OFFCURVE",
"475 72 OFFCURVE",
"455 61 CURVE SMOOTH",
"433 50 OFFCURVE",
"391 44 OFFCURVE",
"329 44 CURVE SMOOTH",
"281 44 LINE SMOOTH",
"238 44 OFFCURVE",
"215 47 OFFCURVE",
"213 54 CURVE",
"207 77 OFFCURVE",
"204 107 OFFCURVE",
"204 142 CURVE SMOOTH",
"204 296 LINE"
);
}
);
};
components = (
{
name = L;
},
{
name = slashshortcomb.case;
transform = "{1, 0, 0, 1, 0, 17}";
}
);
layerId = "0276F023-BC64-4582-8657-390FE5DB601E";
width = 559;
}
);
widthMetricsKey = L;
note = Lslash;
rightMetricsKey = L;
unicode = 0141;
},
{
color = 3;
glyphname = M;
lastChange = "2018-11-27 13:18:45 +0000";
layers = (
{
anchors = (
{
name = bottom;
position = "{449, 0}";
},
{
name = top;
position = "{449, 658}";
}
);
background = {
paths = (
{
closed = 1;
nodes = (
"138 657 OFFCURVE",
"104 659 OFFCURVE",
"63 661 OFFCURVE",
"46 662 QCURVE",
"42 658 OFFCURVE",
"42 647 QCURVE SMOOTH",
"42 633 OFFCURVE",
"46 633 QCURVE SMOOTH",
"60 633 OFFCURVE",
"122 620 OFFCURVE",
"125 612 QCURVE",
"129 597 OFFCURVE",
"129 572 QCURVE SMOOTH",
"129 556 OFFCURVE",
"125 441 OFFCURVE",
"120 239 OFFCURVE",
"118 135 QCURVE SMOOTH",
"116 66 OFFCURVE",
"100 48 QCURVE",
"91 39 OFFCURVE",
"36 26 OFFCURVE",
"22 26 QCURVE SMOOTH",
"17 26 OFFCURVE",
"17 12 QCURVE SMOOTH",
"17 2 OFFCURVE",
"22 -3 QCURVE",
"137 2 OFFCURVE",
"139 2 QCURVE SMOOTH",
"155 2 OFFCURVE",
"255 -3 QCURVE",
"257 3 OFFCURVE",
"257 11 QCURVE SMOOTH",
"257 26 OFFCURVE",
"253 26 QCURVE SMOOTH",
"243 26 OFFCURVE",
"182 41 OFFCURVE",
"170 57 OFFCURVE",
"170 75 QCURVE SMOOTH",
"170 77 OFFCURVE",
"176 238 OFFCURVE",
"184 486 OFFCURVE",
"186 582 QCURVE",
"415 0 LINE",
"421 -2 OFFCURVE",
"424 -2 QCURVE SMOOTH",
"442 -2 OFFCURVE",
"461 41 QCURVE SMOOTH",
"670 541 LINE SMOOTH",
"673 548 OFFCURVE",
"675 548 QCURVE SMOOTH",
"680 548 OFFCURVE",
"689 505 OFFCURVE",
"690 489 QCURVE SMOOTH",
"702 137 LINE",
"702 84 LINE SMOOTH",
"702 48 OFFCURVE",
"690 41 QCURVE SMOOTH",
"681 36 OFFCURVE",
"640 26 OFFCURVE",
"630 26 QCURVE SMOOTH",
"626 26 OFFCURVE",
"626 13 QCURVE SMOOTH",
"626 1 OFFCURVE",
"630 -3 QCURVE",
"745 2 OFFCURVE",
"750 2 QCURVE SMOOTH",
"769 2 OFFCURVE",
"869 -3 QCURVE",
"871 3 OFFCURVE",
"871 12 QCURVE SMOOTH",
"871 26 OFFCURVE",
"867 26 QCURVE SMOOTH",
"856 26 OFFCURVE",
"804 39 OFFCURVE",
"800 48 QCURVE",
"786 83 OFFCURVE",
"785 140 QCURVE SMOOTH",
"776 530 OFFCURVE",
"776 546 QCURVE SMOOTH",
"776 604 OFFCURVE",
"788 613 QCURVE SMOOTH",
"797 620 OFFCURVE",
"833 633 OFFCURVE",
"844 633 QCURVE SMOOTH",
"846 633 LINE SMOOTH",
"851 633 OFFCURVE",
"851 647 QCURVE SMOOTH",
"851 653 OFFCURVE",
"848 662 QCURVE",
"798 658 OFFCURVE",
"736 658 QCURVE SMOOTH",
"717 658 OFFCURVE",
"653 662 QCURVE",
"613 542 OFFCURVE",
"613 542 QCURVE",
"555 393 OFFCURVE",
"457 163 QCURVE",
"456 159 OFFCURVE",
"452 159 QCURVE SMOOTH",
"449 159 OFFCURVE",
"448 161 QCURVE",
"257 639 OFFCURVE",
"250 662 QCURVE",
"195 657 OFFCURVE",
"158 657 QCURVE SMOOTH"
);
}
);
};
layerId = "0276F023-BC64-4582-8657-390FE5DB601E";
paths = (
{
closed = 1;
nodes = (
"72 0 OFFCURVE",
"121 2 OFFCURVE",
"142 2 CURVE SMOOTH",
"157 2 OFFCURVE",
"191 0 OFFCURVE",
"258 -3 CURVE",
"259 1 OFFCURVE",
"260 6 OFFCURVE",
"260 11 CURVE SMOOTH",
"260 21 OFFCURVE",
"259 26 OFFCURVE",
"256 26 CURVE SMOOTH",
"204 33 OFFCURVE",
"182 42 OFFCURVE",
"177 52 CURVE SMOOTH",
"173 60 OFFCURVE",
"173 79 OFFCURVE",
"174 102 CURVE SMOOTH",
"191 631 LINE",
"169 628 LINE",
"414 10 LINE SMOOTH",
"417 3 OFFCURVE",
"422 -2 OFFCURVE",
"427 -2 CURVE SMOOTH",
"439 -2 OFFCURVE",
"448 3 OFFCURVE",
"457 24 CURVE SMOOTH",
"702 613 LINE",
"678 598 LINE",
"685 578 OFFCURVE",
"691 540 OFFCURVE",
"692 519 CURVE SMOOTH",
"705 124 LINE SMOOTH",
"707 60 OFFCURVE",
"701 46 OFFCURVE",
"693 41 CURVE SMOOTH",
"681 34 OFFCURVE",
"646 26 OFFCURVE",
"633 26 CURVE SMOOTH",
"630 26 OFFCURVE",
"629 22 OFFCURVE",
"629 13 CURVE SMOOTH",
"629 5 OFFCURVE",
"630 0 OFFCURVE",
"633 -3 CURVE",
"710 0 OFFCURVE",
"750 2 OFFCURVE",
"753 2 CURVE SMOOTH",
"766 2 OFFCURVE",
"805 0 OFFCURVE",
"872 -3 CURVE",
"873 1 OFFCURVE",
"874 6 OFFCURVE",
"874 12 CURVE SMOOTH",
"874 21 OFFCURVE",
"873 26 OFFCURVE",
"870 26 CURVE SMOOTH",
"855 26 OFFCURVE",
"808 36 OFFCURVE",
"803 48 CURVE",
"794 71 OFFCURVE",
"789 102 OFFCURVE",
"788 140 CURVE SMOOTH",
"779 546 LINE SMOOTH",
"778 585 OFFCURVE",
"783 607 OFFCURVE",
"791 613 CURVE SMOOTH",
"801 621 OFFCURVE",
"830 633 OFFCURVE",
"849 633 CURVE SMOOTH",
"852 633 OFFCURVE",
"854 638 OFFCURVE",
"854 647 CURVE SMOOTH",
"854 651 OFFCURVE",
"853 656 OFFCURVE",
"851 662 CURVE",
"818 659 OFFCURVE",
"780 658 OFFCURVE",
"739 658 CURVE SMOOTH",
"726 658 OFFCURVE",
"701 659 OFFCURVE",
"658 662 CURVE",
"642 610 OFFCURVE",
"631 578 OFFCURVE",
"616 542 CURVE SMOOTH",
"461 163 LINE",
"460 160 OFFCURVE",
"458 159 OFFCURVE",
"455 159 CURVE SMOOTH",
"453 159 OFFCURVE",
"451 161 OFFCURVE",
"449 166 CURVE SMOOTH",
"302 536 LINE SMOOTH",
"276 601 OFFCURVE",
"260 645 OFFCURVE",
"253 662 CURVE",
"216 659 OFFCURVE",
"186 657 OFFCURVE",
"161 657 CURVE SMOOTH",
"140 657 OFFCURVE",
"69 661 OFFCURVE",
"49 662 CURVE",
"46 659 OFFCURVE",
"45 654 OFFCURVE",
"45 647 CURVE SMOOTH",
"45 638 OFFCURVE",
"46 633 OFFCURVE",
"49 633 CURVE SMOOTH",
"68 633 OFFCURVE",
"124 623 OFFCURVE",
"128 612 CURVE",
"131 602 OFFCURVE",
"132 589 OFFCURVE",
"132 572 CURVE SMOOTH",
"132 549 OFFCURVE",
"128 440 OFFCURVE",
"126 340 CURVE SMOOTH",
"124 273 OFFCURVE",
"122 204 OFFCURVE",
"121 135 CURVE SMOOTH",
"120 89 OFFCURVE",
"114 60 OFFCURVE",
"103 48 CURVE",
"91 36 OFFCURVE",
"44 26 OFFCURVE",
"25 26 CURVE SMOOTH",
"22 26 OFFCURVE",
"20 21 OFFCURVE",
"20 12 CURVE SMOOTH",
"20 5 OFFCURVE",
"22 0 OFFCURVE",
"25 -3 CURVE"
);
}
);
width = 912;
}
);
note = M;
unicode = 004D;
},
{
color = 3;
glyphname = N;
lastChange = "2018-12-07 12:02:24 +0000";
layers = (
{
anchors = (
{
name = bottom;
position = "{367, 0}";
},
{
name = top;
position = "{367, 658}";
}
);
background = {
paths = (
{
closed = 1;
nodes = (
"554 213 LINE SMOOTH",
"554 189 OFFCURVE",
"551 172 QCURVE",
"249 594 OFFCURVE",
"212 662 QCURVE",
"184 660 OFFCURVE",
"132 660 QCURVE SMOOTH",
"108 660 OFFCURVE",
"30 662 QCURVE",
"26 658 OFFCURVE",
"26 633 OFFCURVE",
"30 633 QCURVE SMOOTH",
"44 633 OFFCURVE",
"106 620 OFFCURVE",
"109 612 QCURVE",
"116 586 OFFCURVE",
"116 537 QCURVE SMOOTH",
"116 144 LINE SMOOTH",
"116 76 OFFCURVE",
"106 50 QCURVE",
"103 41 OFFCURVE",
"40 26 OFFCURVE",
"26 26 QCURVE SMOOTH",
"23 26 OFFCURVE",
"23 12 QCURVE SMOOTH",
"23 0 OFFCURVE",
"26 -3 QCURVE",
"141 2 LINE",
"156 2 OFFCURVE",
"256 -3 QCURVE",
"258 2 OFFCURVE",
"257 26 OFFCURVE",
"254 26 QCURVE SMOOTH",
"244 26 OFFCURVE",
"181 41 OFFCURVE",
"179 48 QCURVE SMOOTH",
"172 75 OFFCURVE",
"172 141 QCURVE SMOOTH",
"172 568 LINE",
"560 18 LINE SMOOTH",
"576 -5 OFFCURVE",
"593 -5 QCURVE SMOOTH",
"608 -5 OFFCURVE",
"612 -1 QCURVE",
"609 77 OFFCURVE",
"609 139 QCURVE SMOOTH",
"609 519 LINE SMOOTH",
"609 581 OFFCURVE",
"617 612 QCURVE SMOOTH",
"619 619 OFFCURVE",
"686 635 OFFCURVE",
"696 635 QCURVE SMOOTH",
"700 635 OFFCURVE",
"700 647 QCURVE SMOOTH",
"700 656 OFFCURVE",
"698 662 QCURVE",
"691 662 OFFCURVE",
"612 656 OFFCURVE",
"586 656 QCURVE SMOOTH",
"559 656 OFFCURVE",
"481 661 OFFCURVE",
"468 662 QCURVE",
"464 658 OFFCURVE",
"464 635 OFFCURVE",
"468 635 QCURVE SMOOTH",
"481 635 OFFCURVE",
"544 620 OFFCURVE",
"547 612 QCURVE",
"554 585 OFFCURVE",
"554 524 QCURVE SMOOTH"
);
}
);
};
layerId = "0276F023-BC64-4582-8657-390FE5DB601E";
paths = (
{
closed = 1;
nodes = (
"606 -5 OFFCURVE",
"612 -4 OFFCURVE",
"615 -1 CURVE",
"613 51 OFFCURVE",
"612 98 OFFCURVE",
"612 139 CURVE SMOOTH",
"612 519 LINE SMOOTH",
"612 560 OFFCURVE",
"615 591 OFFCURVE",
"620 612 CURVE SMOOTH",
"622 621 OFFCURVE",
"686 635 OFFCURVE",
"699 635 CURVE SMOOTH",
"702 635 OFFCURVE",
"703 639 OFFCURVE",
"703 647 CURVE SMOOTH",
"703 653 OFFCURVE",
"702 658 OFFCURVE",
"701 662 CURVE",
"671 660 OFFCURVE",
"609 656 OFFCURVE",
"589 656 CURVE SMOOTH",
"553 656 OFFCURVE",
"488 661 OFFCURVE",
"471 662 CURVE",
"468 659 OFFCURVE",
"467 654 OFFCURVE",
"467 647 CURVE SMOOTH",
"467 639 OFFCURVE",
"468 635 OFFCURVE",
"471 635 CURVE SMOOTH",
"488 635 OFFCURVE",
"546 623 OFFCURVE",
"550 612 CURVE",
"555 594 OFFCURVE",
"557 565 OFFCURVE",
"557 524 CURVE SMOOTH",
"557 213 LINE SMOOTH",
"557 185 OFFCURVE",
"554 165 OFFCURVE",
"551 151 CURVE",
"585 128 LINE",
"280 560 LINE SMOOTH",
"243 613 OFFCURVE",
"224 646 OFFCURVE",
"215 662 CURVE",
"196 661 OFFCURVE",
"170 660 OFFCURVE",
"135 660 CURVE SMOOTH",
"119 660 OFFCURVE",
"85 661 OFFCURVE",
"33 662 CURVE",
"30 659 OFFCURVE",
"29 654 OFFCURVE",
"29 646 CURVE SMOOTH",
"29 637 OFFCURVE",
"30 633 OFFCURVE",
"33 633 CURVE SMOOTH",
"52 633 OFFCURVE",
"108 623 OFFCURVE",
"112 612 CURVE",
"117 595 OFFCURVE",
"119 570 OFFCURVE",
"119 537 CURVE SMOOTH",
"119 144 LINE SMOOTH",
"119 99 OFFCURVE",
"115 67 OFFCURVE",
"109 50 CURVE SMOOTH",
"105 38 OFFCURVE",
"48 26 OFFCURVE",
"29 26 CURVE SMOOTH",
"27 26 OFFCURVE",
"26 21 OFFCURVE",
"26 12 CURVE SMOOTH",
"26 4 OFFCURVE",
"27 -1 OFFCURVE",
"29 -3 CURVE",
"67 -1 OFFCURVE",
"106 2 OFFCURVE",
"141 2 CURVE SMOOTH",
"154 2 OFFCURVE",
"192 0 OFFCURVE",
"259 -3 CURVE",
"260 0 OFFCURVE",
"261 5 OFFCURVE",
"261 10 CURVE SMOOTH",
"261 18 OFFCURVE",
"259 26 OFFCURVE",
"257 26 CURVE SMOOTH",
"244 26 OFFCURVE",
"185 39 OFFCURVE",
"182 48 CURVE SMOOTH",
"176 66 OFFCURVE",
"175 97 OFFCURVE",
"175 141 CURVE SMOOTH",
"175 613 LINE",
"149 605 LINE",
"563 18 LINE SMOOTH",
"574 3 OFFCURVE",
"585 -5 OFFCURVE",
"596 -5 CURVE SMOOTH"
);
}
);
width = 731;
}
);
note = N;
unicode = 004E;
},
{
color = 3;
glyphname = Eng;
lastChange = "2018-11-27 13:18:45 +0000";
layers = (
{
background = {
paths = (
{
closed = 1;
nodes = (
"609 139 LINE",
"609 519 LINE SMOOTH",
"609 560 OFFCURVE",
"612 591 OFFCURVE",
"617 612 CURVE SMOOTH",
"619 621 OFFCURVE",
"683 635 OFFCURVE",
"696 635 CURVE SMOOTH",
"699 635 OFFCURVE",
"700 639 OFFCURVE",
"700 647 CURVE SMOOTH",
"700 653 OFFCURVE",
"699 658 OFFCURVE",
"698 662 CURVE",
"668 660 OFFCURVE",
"606 656 OFFCURVE",
"586 656 CURVE SMOOTH",
"550 656 OFFCURVE",
"485 661 OFFCURVE",
"468 662 CURVE",
"465 659 OFFCURVE",
"464 654 OFFCURVE",
"464 647 CURVE SMOOTH",
"464 639 OFFCURVE",
"465 635 OFFCURVE",
"468 635 CURVE SMOOTH",
"485 635 OFFCURVE",
"543 623 OFFCURVE",
"547 612 CURVE",
"552 594 OFFCURVE",
"554 565 OFFCURVE",
"554 524 CURVE SMOOTH",
"554 213 LINE SMOOTH",
"554 185 OFFCURVE",
"551 165 OFFCURVE",
"548 151 CURVE",
"582 128 LINE",
"277 560 LINE SMOOTH",
"240 613 OFFCURVE",
"221 646 OFFCURVE",
"212 662 CURVE",
"193 661 OFFCURVE",
"167 660 OFFCURVE",
"132 660 CURVE SMOOTH",
"116 660 OFFCURVE",
"82 661 OFFCURVE",
"30 662 CURVE",
"27 659 OFFCURVE",
"26 654 OFFCURVE",
"26 646 CURVE SMOOTH",
"26 637 OFFCURVE",
"27 633 OFFCURVE",
"30 633 CURVE SMOOTH",
"49 633 OFFCURVE",
"105 623 OFFCURVE",
"109 612 CURVE",
"114 595 OFFCURVE",
"116 570 OFFCURVE",
"116 537 CURVE SMOOTH",
"116 144 LINE SMOOTH",
"116 99 OFFCURVE",
"112 67 OFFCURVE",
"106 50 CURVE SMOOTH",
"102 38 OFFCURVE",
"45 26 OFFCURVE",
"26 26 CURVE SMOOTH",
"24 26 OFFCURVE",
"23 21 OFFCURVE",
"23 12 CURVE SMOOTH",
"23 4 OFFCURVE",
"24 -1 OFFCURVE",
"26 -3 CURVE",
"64 -1 OFFCURVE",
"103 2 OFFCURVE",
"138 2 CURVE SMOOTH",
"151 2 OFFCURVE",
"189 0 OFFCURVE",
"256 -3 CURVE",
"257 0 OFFCURVE",
"258 5 OFFCURVE",
"258 10 CURVE SMOOTH",
"258 18 OFFCURVE",
"256 26 OFFCURVE",
"254 26 CURVE SMOOTH",
"241 26 OFFCURVE",
"182 39 OFFCURVE",
"179 48 CURVE SMOOTH",
"173 66 OFFCURVE",
"172 97 OFFCURVE",
"172 141 CURVE SMOOTH",
"172 613 LINE",
"146 605 LINE",
"560 18 LINE"
);
},
{
closed = 1;
nodes = (
"555 72 LINE",
"555 47 LINE SMOOTH",
"555 -21 OFFCURVE",
"525 -167 OFFCURVE",
"464 -167 CURVE SMOOTH",
"455 -167 OFFCURVE",
"446 -160 OFFCURVE",
"431 -146 CURVE SMOOTH",
"415 -131 OFFCURVE",
"396 -124 OFFCURVE",
"383 -124 CURVE SMOOTH",
"351 -124 OFFCURVE",
"328 -144 OFFCURVE",
"328 -172 CURVE SMOOTH",
"328 -206 OFFCURVE",
"356 -227 OFFCURVE",
"412 -227 CURVE SMOOTH",
"530 -227 OFFCURVE",
"609 -101 OFFCURVE",
"609 91 CURVE SMOOTH",
"609 153 LINE"
);
}
);
};
layerId = "0276F023-BC64-4582-8657-390FE5DB601E";
paths = (
{
closed = 1;
nodes = (
"533 -227 OFFCURVE",
"612 -101 OFFCURVE",
"612 91 CURVE SMOOTH",
"612 519 LINE SMOOTH",
"612 560 OFFCURVE",
"615 591 OFFCURVE",
"620 612 CURVE SMOOTH",
"622 621 OFFCURVE",
"686 635 OFFCURVE",
"699 635 CURVE SMOOTH",
"702 635 OFFCURVE",
"703 639 OFFCURVE",
"703 647 CURVE SMOOTH",
"703 653 OFFCURVE",
"702 658 OFFCURVE",
"701 662 CURVE",
"671 660 OFFCURVE",
"609 656 OFFCURVE",
"589 656 CURVE SMOOTH",
"553 656 OFFCURVE",
"488 661 OFFCURVE",
"471 662 CURVE",
"468 659 OFFCURVE",
"467 654 OFFCURVE",
"467 647 CURVE SMOOTH",
"467 639 OFFCURVE",
"468 635 OFFCURVE",
"471 635 CURVE SMOOTH",
"488 635 OFFCURVE",
"546 623 OFFCURVE",
"550 612 CURVE",
"555 594 OFFCURVE",
"557 565 OFFCURVE",
"557 524 CURVE SMOOTH",
"557 213 LINE SMOOTH",
"557 185 OFFCURVE",
"554 165 OFFCURVE",
"551 151 CURVE",
"585 128 LINE",
"280 560 LINE SMOOTH",
"243 613 OFFCURVE",
"224 646 OFFCURVE",
"215 662 CURVE",
"196 661 OFFCURVE",
"170 660 OFFCURVE",
"135 660 CURVE SMOOTH",
"119 660 OFFCURVE",
"85 661 OFFCURVE",
"33 662 CURVE",
"30 659 OFFCURVE",
"29 654 OFFCURVE",
"29 646 CURVE SMOOTH",
"29 637 OFFCURVE",
"30 633 OFFCURVE",
"33 633 CURVE SMOOTH",
"52 633 OFFCURVE",
"108 623 OFFCURVE",
"112 612 CURVE",
"117 595 OFFCURVE",
"119 570 OFFCURVE",
"119 537 CURVE SMOOTH",
"119 144 LINE SMOOTH",
"119 99 OFFCURVE",
"115 67 OFFCURVE",
"109 50 CURVE SMOOTH",
"105 38 OFFCURVE",
"48 26 OFFCURVE",
"29 26 CURVE SMOOTH",
"27 26 OFFCURVE",
"26 21 OFFCURVE",
"26 12 CURVE SMOOTH",
"26 4 OFFCURVE",
"27 -1 OFFCURVE",
"29 -3 CURVE",
"67 -1 OFFCURVE",
"106 2 OFFCURVE",
"141 2 CURVE SMOOTH",
"154 2 OFFCURVE",
"192 0 OFFCURVE",
"259 -3 CURVE",
"260 0 OFFCURVE",
"261 5 OFFCURVE",
"261 10 CURVE SMOOTH",
"261 18 OFFCURVE",
"259 26 OFFCURVE",
"257 26 CURVE SMOOTH",
"244 26 OFFCURVE",
"185 39 OFFCURVE",
"182 48 CURVE SMOOTH",
"176 66 OFFCURVE",
"175 97 OFFCURVE",
"175 141 CURVE SMOOTH",
"175 613 LINE",
"149 605 LINE",
"573 4 LINE",
"558 72 LINE",
"558 47 LINE SMOOTH",
"558 -21 OFFCURVE",
"528 -167 OFFCURVE",
"467 -167 CURVE SMOOTH",
"458 -167 OFFCURVE",
"449 -160 OFFCURVE",
"434 -146 CURVE SMOOTH",
"418 -131 OFFCURVE",
"399 -124 OFFCURVE",
"386 -124 CURVE SMOOTH",
"354 -124 OFFCURVE",
"331 -144 OFFCURVE",
"331 -172 CURVE SMOOTH",
"331 -206 OFFCURVE",
"359 -227 OFFCURVE",
"415 -227 CURVE SMOOTH"
);
}
);
width = 731;
}
);
leftMetricsKey = N;
widthMetricsKey = N;
note = Eng;
unicode = 014A;
},
{
color = 3;
glyphname = O;
lastChange = "2018-11-27 13:19:50 +0000";
layers = (
{
anchors = (
{
name = bottom;
position = "{371, 0}";
},
{
name = center;
position = "{371, 329}";
},
{
name = ogonek;
position = "{662, 10}";
},
{
name = top;
position = "{371, 658}";
},
{
name = topleft;
position = "{27, 658}";
},
{
name = topright;
position = "{715, 658}";
}
);
background = {
paths = (
{
closed = 1;
nodes = (
"426 625 OFFCURVE",
"536 530 OFFCURVE",
"588 389 OFFCURVE",
"588 309 QCURVE SMOOTH",
"588 239 OFFCURVE",
"543 116 OFFCURVE",
"447 33 OFFCURVE",
"383 33 QCURVE SMOOTH",
"309 33 OFFCURVE",
"199 128 OFFCURVE",
"147 270 OFFCURVE",
"147 350 QCURVE SMOOTH",
"147 459 OFFCURVE",
"257 625 OFFCURVE",
"352 625 QCURVE SMOOTH"
);
},
{
closed = 1;
nodes = (
"499 -10 OFFCURVE",
"687 188 OFFCURVE",
"687 468 OFFCURVE",
"499 667 OFFCURVE",
"235 667 OFFCURVE",
"48 468 OFFCURVE",
"48 188 OFFCURVE",
"235 -10 OFFCURVE"
);
}
);
};
layerId = "0276F023-BC64-4582-8657-390FE5DB601E";
paths = (
{
closed = 1;
nodes = (
"552 -10 OFFCURVE",
"690 145 OFFCURVE",
"690 327 CURVE SMOOTH",
"690 515 OFFCURVE",
"546 667 OFFCURVE",
"368 667 CURVE SMOOTH",
"195 667 OFFCURVE",
"51 516 OFFCURVE",
"51 326 CURVE SMOOTH",
"51 142 OFFCURVE",
"194 -10 OFFCURVE",
"369 -10 CURVE SMOOTH"
);
},
{
closed = 1;
nodes = (
"239 33 OFFCURVE",
"150 181 OFFCURVE",
"150 350 CURVE SMOOTH",
"150 495 OFFCURVE",
"228 625 OFFCURVE",
"353 625 CURVE SMOOTH",
"501 625 OFFCURVE",
"591 478 OFFCURVE",
"591 309 CURVE SMOOTH",
"591 167 OFFCURVE",
"515 33 OFFCURVE",
"386 33 CURVE SMOOTH"
);
}
);
width = 741;
}
);
note = O;
unicode = 004F;
},
{
color = 6;
glyphname = Ocircumflexacute;
lastChange = "2018-11-29 13:31:51 +0000";
layers = (
{
background = {
paths = (
{
closed = 1;
nodes = (
"440 798 OFFCURVE",
"449 789 OFFCURVE",
"452 789 QCURVE SMOOTH",
"462 789 OFFCURVE",
"582 848 OFFCURVE",
"582 859 QCURVE SMOOTH",
"582 865 OFFCURVE",
"551 882 OFFCURVE",
"533 882 QCURVE SMOOTH",
"521 882 OFFCURVE",
"517 879 QCURVE SMOOTH",
"502 868 OFFCURVE",
"465 832 OFFCURVE",
"440 804 OFFCURVE",
"440 802 QCURVE SMOOTH"
);
},
{
closed = 1;
nodes = (
"477 698 OFFCURVE",
"477 718 QCURVE SMOOTH",
"477 719 OFFCURVE",
"459 733 OFFCURVE",
"428 760 OFFCURVE",
"415 772 QCURVE",
"395 792 OFFCURVE",
"374 820 QCURVE",
"369 828 OFFCURVE",
"363 828 QCURVE SMOOTH",
"360 828 OFFCURVE",
"353 820 QCURVE",
"339 800 OFFCURVE",
"311 774 QCURVE SMOOTH",
"297 761 OFFCURVE",
"254 722 OFFCURVE",
"250 718 QCURVE",
"250 698 OFFCURVE",
"260 698 QCURVE SMOOTH",
"269 698 OFFCURVE",
"339 738 OFFCURVE",
"363 756 QCURVE",
"449 698 OFFCURVE",
"468 698 QCURVE SMOOTH"
);
},
{
closed = 1;
nodes = (
"422 625 OFFCURVE",
"532 530 OFFCURVE",
"584 389 OFFCURVE",
"584 309 QCURVE SMOOTH",
"584 239 OFFCURVE",
"539 116 OFFCURVE",
"443 33 OFFCURVE",
"379 33 QCURVE SMOOTH",
"305 33 OFFCURVE",
"195 128 OFFCURVE",
"143 270 OFFCURVE",
"143 350 QCURVE SMOOTH",
"143 459 OFFCURVE",
"253 625 OFFCURVE",
"348 625 QCURVE SMOOTH"
);
},
{
closed = 1;
nodes = (
"495 -10 OFFCURVE",
"683 188 OFFCURVE",
"683 468 OFFCURVE",
"495 667 OFFCURVE",
"231 667 OFFCURVE",
"44 468 OFFCURVE",
"44 188 OFFCURVE",
"231 -10 OFFCURVE"
);
}
);
};
components = (
{
name = O;
},
{
name = circumflexcomb_acutecomb.case;
transform = "{1, 0, 0, 1, 221, 0}";
}
);
layerId = "0276F023-BC64-4582-8657-390FE5DB601E";
width = 741;
}
);
note = uni1ED0;
unicode = 1ED0;
},
{
color = 6;
glyphname = Ocircumflexgrave;
lastChange = "2018-11-29 13:31:51 +0000";
layers = (
{
background = {
paths = (
{
closed = 1;
nodes = (
"388 836 OFFCURVE",
"499 761 OFFCURVE",
"508 761 QCURVE SMOOTH",
"511 761 OFFCURVE",
"522 769 OFFCURVE",
"522 772 QCURVE SMOOTH",
"522 776 OFFCURVE",
"475 840 OFFCURVE",
"455 859 QCURVE SMOOTH",
"450 864 OFFCURVE",
"432 864 QCURVE SMOOTH",
"416 864 OFFCURVE",
"388 852 OFFCURVE",
"388 847 QCURVE SMOOTH"
);
},
{
closed = 1;
nodes = (
"422 625 OFFCURVE",
"532 530 OFFCURVE",
"584 389 OFFCURVE",
"584 309 QCURVE SMOOTH",
"584 239 OFFCURVE",
"539 116 OFFCURVE",
"443 33 OFFCURVE",
"379 33 QCURVE SMOOTH",
"305 33 OFFCURVE",
"195 128 OFFCURVE",
"143 270 OFFCURVE",
"143 350 QCURVE SMOOTH",
"143 459 OFFCURVE",
"253 625 OFFCURVE",
"348 625 QCURVE SMOOTH"
);
},
{
closed = 1;
nodes = (
"495 -10 OFFCURVE",
"683 188 OFFCURVE",
"683 468 OFFCURVE",
"495 667 OFFCURVE",
"231 667 OFFCURVE",
"44 468 OFFCURVE",
"44 188 OFFCURVE",
"231 -10 OFFCURVE"
);
},
{
closed = 1;
nodes = (
"460 698 OFFCURVE",
"460 718 QCURVE SMOOTH",
"460 719 OFFCURVE",
"442 733 OFFCURVE",
"411 760 OFFCURVE",
"398 772 QCURVE",
"378 792 OFFCURVE",
"357 820 QCURVE",
"352 828 OFFCURVE",
"346 828 QCURVE SMOOTH",
"343 828 OFFCURVE",
"336 820 QCURVE",
"322 800 OFFCURVE",
"294 774 QCURVE SMOOTH",
"280 761 OFFCURVE",
"237 722 OFFCURVE",
"233 718 QCURVE",
"233 698 OFFCURVE",
"243 698 QCURVE SMOOTH",
"252 698 OFFCURVE",
"322 738 OFFCURVE",
"346 756 QCURVE",
"432 698 OFFCURVE",
"451 698 QCURVE SMOOTH"
);
}
);
};
components = (
{
name = O;
},
{
name = circumflexcomb_gravecomb.case;
transform = "{1, 0, 0, 1, 221, 0}";
}
);
layerId = "0276F023-BC64-4582-8657-390FE5DB601E";
width = 741;
}
);
note = uni1ED2;
unicode = 1ED2;
},
{
color = 6;
glyphname = Ocircumflexhookabove;
lastChange = "2018-11-29 13:31:51 +0000";
layers = (
{
background = {
paths = (
{
closed = 1;
nodes = (
"990 750 LINE"
);
},
{
closed = 1;
nodes = (
"506 873 OFFCURVE",
"506 852 QCURVE SMOOTH",
"506 835 OFFCURVE",
"486 820 QCURVE",
"484 818 OFFCURVE",
"456 799 OFFCURVE",
"446 789 OFFCURVE",
"446 784 QCURVE SMOOTH",
"446 772 OFFCURVE",
"465 756 OFFCURVE",
"477 756 QCURVE SMOOTH",
"493 756 OFFCURVE",
"493 762 QCURVE",
"488 770 OFFCURVE",
"488 776 QCURVE SMOOTH",
"488 779 OFFCURVE",
"492 785 OFFCURVE",
"495 788 OFFCURVE",
"505 793 OFFCURVE",
"507 795 QCURVE",
"517 802 LINE SMOOTH",
"527 809 OFFCURVE",
"532 814 OFFCURVE",
"547 827 OFFCURVE",
"553 836 OFFCURVE",
"559 850 OFFCURVE",
"559 857 QCURVE SMOOTH",
"559 882 OFFCURVE",
"523 909 OFFCURVE",
"495 909 QCURVE SMOOTH",
"464 909 OFFCURVE",
"409 880 OFFCURVE",
"399 866 QCURVE",
"399 837 OFFCURVE",
"416 837 QCURVE SMOOTH",
"427 837 OFFCURVE",
"463 873 OFFCURVE",
"477 873 QCURVE SMOOTH"
);
},
{
closed = 1;
nodes = (
"451 698 OFFCURVE",
"451 718 QCURVE SMOOTH",
"451 719 OFFCURVE",
"433 733 OFFCURVE",
"402 760 OFFCURVE",
"389 772 QCURVE",
"369 792 OFFCURVE",
"348 820 QCURVE",
"343 828 OFFCURVE",
"337 828 QCURVE SMOOTH",
"334 828 OFFCURVE",
"327 820 QCURVE",
"313 800 OFFCURVE",
"285 774 QCURVE SMOOTH",
"271 761 OFFCURVE",
"228 722 OFFCURVE",
"224 718 QCURVE",
"224 698 OFFCURVE",
"234 698 QCURVE SMOOTH",
"243 698 OFFCURVE",
"313 738 OFFCURVE",
"337 756 QCURVE",
"423 698 OFFCURVE",
"442 698 QCURVE SMOOTH"
);
},
{
closed = 1;
nodes = (
"422 625 OFFCURVE",
"532 530 OFFCURVE",
"584 389 OFFCURVE",
"584 309 QCURVE SMOOTH",
"584 239 OFFCURVE",
"539 116 OFFCURVE",
"443 33 OFFCURVE",
"379 33 QCURVE SMOOTH",
"305 33 OFFCURVE",
"195 128 OFFCURVE",
"143 270 OFFCURVE",
"143 350 QCURVE SMOOTH",
"143 459 OFFCURVE",
"253 625 OFFCURVE",
"348 625 QCURVE SMOOTH"
);
},
{
closed = 1;
nodes = (
"495 -10 OFFCURVE",
"683 188 OFFCURVE",
"683 468 OFFCURVE",
"495 667 OFFCURVE",
"231 667 OFFCURVE",
"44 468 OFFCURVE",
"44 188 OFFCURVE",
"231 -10 OFFCURVE"
);
}
);
};
components = (
{
name = O;
},
{
name = circumflexcomb_hookabovecomb.case;
transform = "{1, 0, 0, 1, 221, 0}";
}
);
layerId = "0276F023-BC64-4582-8657-390FE5DB601E";
width = 741;
}
);
note = uni1ED4;
unicode = 1ED4;
},
{
color = 6;
glyphname = Ocircumflextilde;
lastChange = "2018-11-29 13:31:51 +0000";
layers = (
{
background = {
paths = (
{
closed = 1;
nodes = (
"384 865 OFFCURVE",
"305 906 OFFCURVE",
"278 906 QCURVE SMOOTH",
"255 906 OFFCURVE",
"202 870 OFFCURVE",
"202 843 QCURVE SMOOTH",
"202 828 OFFCURVE",
"211 828 QCURVE SMOOTH",
"215 828 OFFCURVE",
"217 829 QCURVE",
"233 862 OFFCURVE",
"264 862 QCURVE SMOOTH",
"290 862 OFFCURVE",
"371 821 OFFCURVE",
"399 821 QCURVE SMOOTH",
"421 821 OFFCURVE",
"475 861 OFFCURVE",
"475 888 QCURVE SMOOTH",
"475 903 OFFCURVE",
"466 903 QCURVE SMOOTH",
"462 903 OFFCURVE",
"460 902 QCURVE",
"442 865 OFFCURVE",
"411 865 QCURVE SMOOTH"
);
},
{
closed = 1;
nodes = (
"452 693 OFFCURVE",
"452 711 QCURVE SMOOTH",
"452 712 OFFCURVE",
"434 725 OFFCURVE",
"403 749 OFFCURVE",
"390 760 QCURVE",
"367 781 OFFCURVE",
"349 804 QCURVE",
"345 811 OFFCURVE",
"338 811 QCURVE SMOOTH",
"335 811 OFFCURVE",
"328 804 QCURVE",
"313 786 OFFCURVE",
"286 762 QCURVE SMOOTH",
"271 749 OFFCURVE",
"229 715 OFFCURVE",
"225 711 QCURVE",
"225 693 OFFCURVE",
"235 693 QCURVE SMOOTH",
"244 693 OFFCURVE",
"314 728 OFFCURVE",
"338 744 QCURVE",
"364 728 OFFCURVE",
"435 693 OFFCURVE",
"443 693 QCURVE SMOOTH"
);
},
{
closed = 1;
nodes = (
"422 625 OFFCURVE",
"532 530 OFFCURVE",
"584 389 OFFCURVE",
"584 309 QCURVE SMOOTH",
"584 239 OFFCURVE",
"539 116 OFFCURVE",
"443 33 OFFCURVE",
"379 33 QCURVE SMOOTH",
"305 33 OFFCURVE",
"195 128 OFFCURVE",
"143 270 OFFCURVE",
"143 350 QCURVE SMOOTH",
"143 459 OFFCURVE",
"253 625 OFFCURVE",
"348 625 QCURVE SMOOTH"
);
},
{
closed = 1;
nodes = (
"495 -10 OFFCURVE",
"683 188 OFFCURVE",
"683 468 OFFCURVE",
"495 667 OFFCURVE",
"231 667 OFFCURVE",
"44 468 OFFCURVE",
"44 188 OFFCURVE",
"231 -10 OFFCURVE"
);
}
);
};
components = (
{
name = O;
},
{
name = circumflexcomb_tildecomb.case;
transform = "{1, 0, 0, 1, 221, 0}";
}
);
layerId = "0276F023-BC64-4582-8657-390FE5DB601E";
width = 741;
}
);
note = uni1ED6;
unicode = 1ED6;
},
{
color = 3;
glyphname = Ohorn;
lastChange = "2018-11-27 13:19:58 +0000";
layers = (
{
anchors = (
{
name = bottom;
position = "{371, 0}";
},
{
name = top;
position = "{371, 658}";
}
);
background = {
paths = (
{
closed = 1;
nodes = (
"593 598 OFFCURVE",
"553 611 OFFCURVE",
"498 637 CURVE SMOOTH",
"453 657 OFFCURVE",
"410 667 OFFCURVE",
"367 667 CURVE SMOOTH",
"191 667 OFFCURVE",
"48 515 OFFCURVE",
"48 328 CURVE SMOOTH",
"48 235 OFFCURVE",
"79 155 OFFCURVE",
"142 89 CURVE SMOOTH",
"204 23 OFFCURVE",
"285 -10 OFFCURVE",
"367 -10 CURVE SMOOTH",
"449 -10 OFFCURVE",
"531 23 OFFCURVE",
"593 89 CURVE SMOOTH",
"656 155 OFFCURVE",
"687 235 OFFCURVE",
"687 328 CURVE SMOOTH",
"687 413 OFFCURVE",
"658 490 OFFCURVE",
"600 561 CURVE",
"605 561 LINE SMOOTH",
"662 561 OFFCURVE",
"720 600 OFFCURVE",
"720 653 CURVE SMOOTH",
"720 676 OFFCURVE",
"713 694 OFFCURVE",
"700 707 CURVE",
"655 707 OFFCURVE",
"632 696 OFFCURVE",
"632 674 CURVE SMOOTH",
"632 665 OFFCURVE",
"636 657 OFFCURVE",
"644 649 CURVE SMOOTH",
"652 640 OFFCURVE",
"656 634 OFFCURVE",
"656 630 CURVE SMOOTH",
"656 609 OFFCURVE",
"644 598 OFFCURVE",
"619 598 CURVE SMOOTH"
);
},
{
closed = 1;
nodes = (
"451 625 OFFCURVE",
"527 554 OFFCURVE",
"562 460 CURVE SMOOTH",
"579 413 OFFCURVE",
"588 362 OFFCURVE",
"588 309 CURVE SMOOTH",
"588 216 OFFCURVE",
"559 130 OFFCURVE",
"495 75 CURVE SMOOTH",
"463 47 OFFCURVE",
"426 33 OFFCURVE",
"383 33 CURVE SMOOTH",
"284 33 OFFCURVE",
"208 104 OFFCURVE",
"173 199 CURVE SMOOTH",
"156 246 OFFCURVE",
"147 297 OFFCURVE",
"147 350 CURVE SMOOTH",
"147 495 OFFCURVE",
"225 625 OFFCURVE",
"352 625 CURVE SMOOTH"
);
}
);
};
layerId = "0276F023-BC64-4582-8657-390FE5DB601E";
paths = (
{
closed = 1;
nodes = (
"723 676 OFFCURVE",
"710 707 OFFCURVE",
"675 707 CURVE SMOOTH",
"652 707 OFFCURVE",
"635 696 OFFCURVE",
"635 674 CURVE SMOOTH",
"635 652 OFFCURVE",
"659 643 OFFCURVE",
"659 625 CURVE SMOOTH",
"659 609 OFFCURVE",
"647 598 OFFCURVE",
"622 598 CURVE SMOOTH",
"596 598 OFFCURVE",
"556 611 OFFCURVE",
"501 637 CURVE SMOOTH",
"460 656 OFFCURVE",
"416 667 OFFCURVE",
"368 667 CURVE SMOOTH",
"194 667 OFFCURVE",
"51 515 OFFCURVE",
"51 326 CURVE SMOOTH",
"51 142 OFFCURVE",
"194 -10 OFFCURVE",
"369 -10 CURVE SMOOTH",
"552 -10 OFFCURVE",
"690 145 OFFCURVE",
"690 327 CURVE SMOOTH",
"690 429 OFFCURVE",
"648 519 OFFCURVE",
"582 582 CURVE",
"557 569 LINE",
"574 566 OFFCURVE",
"596 564 OFFCURVE",
"615 564 CURVE SMOOTH",
"677 564 OFFCURVE",
"723 600 OFFCURVE",
"723 653 CURVE SMOOTH"
);
},
{
closed = 1;
nodes = (
"239 33 OFFCURVE",
"150 181 OFFCURVE",
"150 350 CURVE SMOOTH",
"150 495 OFFCURVE",
"228 625 OFFCURVE",
"353 625 CURVE SMOOTH",
"501 625 OFFCURVE",
"591 478 OFFCURVE",
"591 309 CURVE SMOOTH",
"591 167 OFFCURVE",
"515 33 OFFCURVE",
"386 33 CURVE SMOOTH"
);
}
);
width = 741;
}
);
leftMetricsKey = O;
widthMetricsKey = O;
note = Ohorn;
unicode = 01A0;
},
{
color = 3;
glyphname = Oogonek;
lastChange = "2018-11-29 11:09:16 +0000";
layers = (
{
anchors = (
{
name = center;
position = "{371, 329}";
},
{
name = top;
position = "{371, 658}";
},
{
name = topleft;
position = "{27, 658}";
},
{
name = topright;
position = "{715, 658}";
}
);
background = {
paths = (
{
closed = 1;
nodes = (
"552 -10 OFFCURVE",
"690 145 OFFCURVE",
"690 327 CURVE SMOOTH",
"690 515 OFFCURVE",
"546 667 OFFCURVE",
"368 667 CURVE SMOOTH",
"195 667 OFFCURVE",
"51 516 OFFCURVE",
"51 326 CURVE SMOOTH",
"51 142 OFFCURVE",
"194 -10 OFFCURVE",
"369 -10 CURVE SMOOTH"
);
},
{
closed = 1;
nodes = (
"239 33 OFFCURVE",
"150 181 OFFCURVE",
"150 350 CURVE SMOOTH",
"150 495 OFFCURVE",
"228 625 OFFCURVE",
"353 625 CURVE SMOOTH",
"501 625 OFFCURVE",
"591 478 OFFCURVE",
"591 309 CURVE SMOOTH",
"591 167 OFFCURVE",
"515 33 OFFCURVE",
"386 33 CURVE SMOOTH"
);
},
{
closed = 1;
nodes = (
"462 10 LINE",
"420 14 LINE",
"402 2 LINE",
"342 -37 OFFCURVE",
"290 -95 OFFCURVE",
"290 -146 CURVE SMOOTH",
"290 -182 OFFCURVE",
"312 -223 OFFCURVE",
"361 -223 CURVE SMOOTH",
"398 -223 OFFCURVE",
"438 -204 OFFCURVE",
"466 -157 CURVE SMOOTH",
"469 -152 OFFCURVE",
"471 -146 OFFCURVE",
"471 -139 CURVE SMOOTH",
"471 -130 OFFCURVE",
"469 -126 OFFCURVE",
"466 -126 CURVE",
"450 -143 OFFCURVE",
"419 -164 OFFCURVE",
"385 -164 CURVE SMOOTH",
"354 -164 OFFCURVE",
"344 -142 OFFCURVE",
"344 -121 CURVE SMOOTH",
"344 -81 OFFCURVE",
"396 -29 OFFCURVE",
"448 2 CURVE"
);
}
);
};
layerId = "0276F023-BC64-4582-8657-390FE5DB601E";
paths = (
{
closed = 1;
nodes = (
"398 -223 OFFCURVE",
"438 -204 OFFCURVE",
"466 -157 CURVE SMOOTH",
"469 -152 OFFCURVE",
"471 -146 OFFCURVE",
"471 -139 CURVE SMOOTH",
"471 -130 OFFCURVE",
"469 -126 OFFCURVE",
"466 -126 CURVE",
"450 -143 OFFCURVE",
"419 -164 OFFCURVE",
"385 -164 CURVE SMOOTH",
"354 -164 OFFCURVE",
"344 -142 OFFCURVE",
"344 -121 CURVE SMOOTH",
"344 -81 OFFCURVE",
"395 -26 OFFCURVE",
"491 15 CURVE SMOOTH",
"610 66 OFFCURVE",
"690 189 OFFCURVE",
"690 327 CURVE SMOOTH",
"690 515 OFFCURVE",
"546 667 OFFCURVE",
"368 667 CURVE SMOOTH",
"195 667 OFFCURVE",
"51 516 OFFCURVE",
"51 326 CURVE SMOOTH",
"51 142 OFFCURVE",
"194 -10 OFFCURVE",
"369 -10 CURVE SMOOTH",
"387 -10 OFFCURVE",
"406 -9 OFFCURVE",
"424 -5 CURVE",
"423 10 LINE",
"344 -30 OFFCURVE",
"290 -92 OFFCURVE",
"290 -146 CURVE SMOOTH",
"290 -182 OFFCURVE",
"312 -223 OFFCURVE",
"361 -223 CURVE SMOOTH"
);
},
{
closed = 1;
nodes = (
"239 33 OFFCURVE",
"150 181 OFFCURVE",
"150 350 CURVE SMOOTH",
"150 495 OFFCURVE",
"228 625 OFFCURVE",
"353 625 CURVE SMOOTH",
"501 625 OFFCURVE",
"591 478 OFFCURVE",
"591 309 CURVE SMOOTH",
"591 167 OFFCURVE",
"515 33 OFFCURVE",
"386 33 CURVE SMOOTH"
);
}
);
width = 741;
}
);
unicode = 01EA;
},
{
color = 3;
glyphname = Oslash;
lastChange = "2018-11-27 13:19:58 +0000";
layers = (
{
anchors = (
{
name = bottom;
position = "{371, 0}";
},
{
name = top;
position = "{371, 658}";
}
);
background = {
paths = (
{
closed = 1;
nodes = (
"410 625 OFFCURVE",
"520 530 OFFCURVE",
"572 389 OFFCURVE",
"572 309 QCURVE SMOOTH",
"572 239 OFFCURVE",
"527 116 OFFCURVE",
"431 33 OFFCURVE",
"367 33 QCURVE SMOOTH",
"293 33 OFFCURVE",
"183 128 OFFCURVE",
"131 270 OFFCURVE",
"131 350 QCURVE SMOOTH",
"131 459 OFFCURVE",
"241 625 OFFCURVE",
"336 625 QCURVE SMOOTH"
);
},
{
closed = 1;
nodes = (
"126 10 LINE",
"123 6 OFFCURVE",
"146 -10 OFFCURVE",
"155 -13 QCURVE",
"573 645 LINE",
"576 649 OFFCURVE",
"552 665 OFFCURVE",
"544 667 QCURVE"
);
},
{
closed = 1;
nodes = (
"32 188 OFFCURVE",
"219 -10 OFFCURVE",
"483 -10 OFFCURVE",
"671 188 OFFCURVE",
"671 468 OFFCURVE",
"483 667 OFFCURVE",
"219 667 OFFCURVE",
"32 468 OFFCURVE"
);
}
);
};
layerId = "0276F023-BC64-4582-8657-390FE5DB601E";
paths = (
{
closed = 1;
nodes = (
"147 10 LINE",
"143 5 OFFCURVE",
"164 -9 OFFCURVE",
"176 -13 CURVE",
"594 645 LINE",
"598 650 OFFCURVE",
"576 664 OFFCURVE",
"565 667 CURVE"
);
},
{
closed = 1;
nodes = (
"552 -10 OFFCURVE",
"690 145 OFFCURVE",
"690 327 CURVE SMOOTH",
"690 515 OFFCURVE",
"546 667 OFFCURVE",
"368 667 CURVE SMOOTH",
"194 667 OFFCURVE",
"51 515 OFFCURVE",
"51 326 CURVE SMOOTH",
"51 142 OFFCURVE",
"194 -10 OFFCURVE",
"369 -10 CURVE SMOOTH"
);
},
{
closed = 1;
nodes = (
"239 33 OFFCURVE",
"150 181 OFFCURVE",
"150 350 CURVE SMOOTH",
"150 495 OFFCURVE",
"228 625 OFFCURVE",
"353 625 CURVE SMOOTH",
"501 625 OFFCURVE",
"591 478 OFFCURVE",
"591 309 CURVE SMOOTH",
"591 167 OFFCURVE",
"515 33 OFFCURVE",
"386 33 CURVE SMOOTH"
);
}
);
width = 741;
}
);
leftMetricsKey = O;
widthMetricsKey = O;
note = Oslash;
unicode = 00D8;
},
{
color = 3;
glyphname = OE;
lastChange = "2018-11-27 13:19:58 +0000";
layers = (
{
anchors = (
{
name = bottom;
position = "{595, 0}";
},
{
name = top;
position = "{595, 658}";
}
);
background = {
paths = (
{
closed = 1;
nodes = (
"508 -3 OFFCURVE",
"511 2 OFFCURVE",
"593 2 CURVE SMOOTH",
"640 2 OFFCURVE",
"700 -1 OFFCURVE",
"773 -2 CURVE SMOOTH",
"846 -3 OFFCURVE",
"900 -4 OFFCURVE",
"934 -4 CURVE",
"938 29 OFFCURVE",
"977 134 OFFCURVE",
"988 162 CURVE",
"984 166 OFFCURVE",
"976 168 OFFCURVE",
"963 168 CURVE SMOOTH",
"955 168 OFFCURVE",
"950 166 OFFCURVE",
"949 162 CURVE",
"934 111 OFFCURVE",
"906 72 OFFCURVE",
"886 61 CURVE SMOOTH",
"864 49 OFFCURVE",
"822 44 OFFCURVE",
"760 44 CURVE SMOOTH",
"712 44 LINE SMOOTH",
"669 44 OFFCURVE",
"646 47 OFFCURVE",
"644 54 CURVE",
"638 71 OFFCURVE",
"635 102 OFFCURVE",
"635 145 CURVE SMOOTH",
"635 300 LINE SMOOTH",
"635 306 OFFCURVE",
"659 309 OFFCURVE",
"707 309 CURVE SMOOTH",
"769 309 OFFCURVE",
"803 307 OFFCURVE",
"812 301 CURVE SMOOTH",
"827 291 OFFCURVE",
"832 276 OFFCURVE",
"841 238 CURVE",
"843 233 OFFCURVE",
"848 230 OFFCURVE",
"857 230 CURVE SMOOTH",
"865 230 OFFCURVE",
"870 231 OFFCURVE",
"873 234 CURVE",
"873 423 LINE",
"870 426 OFFCURVE",
"864 428 OFFCURVE",
"856 428 CURVE SMOOTH",
"847 428 OFFCURVE",
"842 426 OFFCURVE",
"841 421 CURVE SMOOTH",
"835 389 OFFCURVE",
"827 367 OFFCURVE",
"813 361 CURVE SMOOTH",
"802 356 OFFCURVE",
"783 353 OFFCURVE",
"755 353 CURVE SMOOTH",
"678 353 LINE SMOOTH",
"649 353 OFFCURVE",
"635 355 OFFCURVE",
"635 359 CURVE SMOOTH",
"635 519 LINE SMOOTH",
"635 559 OFFCURVE",
"637 587 OFFCURVE",
"640 603 CURVE",
"641 612 OFFCURVE",
"671 616 OFFCURVE",
"728 616 CURVE SMOOTH",
"795 616 LINE SMOOTH",
"858 616 OFFCURVE",
"891 603 OFFCURVE",
"911 530 CURVE",
"912 525 OFFCURVE",
"916 523 OFFCURVE",
"925 523 CURVE SMOOTH",
"934 523 OFFCURVE",
"940 525 OFFCURVE",
"943 528 CURVE",
"940 546 OFFCURVE",
"920 621 OFFCURVE",
"914 664 CURVE",
"877 664 OFFCURVE",
"821 663 OFFCURVE",
"747 660 CURVE SMOOTH",
"673 657 OFFCURVE",
"621 656 OFFCURVE",
"591 656 CURVE SMOOTH",
"539 656 OFFCURVE",
"462 658 OFFCURVE",
"419 658 CURVE SMOOTH",
"212 658 OFFCURVE",
"73 521 OFFCURVE",
"73 319 CURVE SMOOTH",
"73 136 OFFCURVE",
"216 -3 OFFCURVE",
"428 -3 CURVE SMOOTH"
);
},
{
closed = 1;
nodes = (
"262 41 OFFCURVE",
"173 138 OFFCURVE",
"173 318 CURVE SMOOTH",
"173 514 OFFCURVE",
"250 612 OFFCURVE",
"403 612 CURVE SMOOTH",
"529 612 OFFCURVE",
"548 596 OFFCURVE",
"548 488 CURVE SMOOTH",
"548 142 LINE SMOOTH",
"548 52 OFFCURVE",
"529 41 OFFCURVE",
"438 41 CURVE SMOOTH"
);
}
);
};
layerId = "0276F023-BC64-4582-8657-390FE5DB601E";
paths = (
{
closed = 1;
nodes = (
"475 -8 OFFCURVE",
"534 2 OFFCURVE",
"596 2 CURVE SMOOTH",
"643 2 OFFCURVE",
"703 -1 OFFCURVE",
"776 -2 CURVE SMOOTH",
"849 -3 OFFCURVE",
"903 -4 OFFCURVE",
"937 -4 CURVE",
"941 29 OFFCURVE",
"980 134 OFFCURVE",
"991 162 CURVE",
"987 166 OFFCURVE",
"979 168 OFFCURVE",
"966 168 CURVE SMOOTH",
"958 168 OFFCURVE",
"953 166 OFFCURVE",
"952 162 CURVE",
"937 111 OFFCURVE",
"909 72 OFFCURVE",
"889 61 CURVE SMOOTH",
"867 49 OFFCURVE",
"825 44 OFFCURVE",
"763 44 CURVE SMOOTH",
"715 44 LINE SMOOTH",
"672 44 OFFCURVE",
"649 47 OFFCURVE",
"647 54 CURVE",
"641 71 OFFCURVE",
"638 102 OFFCURVE",
"638 145 CURVE SMOOTH",
"638 300 LINE SMOOTH",
"638 306 OFFCURVE",
"662 309 OFFCURVE",
"710 309 CURVE SMOOTH",
"772 309 OFFCURVE",
"806 307 OFFCURVE",
"815 301 CURVE SMOOTH",
"830 291 OFFCURVE",
"835 276 OFFCURVE",
"844 238 CURVE",
"846 233 OFFCURVE",
"851 230 OFFCURVE",
"860 230 CURVE SMOOTH",
"868 230 OFFCURVE",
"873 231 OFFCURVE",
"876 234 CURVE",
"876 423 LINE",
"873 426 OFFCURVE",
"867 428 OFFCURVE",
"859 428 CURVE SMOOTH",
"850 428 OFFCURVE",
"845 426 OFFCURVE",
"844 421 CURVE SMOOTH",
"838 389 OFFCURVE",
"830 367 OFFCURVE",
"816 361 CURVE SMOOTH",
"805 356 OFFCURVE",
"786 353 OFFCURVE",
"758 353 CURVE SMOOTH",
"681 353 LINE SMOOTH",
"652 353 OFFCURVE",
"638 355 OFFCURVE",
"638 359 CURVE SMOOTH",
"638 519 LINE SMOOTH",
"638 559 OFFCURVE",
"640 587 OFFCURVE",
"643 603 CURVE",
"644 612 OFFCURVE",
"674 616 OFFCURVE",
"731 616 CURVE SMOOTH",
"798 616 LINE SMOOTH",
"861 616 OFFCURVE",
"894 603 OFFCURVE",
"914 530 CURVE",
"915 525 OFFCURVE",
"919 523 OFFCURVE",
"928 523 CURVE SMOOTH",
"937 523 OFFCURVE",
"943 525 OFFCURVE",
"946 528 CURVE",
"943 546 OFFCURVE",
"923 621 OFFCURVE",
"917 664 CURVE",
"880 664 OFFCURVE",
"824 663 OFFCURVE",
"750 660 CURVE SMOOTH",
"676 657 OFFCURVE",
"624 656 OFFCURVE",
"594 656 CURVE SMOOTH",
"532 656 OFFCURVE",
"483 667 OFFCURVE",
"400 667 CURVE SMOOTH",
"187 667 OFFCURVE",
"51 515 OFFCURVE",
"51 328 CURVE SMOOTH",
"51 141 OFFCURVE",
"179 -8 OFFCURVE",
"405 -8 CURVE SMOOTH"
);
},
{
closed = 1;
nodes = (
"253 36 OFFCURVE",
"150 180 OFFCURVE",
"150 350 CURVE SMOOTH",
"150 495 OFFCURVE",
"228 623 OFFCURVE",
"395 623 CURVE SMOOTH",
"501 623 OFFCURVE",
"551 596 OFFCURVE",
"551 488 CURVE SMOOTH",
"551 192 LINE SMOOTH",
"551 62 OFFCURVE",
"517 36 OFFCURVE",
"423 36 CURVE SMOOTH"
);
}
);
width = 1014;
}
);
leftMetricsKey = O;
note = OE;
rightMetricsKey = E;
unicode = 0152;
},
{
color = 3;
glyphname = P;
lastChange = "2018-11-27 13:18:45 +0000";
layers = (
{
anchors = (
{
name = bottom;
position = "{270, 0}";
},
{
name = top;
position = "{270, 658}";
}
);
background = {
paths = (
{
closed = 1;
nodes = (
"38 658 LINE",
"34 654 OFFCURVE",
"34 641 QCURVE SMOOTH",
"34 629 OFFCURVE",
"38 629 QCURVE SMOOTH",
"51 629 OFFCURVE",
"104 615 OFFCURVE",
"107 607 QCURVE",
"114 580 OFFCURVE",
"114 521 QCURVE SMOOTH",
"114 143 LINE SMOOTH",
"114 61 OFFCURVE",
"107 49 QCURVE SMOOTH",
"102 40 OFFCURVE",
"52 28 OFFCURVE",
"38 28 QCURVE SMOOTH",
"35 28 OFFCURVE",
"35 15 QCURVE SMOOTH",
"35 0 OFFCURVE",
"38 -3 QCURVE",
"160 2 LINE",
"190 2 OFFCURVE",
"290 -3 QCURVE",
"292 3 OFFCURVE",
"292 12 QCURVE SMOOTH",
"292 26 OFFCURVE",
"288 26 QCURVE SMOOTH",
"275 26 OFFCURVE",
"214 42 OFFCURVE",
"209 55 QCURVE SMOOTH",
"201 75 OFFCURVE",
"201 142 QCURVE SMOOTH",
"201 499 LINE SMOOTH",
"201 547 OFFCURVE",
"204 595 OFFCURVE",
"208 608 OFFCURVE",
"213 609 QCURVE",
"238 616 OFFCURVE",
"283 616 QCURVE SMOOTH",
"348 616 OFFCURVE",
"410 533 OFFCURVE",
"410 462 QCURVE SMOOTH",
"410 404 OFFCURVE",
"338 320 OFFCURVE",
"288 320 QCURVE SMOOTH",
"251 320 OFFCURVE",
"221 331 QCURVE",
"219 332 OFFCURVE",
"218 328 QCURVE",
"215 312 OFFCURVE",
"221 305 QCURVE",
"242 277 OFFCURVE",
"298 277 QCURVE SMOOTH",
"348 277 OFFCURVE",
"429 318 OFFCURVE",
"477 381 OFFCURVE",
"502 448 OFFCURVE",
"502 477 QCURVE SMOOTH",
"502 526 OFFCURVE",
"462 600 OFFCURVE",
"399 640 OFFCURVE",
"332 660 OFFCURVE",
"299 660 QCURVE SMOOTH",
"270 660 OFFCURVE",
"188 656 OFFCURVE",
"158 656 QCURVE SMOOTH"
);
}
);
};
layerId = "0276F023-BC64-4582-8657-390FE5DB601E";
paths = (
{
closed = 1;
nodes = (
"121 656 OFFCURVE",
"81 657 OFFCURVE",
"41 659 CURVE",
"38 655 OFFCURVE",
"37 650 OFFCURVE",
"37 641 CURVE SMOOTH",
"37 633 OFFCURVE",
"38 629 OFFCURVE",
"41 629 CURVE SMOOTH",
"64 629 OFFCURVE",
"106 617 OFFCURVE",
"110 607 CURVE",
"115 589 OFFCURVE",
"117 560 OFFCURVE",
"117 521 CURVE SMOOTH",
"117 143 LINE SMOOTH",
"117 88 OFFCURVE",
"115 57 OFFCURVE",
"110 49 CURVE SMOOTH",
"105 40 OFFCURVE",
"66 28 OFFCURVE",
"41 28 CURVE SMOOTH",
"39 28 OFFCURVE",
"38 24 OFFCURVE",
"38 15 CURVE SMOOTH",
"38 5 OFFCURVE",
"39 -1 OFFCURVE",
"41 -3 CURVE",
"82 -1 OFFCURVE",
"122 2 OFFCURVE",
"163 2 CURVE SMOOTH",
"183 2 OFFCURVE",
"226 0 OFFCURVE",
"293 -3 CURVE",
"294 1 OFFCURVE",
"295 6 OFFCURVE",
"295 12 CURVE SMOOTH",
"295 21 OFFCURVE",
"294 26 OFFCURVE",
"291 26 CURVE SMOOTH",
"263 26 OFFCURVE",
"217 43 OFFCURVE",
"212 55 CURVE SMOOTH",
"207 68 OFFCURVE",
"204 97 OFFCURVE",
"204 142 CURVE SMOOTH",
"204 499 LINE SMOOTH",
"204 546 OFFCURVE",
"205 596 OFFCURVE",
"211 609 CURVE",
"233 614 OFFCURVE",
"256 616 OFFCURVE",
"276 616 CURVE SMOOTH",
"368 616 OFFCURVE",
"413 562 OFFCURVE",
"413 462 CURVE SMOOTH",
"413 365 OFFCURVE",
"358 322 OFFCURVE",
"291 322 CURVE SMOOTH",
"266 322 OFFCURVE",
"243 324 OFFCURVE",
"223 331 CURVE",
"223 331 OFFCURVE",
"220 330 OFFCURVE",
"220 318 CURVE SMOOTH",
"220 312 OFFCURVE",
"221 309 OFFCURVE",
"224 305 CURVE SMOOTH",
"238 286 OFFCURVE",
"264 277 OFFCURVE",
"311 277 CURVE SMOOTH",
"410 277 OFFCURVE",
"505 370 OFFCURVE",
"505 477 CURVE SMOOTH",
"505 583 OFFCURVE",
"420 660 OFFCURVE",
"292 660 CURVE SMOOTH",
"273 660 OFFCURVE",
"200 656 OFFCURVE",
"161 656 CURVE SMOOTH"
);
}
);
width = 545;
}
);
note = P;
unicode = 0050;
},
{
color = 3;
glyphname = Thorn;
lastChange = "2018-11-27 13:18:45 +0000";
layers = (
{
background = {
paths = (
{
closed = 1;
nodes = (
"118 506 OFFCURVE",
"78 507 OFFCURVE",
"38 509 CURVE",
"35 505 OFFCURVE",
"34 500 OFFCURVE",
"34 491 CURVE SMOOTH",
"34 483 OFFCURVE",
"35 479 OFFCURVE",
"38 479 CURVE SMOOTH",
"61 479 OFFCURVE",
"103 467 OFFCURVE",
"107 457 CURVE",
"112 439 OFFCURVE",
"114 410 OFFCURVE",
"114 371 CURVE SMOOTH",
"114 -7 LINE SMOOTH",
"114 -62 OFFCURVE",
"112 -93 OFFCURVE",
"107 -101 CURVE SMOOTH",
"102 -110 OFFCURVE",
"63 -122 OFFCURVE",
"38 -122 CURVE SMOOTH",
"36 -122 OFFCURVE",
"35 -126 OFFCURVE",
"35 -135 CURVE SMOOTH",
"35 -145 OFFCURVE",
"36 -151 OFFCURVE",
"38 -153 CURVE",
"79 -151 OFFCURVE",
"119 -148 OFFCURVE",
"160 -148 CURVE SMOOTH",
"180 -148 OFFCURVE",
"223 -150 OFFCURVE",
"290 -153 CURVE",
"291 -149 OFFCURVE",
"292 -144 OFFCURVE",
"292 -138 CURVE SMOOTH",
"292 -129 OFFCURVE",
"291 -124 OFFCURVE",
"288 -124 CURVE SMOOTH",
"260 -124 OFFCURVE",
"214 -107 OFFCURVE",
"209 -95 CURVE SMOOTH",
"204 -82 OFFCURVE",
"201 -53 OFFCURVE",
"201 -8 CURVE SMOOTH",
"201 349 LINE SMOOTH",
"201 396 OFFCURVE",
"202 446 OFFCURVE",
"208 459 CURVE",
"230 464 OFFCURVE",
"253 466 OFFCURVE",
"273 466 CURVE SMOOTH",
"365 466 OFFCURVE",
"410 412 OFFCURVE",
"410 312 CURVE SMOOTH",
"410 215 OFFCURVE",
"355 172 OFFCURVE",
"288 172 CURVE SMOOTH",
"263 172 OFFCURVE",
"240 174 OFFCURVE",
"220 181 CURVE",
"220 181 OFFCURVE",
"217 180 OFFCURVE",
"217 168 CURVE SMOOTH",
"217 162 OFFCURVE",
"218 159 OFFCURVE",
"221 155 CURVE SMOOTH",
"235 136 OFFCURVE",
"261 127 OFFCURVE",
"308 127 CURVE SMOOTH",
"407 127 OFFCURVE",
"502 220 OFFCURVE",
"502 327 CURVE SMOOTH",
"502 433 OFFCURVE",
"417 510 OFFCURVE",
"289 510 CURVE SMOOTH",
"270 510 OFFCURVE",
"197 506 OFFCURVE",
"158 506 CURVE SMOOTH"
);
}
);
};
layerId = "0276F023-BC64-4582-8657-390FE5DB601E";
paths = (
{
closed = 1;
nodes = (
"82 -1 OFFCURVE",
"122 2 OFFCURVE",
"163 2 CURVE SMOOTH",
"183 2 OFFCURVE",
"226 0 OFFCURVE",
"293 -3 CURVE",
"294 1 OFFCURVE",
"295 6 OFFCURVE",
"295 12 CURVE SMOOTH",
"295 21 OFFCURVE",
"294 26 OFFCURVE",
"291 26 CURVE SMOOTH",
"263 26 OFFCURVE",
"217 43 OFFCURVE",
"212 55 CURVE SMOOTH",
"207 68 OFFCURVE",
"204 97 OFFCURVE",
"204 142 CURVE SMOOTH",
"204 349 LINE SMOOTH",
"204 396 OFFCURVE",
"205 445 OFFCURVE",
"209 459 CURVE",
"229 463 OFFCURVE",
"246 466 OFFCURVE",
"276 466 CURVE SMOOTH",
"368 466 OFFCURVE",
"413 412 OFFCURVE",
"413 312 CURVE SMOOTH",
"413 215 OFFCURVE",
"358 172 OFFCURVE",
"291 172 CURVE SMOOTH",
"266 172 OFFCURVE",
"243 174 OFFCURVE",
"223 181 CURVE",
"223 181 OFFCURVE",
"220 180 OFFCURVE",
"220 168 CURVE SMOOTH",
"220 162 OFFCURVE",
"221 159 OFFCURVE",
"224 155 CURVE SMOOTH",
"238 136 OFFCURVE",
"264 127 OFFCURVE",
"311 127 CURVE SMOOTH",
"410 127 OFFCURVE",
"505 220 OFFCURVE",
"505 327 CURVE SMOOTH",
"505 433 OFFCURVE",
"420 510 OFFCURVE",
"282 510 CURVE SMOOTH",
"265 510 OFFCURVE",
"212 507 OFFCURVE",
"171 497 CURVE",
"204 477 LINE",
"204 519 LINE SMOOTH",
"204 558 OFFCURVE",
"207 589 OFFCURVE",
"213 612 CURVE",
"216 621 OFFCURVE",
"264 633 OFFCURVE",
"277 633 CURVE SMOOTH",
"280 633 OFFCURVE",
"281 638 OFFCURVE",
"281 647 CURVE SMOOTH",
"281 653 OFFCURVE",
"280 658 OFFCURVE",
"279 662 CURVE",
"222 659 OFFCURVE",
"194 657 OFFCURVE",
"163 657 CURVE SMOOTH",
"140 657 OFFCURVE",
"100 659 OFFCURVE",
"43 662 CURVE",
"40 659 OFFCURVE",
"39 654 OFFCURVE",
"39 646 CURVE SMOOTH",
"39 637 OFFCURVE",
"40 633 OFFCURVE",
"43 633 CURVE SMOOTH",
"60 633 OFFCURVE",
"106 623 OFFCURVE",
"110 612 CURVE",
"115 594 OFFCURVE",
"117 564 OFFCURVE",
"117 523 CURVE SMOOTH",
"117 143 LINE SMOOTH",
"117 88 OFFCURVE",
"115 57 OFFCURVE",
"110 49 CURVE",
"105 40 OFFCURVE",
"66 28 OFFCURVE",
"41 28 CURVE SMOOTH",
"39 28 OFFCURVE",
"38 24 OFFCURVE",
"38 15 CURVE SMOOTH",
"38 5 OFFCURVE",
"39 -1 OFFCURVE",
"41 -3 CURVE"
);
}
);
width = 545;
}
);
note = Thorn;
unicode = 00DE;
},
{
color = 3;
glyphname = Q;
lastChange = "2018-11-27 13:19:58 +0000";
layers = (
{
anchors = (
{
name = bottom;
position = "{371, 0}";
},
{
name = top;
position = "{371, 658}";
}
);
background = {
paths = (
{
closed = 1;
nodes = (
"1299 625 OFFCURVE",
"1392 476 OFFCURVE",
"1392 309 CURVE SMOOTH",
"1392 164 OFFCURVE",
"1311 33 OFFCURVE",
"1183 33 CURVE SMOOTH",
"1036 33 OFFCURVE",
"943 183 OFFCURVE",
"943 350 CURVE SMOOTH",
"943 494 OFFCURVE",
"1025 625 OFFCURVE",
"1152 625 CURVE SMOOTH"
);
},
{
closed = 1;
nodes = (
"1416 -84 OFFCURVE",
"1330 -27 OFFCURVE",
"1263 5 CURVE",
"1366 25 OFFCURVE",
"1487 157 OFFCURVE",
"1487 328 CURVE SMOOTH",
"1487 515 OFFCURVE",
"1343 667 OFFCURVE",
"1167 667 CURVE SMOOTH",
"991 667 OFFCURVE",
"848 515 OFFCURVE",
"848 328 CURVE SMOOTH",
"848 240 OFFCURVE",
"883 156 OFFCURVE",
"932 103 CURVE SMOOTH",
"981 50 OFFCURVE",
"1033 15 OFFCURVE",
"1081 0 CURVE SMOOTH",
"1138 -18 OFFCURVE",
"1232 -77 OFFCURVE",
"1304 -110 CURVE SMOOTH",
"1341 -127 OFFCURVE",
"1376 -136 OFFCURVE",
"1408 -136 CURVE SMOOTH",
"1476 -136 OFFCURVE",
"1532 -124 OFFCURVE",
"1576 -101 CURVE",
"1576 -96 LINE SMOOTH",
"1576 -83 OFFCURVE",
"1572 -76 OFFCURVE",
"1564 -76 CURVE SMOOTH",
"1560 -76 OFFCURVE",
"1519 -84 OFFCURVE",
"1496 -84 CURVE SMOOTH"
);
},
{
closed = 1;
nodes = (
"549 -10 OFFCURVE",
"687 145 OFFCURVE",
"687 327 CURVE SMOOTH",
"687 515 OFFCURVE",
"543 667 OFFCURVE",
"365 667 CURVE SMOOTH",
"191 667 OFFCURVE",
"48 515 OFFCURVE",
"48 326 CURVE SMOOTH",
"48 142 OFFCURVE",
"191 -10 OFFCURVE",
"366 -10 CURVE SMOOTH"
);
},
{
closed = 1;
nodes = (
"236 33 OFFCURVE",
"147 181 OFFCURVE",
"147 350 CURVE SMOOTH",
"147 495 OFFCURVE",
"225 625 OFFCURVE",
"350 625 CURVE SMOOTH",
"498 625 OFFCURVE",
"588 478 OFFCURVE",
"588 309 CURVE SMOOTH",
"588 167 OFFCURVE",
"512 33 OFFCURVE",
"383 33 CURVE SMOOTH"
);
}
);
};
layerId = "0276F023-BC64-4582-8657-390FE5DB601E";
paths = (
{
closed = 1;
nodes = (
"679 -136 OFFCURVE",
"735 -124 OFFCURVE",
"779 -101 CURVE",
"779 -96 LINE SMOOTH",
"779 -83 OFFCURVE",
"775 -76 OFFCURVE",
"767 -76 CURVE SMOOTH",
"763 -76 OFFCURVE",
"722 -84 OFFCURVE",
"699 -84 CURVE SMOOTH",
"656 -84 OFFCURVE",
"611 -67 OFFCURVE",
"567 -47 CURVE SMOOTH",
"529 -30 OFFCURVE",
"493 -10 OFFCURVE",
"458 5 CURVE",
"576 40 OFFCURVE",
"690 157 OFFCURVE",
"690 328 CURVE SMOOTH",
"690 515 OFFCURVE",
"546 667 OFFCURVE",
"368 667 CURVE SMOOTH",
"194 667 OFFCURVE",
"51 515 OFFCURVE",
"51 328 CURVE SMOOTH",
"51 240 OFFCURVE",
"86 152 OFFCURVE",
"135 99 CURVE SMOOTH",
"184 46 OFFCURVE",
"236 15 OFFCURVE",
"284 0 CURVE SMOOTH",
"360 -23 OFFCURVE",
"435 -77 OFFCURVE",
"505 -110 CURVE SMOOTH",
"542 -128 OFFCURVE",
"579 -136 OFFCURVE",
"611 -136 CURVE SMOOTH"
);
},
{
closed = 1;
nodes = (
"239 33 OFFCURVE",
"150 181 OFFCURVE",
"150 350 CURVE SMOOTH",
"150 495 OFFCURVE",
"228 625 OFFCURVE",
"353 625 CURVE SMOOTH",
"501 625 OFFCURVE",
"591 478 OFFCURVE",
"591 309 CURVE SMOOTH",
"591 167 OFFCURVE",
"515 33 OFFCURVE",
"386 33 CURVE SMOOTH"
);
}
);
width = 741;
}
);
leftMetricsKey = O;
widthMetricsKey = O;
note = Q;
unicode = 0051;
},
{
color = 3;
glyphname = R;
lastChange = "2018-11-27 13:18:45 +0000";
layers = (
{
anchors = (
{
name = bottom;
position = "{329, 0}";
},
{
name = top;
position = "{329, 658}";
}
);
background = {
paths = (
{
closed = 1;
nodes = (
"366 616 OFFCURVE",
"423 572 OFFCURVE",
"423 482 CURVE SMOOTH",
"423 398 OFFCURVE",
"370 349 OFFCURVE",
"303 349 CURVE SMOOTH",
"253 349 LINE SMOOTH",
"230 349 OFFCURVE",
"201 359 OFFCURVE",
"201 378 CURVE SMOOTH",
"201 539 LINE SMOOTH",
"201 586 OFFCURVE",
"205 607 OFFCURVE",
"213 609 CURVE SMOOTH",
"230 614 OFFCURVE",
"243 616 OFFCURVE",
"273 616 CURVE SMOOTH"
);
},
{
closed = 1;
nodes = (
"259 660 OFFCURVE",
"179 656 OFFCURVE",
"158 656 CURVE SMOOTH",
"118 656 OFFCURVE",
"78 657 OFFCURVE",
"38 658 CURVE",
"35 655 OFFCURVE",
"34 650 OFFCURVE",
"34 641 CURVE SMOOTH",
"34 633 OFFCURVE",
"35 629 OFFCURVE",
"38 629 CURVE SMOOTH",
"55 629 OFFCURVE",
"103 618 OFFCURVE",
"107 607 CURVE",
"112 589 OFFCURVE",
"114 560 OFFCURVE",
"114 521 CURVE SMOOTH",
"114 143 LINE SMOOTH",
"114 88 OFFCURVE",
"112 57 OFFCURVE",
"107 49 CURVE SMOOTH",
"100 37 OFFCURVE",
"57 28 OFFCURVE",
"38 28 CURVE SMOOTH",
"36 28 OFFCURVE",
"35 24 OFFCURVE",
"35 15 CURVE SMOOTH",
"35 5 OFFCURVE",
"36 -1 OFFCURVE",
"38 -3 CURVE",
"79 0 OFFCURVE",
"118 2 OFFCURVE",
"160 2 CURVE SMOOTH",
"180 2 OFFCURVE",
"223 0 OFFCURVE",
"290 -3 CURVE",
"291 1 OFFCURVE",
"292 6 OFFCURVE",
"292 12 CURVE SMOOTH",
"292 21 OFFCURVE",
"291 26 OFFCURVE",
"288 26 CURVE SMOOTH",
"271 26 OFFCURVE",
"216 38 OFFCURVE",
"209 54 CURVE SMOOTH",
"204 68 OFFCURVE",
"201 97 OFFCURVE",
"201 142 CURVE SMOOTH",
"201 289 LINE SMOOTH",
"201 302 OFFCURVE",
"207 306 OFFCURVE",
"221 306 CURVE SMOOTH",
"242 306 OFFCURVE",
"254 305 OFFCURVE",
"265 300 CURVE SMOOTH",
"286 291 OFFCURVE",
"304 266 OFFCURVE",
"326 236 CURVE SMOOTH",
"332 227 OFFCURVE",
"355 194 OFFCURVE",
"393 139 CURVE SMOOTH",
"462 43 OFFCURVE",
"533 -5 OFFCURVE",
"636 -5 CURVE SMOOTH",
"647 -5 OFFCURVE",
"656 -4 OFFCURVE",
"663 -2 CURVE",
"665 2 OFFCURVE",
"666 7 OFFCURVE",
"666 13 CURVE SMOOTH",
"666 18 OFFCURVE",
"665 23 OFFCURVE",
"663 27 CURVE",
"623 27 OFFCURVE",
"566 57 OFFCURVE",
"507 132 CURVE SMOOTH",
"470 179 OFFCURVE",
"431 243 OFFCURVE",
"385 313 CURVE",
"382 317 OFFCURVE",
"384 320 OFFCURVE",
"391 323 CURVE",
"470 346 OFFCURVE",
"515 421 OFFCURVE",
"515 477 CURVE SMOOTH",
"515 601 OFFCURVE",
"403 660 OFFCURVE",
"294 660 CURVE SMOOTH"
);
}
);
};
layerId = "0276F023-BC64-4582-8657-390FE5DB601E";
paths = (
{
closed = 1;
nodes = (
"369 616 OFFCURVE",
"426 572 OFFCURVE",
"426 482 CURVE SMOOTH",
"426 398 OFFCURVE",
"373 349 OFFCURVE",
"276 349 CURVE SMOOTH",
"256 349 LINE SMOOTH",
"239 349 OFFCURVE",
"221 350 OFFCURVE",
"204 352 CURVE",
"204 539 LINE SMOOTH",
"204 586 OFFCURVE",
"208 607 OFFCURVE",
"216 609 CURVE SMOOTH",
"233 614 OFFCURVE",
"246 616 OFFCURVE",
"276 616 CURVE SMOOTH"
);
},
{
closed = 1;
nodes = (
"262 660 OFFCURVE",
"182 656 OFFCURVE",
"161 656 CURVE SMOOTH",
"121 656 OFFCURVE",
"81 657 OFFCURVE",
"41 658 CURVE",
"38 655 OFFCURVE",
"37 650 OFFCURVE",
"37 641 CURVE SMOOTH",
"37 633 OFFCURVE",
"38 629 OFFCURVE",
"41 629 CURVE SMOOTH",
"58 629 OFFCURVE",
"106 618 OFFCURVE",
"110 607 CURVE",
"115 589 OFFCURVE",
"117 560 OFFCURVE",
"117 521 CURVE SMOOTH",
"117 143 LINE SMOOTH",
"117 88 OFFCURVE",
"115 57 OFFCURVE",
"110 49 CURVE SMOOTH",
"103 37 OFFCURVE",
"60 28 OFFCURVE",
"41 28 CURVE SMOOTH",
"39 28 OFFCURVE",
"38 24 OFFCURVE",
"38 15 CURVE SMOOTH",
"38 5 OFFCURVE",
"39 -1 OFFCURVE",
"41 -3 CURVE",
"82 0 OFFCURVE",
"121 2 OFFCURVE",
"163 2 CURVE SMOOTH",
"183 2 OFFCURVE",
"226 0 OFFCURVE",
"293 -3 CURVE",
"294 1 OFFCURVE",
"295 6 OFFCURVE",
"295 12 CURVE SMOOTH",
"295 21 OFFCURVE",
"294 26 OFFCURVE",
"291 26 CURVE SMOOTH",
"274 26 OFFCURVE",
"219 38 OFFCURVE",
"212 54 CURVE SMOOTH",
"207 68 OFFCURVE",
"204 97 OFFCURVE",
"204 142 CURVE SMOOTH",
"204 304 LINE",
"214 305 OFFCURVE",
"224 306 OFFCURVE",
"234 306 CURVE SMOOTH",
"275 306 OFFCURVE",
"290 298 OFFCURVE",
"307 272 CURVE SMOOTH",
"391 139 LINE SMOOTH",
"454 40 OFFCURVE",
"536 -5 OFFCURVE",
"639 -5 CURVE SMOOTH",
"650 -5 OFFCURVE",
"659 -4 OFFCURVE",
"666 -2 CURVE",
"668 2 OFFCURVE",
"669 7 OFFCURVE",
"669 13 CURVE SMOOTH",
"669 18 OFFCURVE",
"668 23 OFFCURVE",
"666 27 CURVE",
"626 27 OFFCURVE",
"569 57 OFFCURVE",
"510 132 CURVE SMOOTH",
"473 179 OFFCURVE",
"432 253 OFFCURVE",
"375 328 CURVE",
"364 316 LINE",
"463 342 OFFCURVE",
"518 421 OFFCURVE",
"518 487 CURVE SMOOTH",
"518 601 OFFCURVE",
"426 660 OFFCURVE",
"307 660 CURVE SMOOTH"
);
}
);
width = 649;
}
);
note = R;
unicode = 0052;
},
{
color = 3;
glyphname = S;
lastChange = "2018-11-27 13:18:45 +0000";
layers = (
{
anchors = (
{
name = bottom;
position = "{252, 0}";
},
{
name = top;
position = "{252, 658}";
}
);
background = {
paths = (
{
closed = 1;
nodes = (
"64 466 OFFCURVE",
"77 422 OFFCURVE",
"109 383 OFFCURVE",
"133 356 OFFCURVE",
"186 321 OFFCURVE",
"209 307 OFFCURVE",
"238 290 QCURVE SMOOTH",
"247 285 OFFCURVE",
"295 259 OFFCURVE",
"313 247 OFFCURVE",
"346 222 OFFCURVE",
"359 200 OFFCURVE",
"371 166 OFFCURVE",
"371 146 QCURVE SMOOTH",
"371 91 OFFCURVE",
"301 31 OFFCURVE",
"251 31 QCURVE SMOOTH",
"119 31 OFFCURVE",
"85 175 QCURVE",
"78 184 OFFCURVE",
"60 184 QCURVE SMOOTH",
"44 184 OFFCURVE",
"44 178 QCURVE SMOOTH",
"44 142 OFFCURVE",
"69 19 QCURVE",
"80 17 OFFCURVE",
"135 4 OFFCURVE",
"171 -3 OFFCURVE",
"225 -10 OFFCURVE",
"249 -10 QCURVE SMOOTH",
"333 -10 OFFCURVE",
"458 93 OFFCURVE",
"458 173 QCURVE SMOOTH",
"458 197 OFFCURVE",
"439 242 OFFCURVE",
"418 272 OFFCURVE",
"371 311 OFFCURVE",
"349 326 OFFCURVE",
"289 363 OFFCURVE",
"284 366 QCURVE SMOOTH",
"277 370 OFFCURVE",
"226 402 OFFCURVE",
"209 414 OFFCURVE",
"172 444 OFFCURVE",
"158 467 OFFCURVE",
"144 502 OFFCURVE",
"144 521 QCURVE SMOOTH",
"144 565 OFFCURVE",
"193 625 OFFCURVE",
"253 625 QCURVE SMOOTH",
"307 625 OFFCURVE",
"382 542 OFFCURVE",
"387 498 QCURVE",
"389 488 OFFCURVE",
"413 488 QCURVE SMOOTH",
"423 488 OFFCURVE",
"423 495 QCURVE SMOOTH",
"423 585 OFFCURVE",
"411 638 QCURVE",
"393 642 OFFCURVE",
"346 655 OFFCURVE",
"321 661 OFFCURVE",
"282 666 OFFCURVE",
"260 666 QCURVE SMOOTH",
"182 666 OFFCURVE",
"64 567 OFFCURVE",
"64 490 QCURVE SMOOTH"
);
}
);
};
layerId = "0276F023-BC64-4582-8657-390FE5DB601E";
paths = (
{
closed = 1;
nodes = (
"67 415 OFFCURVE",
"112 362 OFFCURVE",
"235 294 CURVE SMOOTH",
"344 234 OFFCURVE",
"374 203 OFFCURVE",
"374 146 CURVE SMOOTH",
"374 73 OFFCURVE",
"321 31 OFFCURVE",
"254 31 CURVE SMOOTH",
"166 31 OFFCURVE",
"111 76 OFFCURVE",
"88 175 CURVE",
"83 181 OFFCURVE",
"77 184 OFFCURVE",
"66 184 CURVE SMOOTH",
"54 184 OFFCURVE",
"47 182 OFFCURVE",
"47 178 CURVE SMOOTH",
"47 154 OFFCURVE",
"55 101 OFFCURVE",
"72 19 CURVE",
"134 8 OFFCURVE",
"181 -10 OFFCURVE",
"252 -10 CURVE SMOOTH",
"364 -10 OFFCURVE",
"461 66 OFFCURVE",
"461 173 CURVE SMOOTH",
"461 240 OFFCURVE",
"419 290 OFFCURVE",
"287 366 CURVE SMOOTH",
"184 425 OFFCURVE",
"147 462 OFFCURVE",
"147 521 CURVE SMOOTH",
"147 586 OFFCURVE",
"190 625 OFFCURVE",
"256 625 CURVE SMOOTH",
"328 625 OFFCURVE",
"374 573 OFFCURVE",
"390 498 CURVE",
"391 491 OFFCURVE",
"398 488 OFFCURVE",
"411 488 CURVE SMOOTH",
"421 488 OFFCURVE",
"426 490 OFFCURVE",
"426 495 CURVE SMOOTH",
"426 555 OFFCURVE",
"422 603 OFFCURVE",
"414 638 CURVE",
"359 654 OFFCURVE",
"323 666 OFFCURVE",
"263 666 CURVE SMOOTH",
"172 666 OFFCURVE",
"67 608 OFFCURVE",
"67 490 CURVE SMOOTH"
);
}
);
width = 505;
}
);
note = S;
unicode = 0053;
},
{
color = 6;
glyphname = Scommaaccent;
lastChange = "2018-11-29 13:31:51 +0000";
layers = (
{
background = {
paths = (
{
closed = 1;
nodes = (
"186 -116 OFFCURVE",
"223 -148 OFFCURVE",
"223 -161 QCURVE SMOOTH",
"223 -175 OFFCURVE",
"200 -198 QCURVE SMOOTH",
"177 -220 LINE",
"177 -227 OFFCURVE",
"197 -227 QCURVE SMOOTH",
"203 -227 OFFCURVE",
"205 -225 QCURVE",
"287 -179 OFFCURVE",
"287 -99 QCURVE SMOOTH",
"287 -86 OFFCURVE",
"274 -53 OFFCURVE",
"265 -46 QCURVE",
"224 -46 OFFCURVE",
"186 -79 OFFCURVE",
"186 -101 QCURVE SMOOTH"
);
},
{
closed = 1;
nodes = (
"46 466 OFFCURVE",
"59 422 OFFCURVE",
"91 383 OFFCURVE",
"115 356 OFFCURVE",
"168 321 OFFCURVE",
"191 307 OFFCURVE",
"220 290 QCURVE SMOOTH",
"229 285 OFFCURVE",
"277 259 OFFCURVE",
"295 247 OFFCURVE",
"328 222 OFFCURVE",
"341 200 OFFCURVE",
"353 166 OFFCURVE",
"353 146 QCURVE SMOOTH",
"353 91 OFFCURVE",
"283 31 OFFCURVE",
"233 31 QCURVE SMOOTH",
"101 31 OFFCURVE",
"67 175 QCURVE",
"60 184 OFFCURVE",
"42 184 QCURVE SMOOTH",
"26 184 OFFCURVE",
"26 178 QCURVE SMOOTH",
"26 142 OFFCURVE",
"51 19 QCURVE",
"62 17 OFFCURVE",
"117 4 OFFCURVE",
"153 -3 OFFCURVE",
"207 -10 OFFCURVE",
"231 -10 QCURVE SMOOTH",
"315 -10 OFFCURVE",
"440 93 OFFCURVE",
"440 173 QCURVE SMOOTH",
"440 197 OFFCURVE",
"421 242 OFFCURVE",
"400 272 OFFCURVE",
"353 311 OFFCURVE",
"331 326 OFFCURVE",
"271 363 OFFCURVE",
"266 366 QCURVE SMOOTH",
"259 370 OFFCURVE",
"208 402 OFFCURVE",
"191 414 OFFCURVE",
"154 444 OFFCURVE",
"140 467 OFFCURVE",
"126 502 OFFCURVE",
"126 521 QCURVE SMOOTH",
"126 565 OFFCURVE",
"175 625 OFFCURVE",
"235 625 QCURVE SMOOTH",
"289 625 OFFCURVE",
"364 542 OFFCURVE",
"369 498 QCURVE",
"371 488 OFFCURVE",
"395 488 QCURVE SMOOTH",
"405 488 OFFCURVE",
"405 495 QCURVE SMOOTH",
"405 585 OFFCURVE",
"393 638 QCURVE",
"375 642 OFFCURVE",
"328 655 OFFCURVE",
"303 661 OFFCURVE",
"264 666 OFFCURVE",
"242 666 QCURVE SMOOTH",
"164 666 OFFCURVE",
"46 567 OFFCURVE",
"46 490 QCURVE SMOOTH"
);
}
);
};
components = (
{
name = S;
},
{
name = commaaccentcomb;
transform = "{1, 0, 0, 1, 102, 0}";
}
);
layerId = "0276F023-BC64-4582-8657-390FE5DB601E";
width = 505;
}
);
note = uni0218;
unicode = 0218;
},
{
color = 3;
glyphname = Germandbls;
lastChange = "2018-11-27 13:18:45 +0000";
layers = (
{
background = {
paths = (
{
closed = 1;
nodes = (
"326 415 OFFCURVE",
"371 362 OFFCURVE",
"494 294 CURVE SMOOTH",
"603 234 OFFCURVE",
"633 203 OFFCURVE",
"633 146 CURVE SMOOTH",
"633 73 OFFCURVE",
"580 31 OFFCURVE",
"513 31 CURVE SMOOTH",
"425 31 OFFCURVE",
"370 76 OFFCURVE",
"347 175 CURVE",
"342 181 OFFCURVE",
"334 184 OFFCURVE",
"322 184 CURVE SMOOTH",
"311 184 OFFCURVE",
"306 182 OFFCURVE",
"306 178 CURVE SMOOTH",
"306 154 OFFCURVE",
"314 101 OFFCURVE",
"331 19 CURVE",
"393 8 OFFCURVE",
"440 -10 OFFCURVE",
"511 -10 CURVE SMOOTH",
"623 -10 OFFCURVE",
"720 66 OFFCURVE",
"720 173 CURVE SMOOTH",
"720 240 OFFCURVE",
"678 290 OFFCURVE",
"546 366 CURVE SMOOTH",
"443 425 OFFCURVE",
"406 462 OFFCURVE",
"406 519 CURVE SMOOTH",
"406 586 OFFCURVE",
"449 617 OFFCURVE",
"515 617 CURVE",
"522 658 LINE",
"431 658 OFFCURVE",
"326 608 OFFCURVE",
"326 488 CURVE SMOOTH"
);
},
{
closed = 1;
nodes = (
"87 0 OFFCURVE",
"137 2 OFFCURVE",
"160 2 CURVE SMOOTH",
"191 2 OFFCURVE",
"229 0 OFFCURVE",
"276 -3 CURVE",
"277 1 OFFCURVE",
"278 6 OFFCURVE",
"278 11 CURVE SMOOTH",
"278 21 OFFCURVE",
"277 26 OFFCURVE",
"274 26 CURVE SMOOTH",
"261 26 OFFCURVE",
"213 37 OFFCURVE",
"210 45 CURVE",
"204 69 OFFCURVE",
"201 100 OFFCURVE",
"201 139 CURVE SMOOTH",
"201 519 LINE SMOOTH",
"201 558 OFFCURVE",
"203 592 OFFCURVE",
"208 615 CURVE",
"475 615 LINE",
"522 658 LINE",
"160 658 LINE SMOOTH",
"137 658 OFFCURVE",
"97 659 OFFCURVE",
"40 662 CURVE",
"37 659 OFFCURVE",
"36 654 OFFCURVE",
"36 646 CURVE SMOOTH",
"36 637 OFFCURVE",
"37 633 OFFCURVE",
"40 633 CURVE SMOOTH",
"57 633 OFFCURVE",
"103 623 OFFCURVE",
"107 612 CURVE",
"112 594 OFFCURVE",
"114 564 OFFCURVE",
"114 523 CURVE SMOOTH",
"114 135 LINE SMOOTH",
"114 94 OFFCURVE",
"112 64 OFFCURVE",
"107 46 CURVE",
"103 35 OFFCURVE",
"57 26 OFFCURVE",
"40 26 CURVE SMOOTH",
"37 26 OFFCURVE",
"36 21 OFFCURVE",
"36 12 CURVE SMOOTH",
"36 5 OFFCURVE",
"37 0 OFFCURVE",
"40 -3 CURVE"
);
}
);
};
layerId = "0276F023-BC64-4582-8657-390FE5DB601E";
paths = (
{
closed = 1;
nodes = (
"446 425 OFFCURVE",
"409 462 OFFCURVE",
"409 519 CURVE SMOOTH",
"409 583 OFFCURVE",
"448 615 OFFCURVE",
"526 615 CURVE SMOOTH",
"538 615 LINE",
"547 615 OFFCURVE",
"551 630 OFFCURVE",
"551 642 CURVE SMOOTH",
"551 651 OFFCURVE",
"549 658 OFFCURVE",
"545 658 CURVE",
"163 658 LINE SMOOTH",
"140 658 OFFCURVE",
"100 659 OFFCURVE",
"43 662 CURVE",
"40 659 OFFCURVE",
"39 654 OFFCURVE",
"39 646 CURVE SMOOTH",
"39 637 OFFCURVE",
"40 633 OFFCURVE",
"43 633 CURVE SMOOTH",
"60 633 OFFCURVE",
"106 623 OFFCURVE",
"110 612 CURVE",
"115 594 OFFCURVE",
"117 564 OFFCURVE",
"117 523 CURVE SMOOTH",
"117 135 LINE SMOOTH",
"117 94 OFFCURVE",
"115 64 OFFCURVE",
"110 46 CURVE",
"106 35 OFFCURVE",
"60 26 OFFCURVE",
"43 26 CURVE SMOOTH",
"40 26 OFFCURVE",
"39 21 OFFCURVE",
"39 12 CURVE SMOOTH",
"39 5 OFFCURVE",
"40 0 OFFCURVE",
"43 -3 CURVE",
"90 0 OFFCURVE",
"140 2 OFFCURVE",
"163 2 CURVE SMOOTH",
"194 2 OFFCURVE",
"232 0 OFFCURVE",
"279 -3 CURVE",
"280 1 OFFCURVE",
"281 6 OFFCURVE",
"281 11 CURVE SMOOTH",
"281 21 OFFCURVE",
"280 26 OFFCURVE",
"277 26 CURVE SMOOTH",
"264 26 OFFCURVE",
"216 37 OFFCURVE",
"213 45 CURVE",
"207 69 OFFCURVE",
"204 100 OFFCURVE",
"204 139 CURVE SMOOTH",
"204 519 LINE SMOOTH",
"204 558 OFFCURVE",
"206 592 OFFCURVE",
"211 615 CURVE",
"434 615 LINE",
"433 631 LINE",
"364 603 OFFCURVE",
"329 558 OFFCURVE",
"329 488 CURVE SMOOTH",
"329 415 OFFCURVE",
"374 362 OFFCURVE",
"497 294 CURVE SMOOTH",
"606 234 OFFCURVE",
"636 203 OFFCURVE",
"636 146 CURVE SMOOTH",
"636 73 OFFCURVE",
"583 31 OFFCURVE",
"516 31 CURVE SMOOTH",
"428 31 OFFCURVE",
"373 76 OFFCURVE",
"350 175 CURVE",
"345 181 OFFCURVE",
"337 184 OFFCURVE",
"325 184 CURVE SMOOTH",
"314 184 OFFCURVE",
"309 182 OFFCURVE",
"309 178 CURVE SMOOTH",
"309 154 OFFCURVE",
"317 101 OFFCURVE",
"334 19 CURVE",
"396 8 OFFCURVE",
"443 -10 OFFCURVE",
"514 -10 CURVE SMOOTH",
"626 -10 OFFCURVE",
"723 66 OFFCURVE",
"723 173 CURVE SMOOTH",
"723 240 OFFCURVE",
"681 290 OFFCURVE",
"549 366 CURVE SMOOTH"
);
}
);
width = 767;
}
);
leftMetricsKey = H;
rightMetricsKey = S;
unicode = 1E9E;
},
{
color = 3;
glyphname = Schwa;
lastChange = "2018-11-27 13:19:58 +0000";
layers = (
{
background = {
paths = (
{
closed = 1;
nodes = (
"488 -10 OFFCURVE",
"626 145 OFFCURVE",
"626 327 CURVE SMOOTH",
"626 515 OFFCURVE",
"482 667 OFFCURVE",
"304 667 CURVE SMOOTH",
"130 667 OFFCURVE",
"-13 515 OFFCURVE",
"-13 326 CURVE SMOOTH",
"-13 142 OFFCURVE",
"130 -10 OFFCURVE",
"305 -10 CURVE SMOOTH"
);
},
{
closed = 1;
nodes = (
"175 33 OFFCURVE",
"86 181 OFFCURVE",
"86 350 CURVE SMOOTH",
"86 495 OFFCURVE",
"164 625 OFFCURVE",
"289 625 CURVE SMOOTH",
"437 625 OFFCURVE",
"527 478 OFFCURVE",
"527 309 CURVE SMOOTH",
"527 167 OFFCURVE",
"451 33 OFFCURVE",
"322 33 CURVE SMOOTH"
);
},
{
closed = 1;
nodes = (
"519 303 LINE",
"68 303 LINE SMOOTH",
"44 303 OFFCURVE",
"38 297 OFFCURVE",
"38 274 CURVE SMOOTH",
"38 100 OFFCURVE",
"155 -8 OFFCURVE",
"316 -8 CURVE SMOOTH",
"502 -8 OFFCURVE",
"626 135 OFFCURVE",
"626 338 CURVE SMOOTH",
"626 528 OFFCURVE",
"488 666 OFFCURVE",
"303 666 CURVE SMOOTH",
"204 666 OFFCURVE",
"111 619 OFFCURVE",
"62 554 CURVE",
"56 543 OFFCURVE",
"53 534 OFFCURVE",
"53 527 CURVE SMOOTH",
"53 513 OFFCURVE",
"56 507 OFFCURVE",
"62 507 CURVE",
"118 548 OFFCURVE",
"182 565 OFFCURVE",
"262 565 CURVE SMOOTH",
"402 565 OFFCURVE",
"497 457 OFFCURVE",
"497 277 CURVE SMOOTH",
"497 141 OFFCURVE",
"436 50 OFFCURVE",
"324 50 CURVE SMOOTH",
"236 50 OFFCURVE",
"164 129 OFFCURVE",
"164 224 CURVE SMOOTH",
"164 235 OFFCURVE",
"167 240 OFFCURVE",
"177 240 CURVE SMOOTH",
"519 240 LINE"
);
}
);
};
layerId = "0276F023-BC64-4582-8657-390FE5DB601E";
paths = (
{
closed = 1;
nodes = (
"542 303 LINE",
"65 303 LINE SMOOTH",
"47 303 OFFCURVE",
"41 297 OFFCURVE",
"41 281 CURVE SMOOTH",
"41 100 OFFCURVE",
"158 -8 OFFCURVE",
"330 -8 CURVE SMOOTH",
"505 -8 OFFCURVE",
"629 135 OFFCURVE",
"629 348 CURVE SMOOTH",
"629 528 OFFCURVE",
"491 666 OFFCURVE",
"306 666 CURVE SMOOTH",
"197 666 OFFCURVE",
"114 619 OFFCURVE",
"75 554 CURVE",
"69 543 OFFCURVE",
"66 534 OFFCURVE",
"66 527 CURVE SMOOTH",
"66 513 OFFCURVE",
"69 507 OFFCURVE",
"75 507 CURVE",
"121 561 OFFCURVE",
"185 585 OFFCURVE",
"265 585 CURVE SMOOTH",
"422 585 OFFCURVE",
"529 467 OFFCURVE",
"529 297 CURVE SMOOTH",
"529 124 OFFCURVE",
"460 33 OFFCURVE",
"343 33 CURVE SMOOTH",
"227 33 OFFCURVE",
"157 109 OFFCURVE",
"157 241 CURVE SMOOTH",
"157 252 OFFCURVE",
"160 257 OFFCURVE",
"170 257 CURVE SMOOTH",
"542 257 LINE"
);
}
);
width = 680;
}
);
leftMetricsKey = "=O*0.8";
rightMetricsKey = O;
unicode = 018F;
},
{
color = 3;
glyphname = T;
lastChange = "2018-11-27 20:57:48 +0000";
layers = (
{
anchors = (
{
name = bottom;
position = "{314, 0}";
},
{
name = stroke;
position = "{314, 330}";
},
{
name = top;
position = "{314, 658}";
}
);
background = {
paths = (
{
closed = 1;
nodes = (
"67 660 OFFCURVE",
"23 671 QCURVE",
"4 528 LINE",
"11 521 OFFCURVE",
"28 521 QCURVE SMOOTH",
"37 521 OFFCURVE",
"38 526 QCURVE",
"52 582 OFFCURVE",
"93 615 OFFCURVE",
"150 615 QCURVE SMOOTH",
"250 615 OFFCURVE",
"258 600 QCURVE SMOOTH",
"267 584 OFFCURVE",
"267 497 QCURVE SMOOTH",
"267 135 LINE SMOOTH",
"267 73 OFFCURVE",
"260 46 QCURVE",
"257 38 OFFCURVE",
"206 26 OFFCURVE",
"193 26 QCURVE SMOOTH",
"189 26 OFFCURVE",
"189 12 QCURVE SMOOTH",
"189 1 OFFCURVE",
"193 -3 QCURVE",
"308 2 OFFCURVE",
"313 2 QCURVE SMOOTH",
"329 2 OFFCURVE",
"429 -3 QCURVE",
"431 3 OFFCURVE",
"431 11 QCURVE SMOOTH",
"431 26 OFFCURVE",
"427 26 QCURVE SMOOTH",
"417 26 OFFCURVE",
"365 39 OFFCURVE",
"363 46 QCURVE SMOOTH",
"354 81 OFFCURVE",
"354 139 QCURVE SMOOTH",
"354 500 LINE SMOOTH",
"354 568 OFFCURVE",
"363 600 QCURVE SMOOTH",
"367 615 OFFCURVE",
"473 615 QCURVE SMOOTH",
"530 615 OFFCURVE",
"571 582 OFFCURVE",
"585 526 QCURVE",
"586 521 OFFCURVE",
"595 521 QCURVE SMOOTH",
"612 521 OFFCURVE",
"619 528 QCURVE",
"600 671 LINE",
"556 660 OFFCURVE",
"531 660 QCURVE SMOOTH",
"493 660 OFFCURVE",
"355 656 OFFCURVE",
"267 656 OFFCURVE",
"130 660 OFFCURVE",
"92 660 QCURVE SMOOTH"
);
}
);
};
layerId = "0276F023-BC64-4582-8657-390FE5DB601E";
paths = (
{
closed = 1;
nodes = (
"78 660 OFFCURVE",
"55 664 OFFCURVE",
"26 671 CURVE",
"7 528 LINE",
"12 523 OFFCURVE",
"20 521 OFFCURVE",
"31 521 CURVE SMOOTH",
"37 521 OFFCURVE",
"40 523 OFFCURVE",
"41 526 CURVE",
"60 601 OFFCURVE",
"77 615 OFFCURVE",
"153 615 CURVE SMOOTH",
"220 615 OFFCURVE",
"256 610 OFFCURVE",
"261 600 CURVE SMOOTH",
"267 589 OFFCURVE",
"270 555 OFFCURVE",
"270 497 CURVE SMOOTH",
"270 135 LINE SMOOTH",
"270 94 OFFCURVE",
"268 64 OFFCURVE",
"263 46 CURVE",
"260 38 OFFCURVE",
"220 26 OFFCURVE",
"176 26 CURVE SMOOTH",
"173 26 OFFCURVE",
"172 21 OFFCURVE",
"172 12 CURVE SMOOTH",
"172 5 OFFCURVE",
"173 0 OFFCURVE",
"176 -3 CURVE",
"260 0 OFFCURVE",
"302 2 OFFCURVE",
"316 2 CURVE SMOOTH",
"327 2 OFFCURVE",
"365 0 OFFCURVE",
"452 -3 CURVE",
"453 1 OFFCURVE",
"454 6 OFFCURVE",
"454 11 CURVE SMOOTH",
"454 21 OFFCURVE",
"453 26 OFFCURVE",
"450 26 CURVE SMOOTH",
"410 26 OFFCURVE",
"368 39 OFFCURVE",
"366 46 CURVE SMOOTH",
"360 69 OFFCURVE",
"357 100 OFFCURVE",
"357 139 CURVE SMOOTH",
"357 500 LINE SMOOTH",
"357 545 OFFCURVE",
"360 579 OFFCURVE",
"366 600 CURVE SMOOTH",
"369 610 OFFCURVE",
"405 615 OFFCURVE",
"476 615 CURVE SMOOTH",
"552 615 OFFCURVE",
"569 601 OFFCURVE",
"588 526 CURVE",
"589 523 OFFCURVE",
"592 521 OFFCURVE",
"598 521 CURVE SMOOTH",
"609 521 OFFCURVE",
"617 523 OFFCURVE",
"622 528 CURVE",
"603 671 LINE",
"574 664 OFFCURVE",
"551 660 OFFCURVE",
"534 660 CURVE SMOOTH",
"474 660 OFFCURVE",
"380 656 OFFCURVE",
"314 656 CURVE SMOOTH",
"248 656 OFFCURVE",
"154 660 OFFCURVE",
"95 660 CURVE SMOOTH"
);
}
);
width = 627;
}
);
note = T;
unicode = 0054;
},
{
color = 6;
glyphname = Tbar;
lastChange = "2018-11-28 09:30:54 +0000";
layers = (
{
background = {
paths = (
{
closed = 1;
nodes = (
"136 342 OFFCURVE",
"134 333 OFFCURVE",
"134 321 CURVE SMOOTH",
"134 312 OFFCURVE",
"136 308 OFFCURVE",
"139 308 CURVE SMOOTH",
"369 308 OFFCURVE",
"484 308 OFFCURVE",
"484 308 CURVE",
"488 317 OFFCURVE",
"490 327 OFFCURVE",
"490 338 CURVE SMOOTH",
"490 345 OFFCURVE",
"488 348 OFFCURVE",
"484 348 CURVE SMOOTH",
"255 348 OFFCURVE",
"140 348 OFFCURVE",
"140 348 CURVE"
);
},
{
closed = 1;
nodes = (
"75 660 OFFCURVE",
"52 664 OFFCURVE",
"23 671 CURVE",
"4 528 LINE",
"9 523 OFFCURVE",
"17 521 OFFCURVE",
"28 521 CURVE SMOOTH",
"34 521 OFFCURVE",
"37 523 OFFCURVE",
"38 526 CURVE",
"57 601 OFFCURVE",
"74 615 OFFCURVE",
"150 615 CURVE SMOOTH",
"217 615 OFFCURVE",
"253 610 OFFCURVE",
"258 600 CURVE",
"264 589 OFFCURVE",
"267 555 OFFCURVE",
"267 497 CURVE SMOOTH",
"267 135 LINE SMOOTH",
"267 94 OFFCURVE",
"265 64 OFFCURVE",
"260 46 CURVE",
"256 35 OFFCURVE",
"210 26 OFFCURVE",
"193 26 CURVE SMOOTH",
"190 26 OFFCURVE",
"189 21 OFFCURVE",
"189 12 CURVE SMOOTH",
"189 5 OFFCURVE",
"190 0 OFFCURVE",
"193 -3 CURVE",
"270 0 OFFCURVE",
"310 2 OFFCURVE",
"313 2 CURVE SMOOTH",
"324 2 OFFCURVE",
"362 0 OFFCURVE",
"429 -3 CURVE",
"430 1 OFFCURVE",
"431 6 OFFCURVE",
"431 11 CURVE SMOOTH",
"431 21 OFFCURVE",
"430 26 OFFCURVE",
"427 26 CURVE SMOOTH",
"414 26 OFFCURVE",
"366 37 OFFCURVE",
"363 46 CURVE SMOOTH",
"357 69 OFFCURVE",
"354 100 OFFCURVE",
"354 139 CURVE SMOOTH",
"354 500 LINE SMOOTH",
"354 545 OFFCURVE",
"357 579 OFFCURVE",
"363 600 CURVE SMOOTH",
"366 610 OFFCURVE",
"402 615 OFFCURVE",
"473 615 CURVE SMOOTH",
"549 615 OFFCURVE",
"566 601 OFFCURVE",
"585 526 CURVE",
"586 523 OFFCURVE",
"589 521 OFFCURVE",
"595 521 CURVE SMOOTH",
"606 521 OFFCURVE",
"614 523 OFFCURVE",
"619 528 CURVE",
"600 671 LINE",
"571 664 OFFCURVE",
"548 660 OFFCURVE",
"531 660 CURVE SMOOTH",
"471 660 OFFCURVE",
"377 656 OFFCURVE",
"311 656 CURVE SMOOTH",
"245 656 OFFCURVE",
"151 660 OFFCURVE",
"92 660 CURVE SMOOTH"
);
}
);
};
components = (
{
name = T;
},
{
name = strokeshortcomb.case;
transform = "{1, 0, 0, 1, 164, 0}";
}
);
layerId = "0276F023-BC64-4582-8657-390FE5DB601E";
width = 627;
}
);
leftMetricsKey = T;
widthMetricsKey = T;
note = Tbar;
unicode = 0166;
},
{
color = 6;
glyphname = Tcommaaccent;
lastChange = "2018-11-29 13:31:51 +0000";
layers = (
{
background = {
paths = (
{
closed = 1;
nodes = (
"288 -116 OFFCURVE",
"325 -148 OFFCURVE",
"325 -161 QCURVE SMOOTH",
"325 -175 OFFCURVE",
"302 -198 QCURVE SMOOTH",
"279 -220 LINE",
"279 -227 OFFCURVE",
"299 -227 QCURVE SMOOTH",
"305 -227 OFFCURVE",
"307 -225 QCURVE",
"389 -179 OFFCURVE",
"389 -99 QCURVE SMOOTH",
"389 -86 OFFCURVE",
"376 -53 OFFCURVE",
"367 -46 QCURVE",
"326 -46 OFFCURVE",
"288 -79 OFFCURVE",
"288 -101 QCURVE SMOOTH"
);
},
{
closed = 1;
nodes = (
"289 73 OFFCURVE",
"282 46 QCURVE",
"279 38 OFFCURVE",
"228 26 OFFCURVE",
"215 26 QCURVE SMOOTH",
"211 26 OFFCURVE",
"211 12 QCURVE SMOOTH",
"211 1 OFFCURVE",
"215 -3 QCURVE",
"330 2 OFFCURVE",
"335 2 QCURVE SMOOTH",
"351 2 OFFCURVE",
"451 -3 QCURVE",
"453 3 OFFCURVE",
"453 11 QCURVE SMOOTH",
"453 26 OFFCURVE",
"449 26 QCURVE SMOOTH",
"439 26 OFFCURVE",
"387 39 OFFCURVE",
"385 46 QCURVE SMOOTH",
"376 81 OFFCURVE",
"376 139 QCURVE SMOOTH",
"376 500 LINE SMOOTH",
"376 568 OFFCURVE",
"385 600 QCURVE SMOOTH",
"389 615 OFFCURVE",
"495 615 QCURVE SMOOTH",
"552 615 OFFCURVE",
"593 582 OFFCURVE",
"607 526 QCURVE",
"608 521 OFFCURVE",
"617 521 QCURVE SMOOTH",
"634 521 OFFCURVE",
"641 528 QCURVE",
"622 671 LINE",
"578 660 OFFCURVE",
"553 660 QCURVE SMOOTH",
"515 660 OFFCURVE",
"377 656 OFFCURVE",
"289 656 OFFCURVE",
"152 660 OFFCURVE",
"114 660 QCURVE SMOOTH",
"89 660 OFFCURVE",
"45 671 QCURVE",
"26 528 LINE",
"33 521 OFFCURVE",
"50 521 QCURVE SMOOTH",
"59 521 OFFCURVE",
"60 526 QCURVE",
"74 582 OFFCURVE",
"115 615 OFFCURVE",
"172 615 QCURVE SMOOTH",
"272 615 OFFCURVE",
"280 600 QCURVE SMOOTH",
"289 584 OFFCURVE",
"289 497 QCURVE SMOOTH",
"289 135 LINE SMOOTH"
);
}
);
};
components = (
{
name = T;
},
{
name = commaaccentcomb;
transform = "{1, 0, 0, 1, 164, 0}";
}
);
layerId = "0276F023-BC64-4582-8657-390FE5DB601E";
width = 627;
}
);
note = uni021A;
unicode = 021A;
},
{
color = 3;
glyphname = U;
lastChange = "2018-11-27 13:18:45 +0000";
layers = (
{
anchors = (
{
name = bottom;
position = "{362, 0}";
},
{
name = ogonek;
position = "{482, 10}";
},
{
name = top;
position = "{362, 658}";
},
{
name = topright;
position = "{701, 658}";
}
);
background = {
paths = (
{
closed = 1;
nodes = (
"151 657 OFFCURVE",
"36 662 QCURVE",
"32 658 OFFCURVE",
"32 646 QCURVE SMOOTH",
"32 633 OFFCURVE",
"36 633 QCURVE SMOOTH",
"49 633 OFFCURVE",
"100 620 OFFCURVE",
"103 612 QCURVE",
"110 585 OFFCURVE",
"110 523 QCURVE SMOOTH",
"110 296 LINE SMOOTH",
"110 140 OFFCURVE",
"238 0 OFFCURVE",
"357 0 QCURVE SMOOTH",
"477 0 OFFCURVE",
"607 121 OFFCURVE",
"607 276 QCURVE SMOOTH",
"607 519 LINE SMOOTH",
"607 581 OFFCURVE",
"615 612 QCURVE SMOOTH",
"617 619 OFFCURVE",
"684 635 OFFCURVE",
"694 635 QCURVE SMOOTH",
"698 635 OFFCURVE",
"698 647 QCURVE SMOOTH",
"698 656 OFFCURVE",
"696 662 QCURVE",
"689 662 OFFCURVE",
"610 656 OFFCURVE",
"584 656 QCURVE SMOOTH",
"557 656 OFFCURVE",
"479 661 OFFCURVE",
"466 662 QCURVE",
"462 658 OFFCURVE",
"462 635 OFFCURVE",
"466 635 QCURVE SMOOTH",
"479 635 OFFCURVE",
"542 620 OFFCURVE",
"545 612 QCURVE",
"552 585 OFFCURVE",
"552 524 QCURVE SMOOTH",
"552 274 LINE SMOOTH",
"552 49 OFFCURVE",
"381 49 QCURVE SMOOTH",
"293 49 OFFCURVE",
"197 183 OFFCURVE",
"197 296 QCURVE SMOOTH",
"197 519 LINE SMOOTH",
"197 577 OFFCURVE",
"206 612 QCURVE SMOOTH",
"208 619 OFFCURVE",
"260 633 OFFCURVE",
"270 633 QCURVE SMOOTH",
"274 633 OFFCURVE",
"274 648 QCURVE SMOOTH",
"274 656 OFFCURVE",
"272 662 QCURVE",
"172 657 OFFCURVE",
"156 657 QCURVE SMOOTH"
);
}
);
};
layerId = "0276F023-BC64-4582-8657-390FE5DB601E";
paths = (
{
closed = 1;
nodes = (
"134 657 OFFCURVE",
"96 658 OFFCURVE",
"39 662 CURVE",
"36 659 OFFCURVE",
"35 654 OFFCURVE",
"35 646 CURVE SMOOTH",
"35 637 OFFCURVE",
"36 633 OFFCURVE",
"39 633 CURVE SMOOTH",
"62 633 OFFCURVE",
"103 620 OFFCURVE",
"106 612 CURVE",
"111 594 OFFCURVE",
"113 564 OFFCURVE",
"113 523 CURVE SMOOTH",
"113 296 LINE SMOOTH",
"113 97 OFFCURVE",
"193 0 OFFCURVE",
"371 0 CURVE SMOOTH",
"518 0 OFFCURVE",
"610 94 OFFCURVE",
"610 286 CURVE SMOOTH",
"610 519 LINE SMOOTH",
"610 560 OFFCURVE",
"613 591 OFFCURVE",
"618 612 CURVE SMOOTH",
"620 619 OFFCURVE",
"675 635 OFFCURVE",
"697 635 CURVE SMOOTH",
"700 635 OFFCURVE",
"701 639 OFFCURVE",
"701 647 CURVE SMOOTH",
"701 653 OFFCURVE",
"700 658 OFFCURVE",
"699 662 CURVE",
"668 660 OFFCURVE",
"608 656 OFFCURVE",
"587 656 CURVE SMOOTH",
"569 656 OFFCURVE",
"523 658 OFFCURVE",
"469 662 CURVE",
"466 659 OFFCURVE",
"465 654 OFFCURVE",
"465 647 CURVE SMOOTH",
"465 639 OFFCURVE",
"466 635 OFFCURVE",
"469 635 CURVE SMOOTH",
"494 635 OFFCURVE",
"545 620 OFFCURVE",
"548 612 CURVE",
"553 594 OFFCURVE",
"555 565 OFFCURVE",
"555 524 CURVE SMOOTH",
"555 294 LINE SMOOTH",
"555 124 OFFCURVE",
"498 53 OFFCURVE",
"384 53 CURVE SMOOTH",
"269 53 OFFCURVE",
"200 122 OFFCURVE",
"200 286 CURVE SMOOTH",
"200 519 LINE SMOOTH",
"200 558 OFFCURVE",
"203 589 OFFCURVE",
"209 612 CURVE SMOOTH",
"211 619 OFFCURVE",
"253 633 OFFCURVE",
"273 633 CURVE SMOOTH",
"276 633 OFFCURVE",
"277 638 OFFCURVE",
"277 648 CURVE SMOOTH",
"277 653 OFFCURVE",
"276 658 OFFCURVE",
"275 662 CURVE",
"208 659 OFFCURVE",
"170 657 OFFCURVE",
"159 657 CURVE SMOOTH"
);
}
);
width = 723;
}
);
note = U;
unicode = 0055;
},
{
color = 3;
glyphname = Uhorn;
lastChange = "2018-11-27 13:18:45 +0000";
layers = (
{
anchors = (
{
name = bottom;
position = "{362, 0}";
},
{
name = top;
position = "{362, 658}";
}
);
background = {
paths = (
{
closed = 1;
nodes = (
"131 657 OFFCURVE",
"93 658 OFFCURVE",
"36 662 CURVE",
"33 659 OFFCURVE",
"32 654 OFFCURVE",
"32 646 CURVE SMOOTH",
"32 637 OFFCURVE",
"33 633 OFFCURVE",
"36 633 CURVE SMOOTH",
"59 633 OFFCURVE",
"100 620 OFFCURVE",
"103 612 CURVE",
"108 594 OFFCURVE",
"110 564 OFFCURVE",
"110 523 CURVE SMOOTH",
"110 296 LINE SMOOTH",
"110 97 OFFCURVE",
"190 0 OFFCURVE",
"368 0 CURVE SMOOTH",
"515 0 OFFCURVE",
"607 94 OFFCURVE",
"607 286 CURVE SMOOTH",
"607 519 LINE SMOOTH",
"607 560 OFFCURVE",
"610 591 OFFCURVE",
"615 612 CURVE SMOOTH",
"617 619 OFFCURVE",
"672 635 OFFCURVE",
"694 635 CURVE SMOOTH",
"697 635 OFFCURVE",
"698 639 OFFCURVE",
"698 647 CURVE SMOOTH",
"698 653 OFFCURVE",
"697 658 OFFCURVE",
"696 662 CURVE",
"665 660 OFFCURVE",
"605 656 OFFCURVE",
"584 656 CURVE SMOOTH",
"566 656 OFFCURVE",
"520 658 OFFCURVE",
"466 662 CURVE",
"463 659 OFFCURVE",
"462 654 OFFCURVE",
"462 647 CURVE SMOOTH",
"462 639 OFFCURVE",
"463 635 OFFCURVE",
"466 635 CURVE SMOOTH",
"491 635 OFFCURVE",
"542 620 OFFCURVE",
"545 612 CURVE",
"550 594 OFFCURVE",
"552 565 OFFCURVE",
"552 524 CURVE SMOOTH",
"552 284 LINE SMOOTH",
"552 124 OFFCURVE",
"495 53 OFFCURVE",
"381 53 CURVE SMOOTH",
"266 53 OFFCURVE",
"197 122 OFFCURVE",
"197 286 CURVE SMOOTH",
"197 519 LINE SMOOTH",
"197 558 OFFCURVE",
"200 589 OFFCURVE",
"206 612 CURVE SMOOTH",
"208 619 OFFCURVE",
"250 633 OFFCURVE",
"270 633 CURVE SMOOTH",
"273 633 OFFCURVE",
"274 638 OFFCURVE",
"274 648 CURVE SMOOTH",
"274 653 OFFCURVE",
"273 658 OFFCURVE",
"272 662 CURVE",
"205 659 OFFCURVE",
"167 657 OFFCURVE",
"156 657 CURVE SMOOTH"
);
},
{
closed = 1;
nodes = (
"647 624 LINE",
"709 624 OFFCURVE",
"755 660 OFFCURVE",
"755 713 CURVE SMOOTH",
"755 736 OFFCURVE",
"742 767 OFFCURVE",
"707 767 CURVE SMOOTH",
"684 767 OFFCURVE",
"667 756 OFFCURVE",
"667 734 CURVE SMOOTH",
"667 712 OFFCURVE",
"691 703 OFFCURVE",
"691 685 CURVE SMOOTH",
"691 669 OFFCURVE",
"679 658 OFFCURVE",
"654 658 CURVE"
);
}
);
};
layerId = "0276F023-BC64-4582-8657-390FE5DB601E";
paths = (
{
closed = 1;
nodes = (
"518 0 OFFCURVE",
"610 94 OFFCURVE",
"610 286 CURVE SMOOTH",
"610 519 LINE SMOOTH",
"610 560 OFFCURVE",
"613 592 OFFCURVE",
"618 615 CURVE",
"622 617 OFFCURVE",
"630 620 OFFCURVE",
"643 622 CURVE SMOOTH",
"724 634 OFFCURVE",
"758 661 OFFCURVE",
"758 713 CURVE SMOOTH",
"758 736 OFFCURVE",
"745 767 OFFCURVE",
"710 767 CURVE SMOOTH",
"687 767 OFFCURVE",
"670 756 OFFCURVE",
"670 734 CURVE SMOOTH",
"670 712 OFFCURVE",
"694 703 OFFCURVE",
"694 685 CURVE SMOOTH",
"694 662 OFFCURVE",
"675 657 OFFCURVE",
"617 657 CURVE SMOOTH",
"569 657 OFFCURVE",
"523 658 OFFCURVE",
"469 662 CURVE",
"466 659 OFFCURVE",
"465 654 OFFCURVE",
"465 647 CURVE SMOOTH",
"465 639 OFFCURVE",
"466 635 OFFCURVE",
"469 635 CURVE SMOOTH",
"494 635 OFFCURVE",
"545 620 OFFCURVE",
"548 612 CURVE",
"553 594 OFFCURVE",
"555 565 OFFCURVE",
"555 524 CURVE SMOOTH",
"555 294 LINE SMOOTH",
"555 124 OFFCURVE",
"498 53 OFFCURVE",
"384 53 CURVE SMOOTH",
"269 53 OFFCURVE",
"200 122 OFFCURVE",
"200 286 CURVE SMOOTH",
"200 519 LINE SMOOTH",
"200 558 OFFCURVE",
"203 589 OFFCURVE",
"209 612 CURVE SMOOTH",
"211 619 OFFCURVE",
"253 633 OFFCURVE",
"273 633 CURVE SMOOTH",
"276 633 OFFCURVE",
"277 638 OFFCURVE",
"277 648 CURVE SMOOTH",
"277 653 OFFCURVE",
"276 658 OFFCURVE",
"275 662 CURVE",
"208 659 OFFCURVE",
"170 657 OFFCURVE",
"159 657 CURVE SMOOTH",
"134 657 OFFCURVE",
"96 658 OFFCURVE",
"39 662 CURVE",
"36 659 OFFCURVE",
"35 654 OFFCURVE",
"35 646 CURVE SMOOTH",
"35 637 OFFCURVE",
"36 633 OFFCURVE",
"39 633 CURVE SMOOTH",
"62 633 OFFCURVE",
"103 620 OFFCURVE",
"106 612 CURVE",
"111 594 OFFCURVE",
"113 564 OFFCURVE",
"113 523 CURVE SMOOTH",
"113 296 LINE SMOOTH",
"113 97 OFFCURVE",
"193 0 OFFCURVE",
"371 0 CURVE SMOOTH"
);
}
);
width = 723;
}
);
leftMetricsKey = U;
widthMetricsKey = U;
note = Uhorn;
unicode = 01AF;
},
{
color = 3;
glyphname = Uogonek;
lastChange = "2018-11-27 13:18:45 +0000";
layers = (
{
anchors = (
{
name = top;
position = "{362, 658}";
},
{
name = topright;
position = "{701, 658}";
}
);
background = {
paths = (
{
closed = 1;
nodes = (
"153 657 OFFCURVE",
"113 659 OFFCURVE",
"36 662 CURVE",
"33 659 OFFCURVE",
"32 654 OFFCURVE",
"32 646 CURVE SMOOTH",
"32 637 OFFCURVE",
"33 633 OFFCURVE",
"36 633 CURVE SMOOTH",
"59 633 OFFCURVE",
"100 620 OFFCURVE",
"103 612 CURVE",
"108 594 OFFCURVE",
"110 564 OFFCURVE",
"110 523 CURVE SMOOTH",
"110 296 LINE SMOOTH",
"110 97 OFFCURVE",
"190 0 OFFCURVE",
"368 0 CURVE SMOOTH",
"515 0 OFFCURVE",
"607 94 OFFCURVE",
"607 286 CURVE SMOOTH",
"607 519 LINE SMOOTH",
"607 560 OFFCURVE",
"610 591 OFFCURVE",
"615 612 CURVE SMOOTH",
"617 619 OFFCURVE",
"672 635 OFFCURVE",
"694 635 CURVE SMOOTH",
"697 635 OFFCURVE",
"698 639 OFFCURVE",
"698 647 CURVE SMOOTH",
"698 653 OFFCURVE",
"697 658 OFFCURVE",
"696 662 CURVE",
"665 660 OFFCURVE",
"605 656 OFFCURVE",
"584 656 CURVE SMOOTH",
"566 656 OFFCURVE",
"520 658 OFFCURVE",
"466 662 CURVE",
"463 659 OFFCURVE",
"462 654 OFFCURVE",
"462 647 CURVE SMOOTH",
"462 639 OFFCURVE",
"463 635 OFFCURVE",
"466 635 CURVE SMOOTH",
"491 635 OFFCURVE",
"542 620 OFFCURVE",
"545 612 CURVE",
"550 594 OFFCURVE",
"552 565 OFFCURVE",
"552 524 CURVE SMOOTH",
"552 284 LINE SMOOTH",
"552 124 OFFCURVE",
"495 53 OFFCURVE",
"381 53 CURVE SMOOTH",
"266 53 OFFCURVE",
"197 122 OFFCURVE",
"197 286 CURVE SMOOTH",
"197 519 LINE SMOOTH",
"197 558 OFFCURVE",
"200 589 OFFCURVE",
"206 612 CURVE SMOOTH",
"208 619 OFFCURVE",
"250 633 OFFCURVE",
"270 633 CURVE SMOOTH",
"273 633 OFFCURVE",
"274 638 OFFCURVE",
"274 648 CURVE SMOOTH",
"274 653 OFFCURVE",
"273 658 OFFCURVE",
"272 662 CURVE",
"205 659 OFFCURVE",
"167 657 OFFCURVE",
"156 657 CURVE SMOOTH"
);
},
{
closed = 1;
nodes = (
"435 14 LINE",
"427 12 LINE",
"357 -37 OFFCURVE",
"307 -95 OFFCURVE",
"307 -146 CURVE SMOOTH",
"307 -182 OFFCURVE",
"329 -223 OFFCURVE",
"378 -223 CURVE SMOOTH",
"415 -223 OFFCURVE",
"455 -204 OFFCURVE",
"483 -157 CURVE SMOOTH",
"486 -152 OFFCURVE",
"488 -146 OFFCURVE",
"488 -139 CURVE SMOOTH",
"488 -130 OFFCURVE",
"486 -126 OFFCURVE",
"483 -126 CURVE",
"467 -143 OFFCURVE",
"436 -164 OFFCURVE",
"402 -164 CURVE SMOOTH",
"371 -164 OFFCURVE",
"361 -142 OFFCURVE",
"361 -121 CURVE SMOOTH",
"361 -81 OFFCURVE",
"403 -39 OFFCURVE",
"512 43 CURVE"
);
}
);
};
layerId = "0276F023-BC64-4582-8657-390FE5DB601E";
paths = (
{
closed = 1;
nodes = (
"418 -223 OFFCURVE",
"458 -204 OFFCURVE",
"486 -157 CURVE SMOOTH",
"489 -152 OFFCURVE",
"491 -146 OFFCURVE",
"491 -139 CURVE SMOOTH",
"491 -130 OFFCURVE",
"489 -126 OFFCURVE",
"486 -126 CURVE",
"470 -143 OFFCURVE",
"439 -164 OFFCURVE",
"405 -164 CURVE SMOOTH",
"374 -164 OFFCURVE",
"364 -142 OFFCURVE",
"364 -121 CURVE SMOOTH",
"364 -82 OFFCURVE",
"406 -41 OFFCURVE",
"518 46 CURVE SMOOTH",
"571 87 OFFCURVE",
"610 163 OFFCURVE",
"610 286 CURVE SMOOTH",
"610 519 LINE SMOOTH",
"610 560 OFFCURVE",
"613 591 OFFCURVE",
"618 612 CURVE",
"620 619 OFFCURVE",
"675 635 OFFCURVE",
"697 635 CURVE SMOOTH",
"700 635 OFFCURVE",
"701 639 OFFCURVE",
"701 647 CURVE SMOOTH",
"701 653 OFFCURVE",
"700 658 OFFCURVE",
"699 662 CURVE",
"668 660 OFFCURVE",
"608 656 OFFCURVE",
"587 656 CURVE SMOOTH",
"569 656 OFFCURVE",
"523 658 OFFCURVE",
"469 662 CURVE",
"466 659 OFFCURVE",
"465 654 OFFCURVE",
"465 647 CURVE SMOOTH",
"465 639 OFFCURVE",
"466 635 OFFCURVE",
"469 635 CURVE SMOOTH",
"494 635 OFFCURVE",
"545 620 OFFCURVE",
"548 612 CURVE",
"553 594 OFFCURVE",
"555 565 OFFCURVE",
"555 524 CURVE SMOOTH",
"555 294 LINE SMOOTH",
"555 124 OFFCURVE",
"498 53 OFFCURVE",
"384 53 CURVE SMOOTH",
"269 53 OFFCURVE",
"200 122 OFFCURVE",
"200 286 CURVE SMOOTH",
"200 519 LINE SMOOTH",
"200 558 OFFCURVE",
"202 589 OFFCURVE",
"209 612 CURVE SMOOTH",
"211 619 OFFCURVE",
"253 633 OFFCURVE",
"273 633 CURVE SMOOTH",
"276 633 OFFCURVE",
"277 638 OFFCURVE",
"277 648 CURVE SMOOTH",
"277 653 OFFCURVE",
"276 658 OFFCURVE",
"275 662 CURVE",
"208 659 OFFCURVE",
"170 657 OFFCURVE",
"159 657 CURVE SMOOTH",
"119 657 OFFCURVE",
"79 660 OFFCURVE",
"39 662 CURVE",
"36 659 OFFCURVE",
"35 654 OFFCURVE",
"35 646 CURVE SMOOTH",
"35 637 OFFCURVE",
"36 633 OFFCURVE",
"39 633 CURVE SMOOTH",
"62 633 OFFCURVE",
"103 620 OFFCURVE",
"106 612 CURVE",
"111 594 OFFCURVE",
"113 564 OFFCURVE",
"113 523 CURVE SMOOTH",
"113 296 LINE SMOOTH",
"113 97 OFFCURVE",
"193 0 OFFCURVE",
"371 0 CURVE SMOOTH",
"397 0 OFFCURVE",
"423 3 OFFCURVE",
"445 12 CURVE",
"450 24 LINE",
"361 -32 OFFCURVE",
"310 -90 OFFCURVE",
"310 -146 CURVE SMOOTH",
"310 -182 OFFCURVE",
"332 -223 OFFCURVE",
"381 -223 CURVE SMOOTH"
);
}
);
width = 723;
}
);
leftMetricsKey = U;
widthMetricsKey = U;
note = Uogonek;
unicode = 0172;
},
{
color = 3;
glyphname = V;
lastChange = "2018-11-27 13:18:45 +0000";
layers = (
{
anchors = (
{
name = bottom;
position = "{337, 0}";
},
{
name = top;
position = "{337, 658}";
}
);
background = {
paths = (
{
closed = 1;
nodes = (
"93 657 OFFCURVE",
"18 661 OFFCURVE",
"0 662 CURVE",
"-3 659 OFFCURVE",
"-4 654 OFFCURVE",
"-4 646 CURVE SMOOTH",
"-4 637 OFFCURVE",
"-3 633 OFFCURVE",
"0 633 CURVE SMOOTH",
"17 633 OFFCURVE",
"55 625 OFFCURVE",
"64 610 CURVE SMOOTH",
"77 590 OFFCURVE",
"91 558 OFFCURVE",
"109 514 CURVE SMOOTH",
"312 2 LINE SMOOTH",
"314 -2 OFFCURVE",
"320 -9 OFFCURVE",
"328 -9 CURVE SMOOTH",
"340 -9 OFFCURVE",
"348 -1 OFFCURVE",
"354 12 CURVE SMOOTH",
"559 502 LINE SMOOTH",
"576 543 OFFCURVE",
"593 577 OFFCURVE",
"608 605 CURVE SMOOTH",
"618 624 OFFCURVE",
"638 633 OFFCURVE",
"668 633 CURVE SMOOTH",
"671 633 OFFCURVE",
"672 638 OFFCURVE",
"672 647 CURVE SMOOTH",
"672 653 OFFCURVE",
"671 658 OFFCURVE",
"670 662 CURVE",
"633 660 OFFCURVE",
"593 657 OFFCURVE",
"569 657 CURVE SMOOTH",
"560 657 OFFCURVE",
"524 659 OFFCURVE",
"462 662 CURVE",
"459 659 OFFCURVE",
"458 654 OFFCURVE",
"458 646 CURVE SMOOTH",
"458 637 OFFCURVE",
"459 633 OFFCURVE",
"462 633 CURVE SMOOTH",
"482 633 OFFCURVE",
"532 622 OFFCURVE",
"532 594 CURVE SMOOTH",
"532 580 OFFCURVE",
"526 556 OFFCURVE",
"513 524 CURVE SMOOTH",
"366 169 LINE SMOOTH",
"361 158 OFFCURVE",
"357 154 OFFCURVE",
"353 154 CURVE SMOOTH",
"350 154 OFFCURVE",
"346 158 OFFCURVE",
"343 166 CURVE SMOOTH",
"203 517 LINE SMOOTH",
"182 571 OFFCURVE",
"178 592 OFFCURVE",
"178 600 CURVE SMOOTH",
"178 625 OFFCURVE",
"222 633 OFFCURVE",
"237 633 CURVE SMOOTH",
"239 633 OFFCURVE",
"241 642 OFFCURVE",
"241 649 CURVE SMOOTH",
"241 655 OFFCURVE",
"240 660 OFFCURVE",
"239 662 CURVE",
"172 659 OFFCURVE",
"131 657 OFFCURVE",
"115 657 CURVE SMOOTH"
);
}
);
};
layerId = "0276F023-BC64-4582-8657-390FE5DB601E";
paths = (
{
closed = 1;
nodes = (
"96 657 OFFCURVE",
"21 661 OFFCURVE",
"3 662 CURVE",
"0 659 OFFCURVE",
"-1 654 OFFCURVE",
"-1 646 CURVE SMOOTH",
"-1 637 OFFCURVE",
"0 633 OFFCURVE",
"3 633 CURVE SMOOTH",
"20 633 OFFCURVE",
"58 625 OFFCURVE",
"67 610 CURVE SMOOTH",
"80 590 OFFCURVE",
"94 558 OFFCURVE",
"112 514 CURVE SMOOTH",
"315 2 LINE SMOOTH",
"317 -2 OFFCURVE",
"323 -9 OFFCURVE",
"331 -9 CURVE SMOOTH",
"343 -9 OFFCURVE",
"351 -1 OFFCURVE",
"357 12 CURVE SMOOTH",
"562 502 LINE SMOOTH",
"579 543 OFFCURVE",
"596 577 OFFCURVE",
"611 605 CURVE SMOOTH",
"621 624 OFFCURVE",
"641 633 OFFCURVE",
"671 633 CURVE SMOOTH",
"674 633 OFFCURVE",
"675 638 OFFCURVE",
"675 647 CURVE SMOOTH",
"675 653 OFFCURVE",
"674 658 OFFCURVE",
"673 662 CURVE",
"636 660 OFFCURVE",
"596 657 OFFCURVE",
"572 657 CURVE SMOOTH",
"563 657 OFFCURVE",
"527 659 OFFCURVE",
"465 662 CURVE",
"462 659 OFFCURVE",
"461 654 OFFCURVE",
"461 646 CURVE SMOOTH",
"461 637 OFFCURVE",
"462 633 OFFCURVE",
"465 633 CURVE SMOOTH",
"485 633 OFFCURVE",
"535 622 OFFCURVE",
"535 594 CURVE SMOOTH",
"535 580 OFFCURVE",
"529 556 OFFCURVE",
"516 524 CURVE SMOOTH",
"348 119 LINE",
"365 119 LINE",
"206 517 LINE SMOOTH",
"185 570 OFFCURVE",
"181 592 OFFCURVE",
"181 600 CURVE SMOOTH",
"181 625 OFFCURVE",
"225 633 OFFCURVE",
"240 633 CURVE SMOOTH",
"242 633 OFFCURVE",
"244 642 OFFCURVE",
"244 649 CURVE SMOOTH",
"244 655 OFFCURVE",
"243 660 OFFCURVE",
"242 662 CURVE",
"175 659 OFFCURVE",
"134 657 OFFCURVE",
"118 657 CURVE SMOOTH"
);
}
);
width = 675;
}
);
note = V;
unicode = 0056;
},
{
color = 3;
glyphname = W;
lastChange = "2018-12-07 13:42:53 +0000";
layers = (
{
anchors = (
{
name = bottom;
position = "{511, 0}";
},
{
name = top;
position = "{511, 658}";
}
);
background = {
paths = (
{
closed = 1;
nodes = (
"105 657 OFFCURVE",
"-10 662 QCURVE",
"-14 658 OFFCURVE",
"-14 646 QCURVE SMOOTH",
"-14 633 OFFCURVE",
"-10 633 QCURVE SMOOTH",
"2 633 OFFCURVE",
"40 620 OFFCURVE",
"48 610 QCURVE SMOOTH",
"77 573 OFFCURVE",
"106 514 QCURVE SMOOTH",
"366 -3 LINE",
"369 -8 OFFCURVE",
"375 -8 QCURVE SMOOTH",
"399 -8 OFFCURVE",
"414 24 QCURVE SMOOTH",
"522 247 LINE",
"644 -3 LINE",
"647 -8 OFFCURVE",
"653 -8 QCURVE SMOOTH",
"677 -8 OFFCURVE",
"692 24 QCURVE SMOOTH",
"904 504 LINE SMOOTH",
"933 571 OFFCURVE",
"962 605 QCURVE SMOOTH",
"973 618 OFFCURVE",
"1017 633 OFFCURVE",
"1027 633 QCURVE SMOOTH",
"1031 633 OFFCURVE",
"1031 647 QCURVE SMOOTH",
"1031 656 OFFCURVE",
"1029 662 QCURVE",
"1015 661 OFFCURVE",
"983 659 OFFCURVE",
"953 657 OFFCURVE",
"930 657 QCURVE SMOOTH",
"908 657 OFFCURVE",
"828 662 QCURVE",
"824 658 OFFCURVE",
"824 633 OFFCURVE",
"828 633 QCURVE SMOOTH",
"844 633 OFFCURVE",
"885 616 OFFCURVE",
"885 599 QCURVE SMOOTH",
"885 577 OFFCURVE",
"868 536 QCURVE SMOOTH",
"689 125 LINE",
"683 109 OFFCURVE",
"677 120 QCURVE",
"568 344 LINE",
"645 502 LINE SMOOTH",
"685 583 OFFCURVE",
"703 605 QCURVE SMOOTH",
"713 617 OFFCURVE",
"762 633 OFFCURVE",
"772 633 QCURVE SMOOTH",
"775 633 OFFCURVE",
"776 658 OFFCURVE",
"774 662 QCURVE",
"674 657 OFFCURVE",
"670 657 QCURVE SMOOTH",
"649 657 OFFCURVE",
"569 662 QCURVE",
"565 658 OFFCURVE",
"565 633 OFFCURVE",
"569 633 QCURVE SMOOTH",
"585 633 OFFCURVE",
"628 617 OFFCURVE",
"628 600 QCURVE SMOOTH",
"628 573 OFFCURVE",
"614 542 QCURVE SMOOTH",
"544 395 LINE",
"478 530 LINE SMOOTH",
"455 578 OFFCURVE",
"455 604 QCURVE SMOOTH",
"455 616 OFFCURVE",
"478 630 OFFCURVE",
"497 633 OFFCURVE",
"504 633 QCURVE SMOOTH",
"507 633 OFFCURVE",
"508 658 OFFCURVE",
"506 662 QCURVE",
"406 657 OFFCURVE",
"402 657 QCURVE SMOOTH",
"391 657 OFFCURVE",
"276 662 QCURVE",
"272 658 OFFCURVE",
"272 648 QCURVE SMOOTH",
"272 633 OFFCURVE",
"276 633 QCURVE SMOOTH",
"288 633 OFFCURVE",
"326 620 OFFCURVE",
"334 610 QCURVE SMOOTH",
"363 573 OFFCURVE",
"392 514 QCURVE SMOOTH",
"497 298 LINE",
"414 125 LINE",
"412 120 OFFCURVE",
"402 115 OFFCURVE",
"399 120 QCURVE",
"192 530 LINE SMOOTH",
"169 574 OFFCURVE",
"169 604 QCURVE SMOOTH",
"169 615 OFFCURVE",
"192 630 OFFCURVE",
"212 633 OFFCURVE",
"219 633 QCURVE SMOOTH",
"222 633 OFFCURVE",
"223 658 OFFCURVE",
"221 662 QCURVE",
"121 657 OFFCURVE",
"116 657 QCURVE SMOOTH"
);
}
);
};
layerId = "0276F023-BC64-4582-8657-390FE5DB601E";
paths = (
{
closed = 1;
nodes = (
"394 -8 OFFCURVE",
"407 3 OFFCURVE",
"417 24 CURVE SMOOTH",
"648 502 LINE SMOOTH",
"674 556 OFFCURVE",
"694 590 OFFCURVE",
"706 605 CURVE SMOOTH",
"719 621 OFFCURVE",
"762 633 OFFCURVE",
"775 633 CURVE SMOOTH",
"777 633 OFFCURVE",
"779 642 OFFCURVE",
"779 649 CURVE SMOOTH",
"779 655 OFFCURVE",
"778 660 OFFCURVE",
"777 662 CURVE",
"720 659 OFFCURVE",
"690 657 OFFCURVE",
"673 657 CURVE SMOOTH",
"659 657 OFFCURVE",
"625 659 OFFCURVE",
"572 662 CURVE",
"569 659 OFFCURVE",
"568 654 OFFCURVE",
"568 646 CURVE SMOOTH",
"568 637 OFFCURVE",
"569 633 OFFCURVE",
"572 633 CURVE SMOOTH",
"593 633 OFFCURVE",
"631 623 OFFCURVE",
"631 600 CURVE SMOOTH",
"631 582 OFFCURVE",
"627 563 OFFCURVE",
"617 542 CURVE SMOOTH",
"403 96 LINE",
"416 96 LINE",
"197 530 LINE SMOOTH",
"182 559 OFFCURVE",
"174 584 OFFCURVE",
"174 604 CURVE SMOOTH",
"174 626 OFFCURVE",
"208 633 OFFCURVE",
"224 633 CURVE SMOOTH",
"226 633 OFFCURVE",
"228 642 OFFCURVE",
"228 649 CURVE SMOOTH",
"228 655 OFFCURVE",
"227 660 OFFCURVE",
"226 662 CURVE",
"159 659 OFFCURVE",
"137 657 OFFCURVE",
"119 657 CURVE SMOOTH",
"112 657 OFFCURVE",
"70 659 OFFCURVE",
"-7 662 CURVE",
"-10 659 OFFCURVE",
"-11 654 OFFCURVE",
"-11 646 CURVE SMOOTH",
"-11 637 OFFCURVE",
"-10 633 OFFCURVE",
"-7 633 CURVE SMOOTH",
"9 633 OFFCURVE",
"40 623 OFFCURVE",
"51 610 CURVE SMOOTH",
"71 586 OFFCURVE",
"90 553 OFFCURVE",
"109 514 CURVE SMOOTH",
"365 5 LINE SMOOTH",
"371 -6 OFFCURVE",
"374 -8 OFFCURVE",
"381 -8 CURVE SMOOTH"
);
},
{
closed = 1;
nodes = (
"676 -8 OFFCURVE",
"686 3 OFFCURVE",
"695 24 CURVE SMOOTH",
"907 504 LINE SMOOTH",
"927 549 OFFCURVE",
"946 582 OFFCURVE",
"965 605 CURVE SMOOTH",
"979 622 OFFCURVE",
"1017 633 OFFCURVE",
"1030 633 CURVE SMOOTH",
"1033 633 OFFCURVE",
"1034 638 OFFCURVE",
"1034 647 CURVE SMOOTH",
"1034 653 OFFCURVE",
"1033 658 OFFCURVE",
"1032 662 CURVE",
"1017 661 OFFCURVE",
"953 657 OFFCURVE",
"933 657 CURVE SMOOTH",
"918 657 OFFCURVE",
"884 659 OFFCURVE",
"831 662 CURVE",
"828 659 OFFCURVE",
"827 654 OFFCURVE",
"827 646 CURVE SMOOTH",
"827 637 OFFCURVE",
"828 633 OFFCURVE",
"831 633 CURVE SMOOTH",
"852 633 OFFCURVE",
"888 622 OFFCURVE",
"888 599 CURVE SMOOTH",
"888 584 OFFCURVE",
"883 563 OFFCURVE",
"871 536 CURVE SMOOTH",
"681 100 LINE",
"689 97 LINE",
"479 530 LINE SMOOTH",
"464 562 OFFCURVE",
"456 587 OFFCURVE",
"456 604 CURVE SMOOTH",
"456 627 OFFCURVE",
"490 633 OFFCURVE",
"505 633 CURVE SMOOTH",
"507 633 OFFCURVE",
"509 642 OFFCURVE",
"509 649 CURVE SMOOTH",
"509 655 OFFCURVE",
"508 660 OFFCURVE",
"507 662 CURVE",
"440 659 OFFCURVE",
"418 657 OFFCURVE",
"405 657 CURVE SMOOTH",
"400 657 OFFCURVE",
"358 659 OFFCURVE",
"281 662 CURVE",
"278 659 OFFCURVE",
"277 655 OFFCURVE",
"277 648 CURVE SMOOTH",
"277 638 OFFCURVE",
"278 633 OFFCURVE",
"281 633 CURVE SMOOTH",
"297 633 OFFCURVE",
"328 623 OFFCURVE",
"339 610 CURVE SMOOTH",
"359 586 OFFCURVE",
"378 553 OFFCURVE",
"397 514 CURVE SMOOTH",
"645 5 LINE SMOOTH",
"650 -6 OFFCURVE",
"656 -8 OFFCURVE",
"661 -8 CURVE SMOOTH"
);
}
);
width = 1022;
}
);
note = W;
unicode = 0057;
},
{
color = 3;
glyphname = X;
lastChange = "2018-11-27 13:18:45 +0000";
layers = (
{
anchors = (
{
name = bottom;
position = "{335, 0}";
},
{
name = top;
position = "{335, 658}";
}
);
background = {
paths = (
{
closed = 1;
nodes = (
"162 657 OFFCURVE",
"39 662 QCURVE",
"35 658 OFFCURVE",
"35 633 OFFCURVE",
"39 633 QCURVE SMOOTH",
"68 633 OFFCURVE",
"95 617 QCURVE SMOOTH",
"130 597 OFFCURVE",
"161 548 QCURVE SMOOTH",
"301 334 LINE",
"87 54 LINE",
"76 43 OFFCURVE",
"34 29 OFFCURVE",
"7 26 OFFCURVE",
"-1 26 QCURVE SMOOTH",
"-5 26 OFFCURVE",
"-5 10 QCURVE SMOOTH",
"-5 3 OFFCURVE",
"-3 -3 QCURVE",
"97 2 OFFCURVE",
"120 2 QCURVE SMOOTH",
"140 2 OFFCURVE",
"233 -3 QCURVE",
"235 0 OFFCURVE",
"235 10 QCURVE SMOOTH",
"235 26 OFFCURVE",
"231 26 QCURVE SMOOTH",
"206 26 OFFCURVE",
"172 39 OFFCURVE",
"163 51 OFFCURVE",
"163 55 QCURVE SMOOTH",
"163 75 OFFCURVE",
"327 295 QCURVE",
"477 66 LINE SMOOTH",
"482 58 OFFCURVE",
"482 54 QCURVE SMOOTH",
"482 42 OFFCURVE",
"438 26 OFFCURVE",
"424 26 QCURVE SMOOTH",
"420 26 OFFCURVE",
"420 1 OFFCURVE",
"424 -3 QCURVE",
"564 2 OFFCURVE",
"570 2 QCURVE SMOOTH",
"575 2 OFFCURVE",
"675 -3 QCURVE",
"677 1 OFFCURVE",
"677 10 QCURVE SMOOTH",
"677 26 OFFCURVE",
"672 26 QCURVE SMOOTH",
"644 26 OFFCURVE",
"587 46 OFFCURVE",
"574 66 QCURVE SMOOTH",
"382 358 LINE",
"570 604 LINE SMOOTH",
"580 617 OFFCURVE",
"652 633 OFFCURVE",
"666 633 QCURVE SMOOTH",
"669 633 OFFCURVE",
"670 658 OFFCURVE",
"668 662 QCURVE",
"568 657 OFFCURVE",
"556 657 QCURVE SMOOTH",
"522 657 OFFCURVE",
"429 662 QCURVE",
"425 658 OFFCURVE",
"425 633 OFFCURVE",
"429 633 QCURVE SMOOTH",
"458 633 OFFCURVE",
"499 613 OFFCURVE",
"499 602 QCURVE SMOOTH",
"499 596 OFFCURVE",
"490 576 OFFCURVE",
"469 544 OFFCURVE",
"452 519 OFFCURVE",
"417 473 OFFCURVE",
"400 451 OFFCURVE",
"361 402 OFFCURVE",
"357 396 QCURVE",
"242 571 LINE SMOOTH",
"230 589 OFFCURVE",
"230 601 QCURVE SMOOTH",
"230 618 OFFCURVE",
"272 633 OFFCURVE",
"290 633 QCURVE SMOOTH",
"293 633 OFFCURVE",
"294 658 OFFCURVE",
"292 662 QCURVE",
"192 657 OFFCURVE",
"164 657 QCURVE SMOOTH"
);
}
);
};
layerId = "0276F023-BC64-4582-8657-390FE5DB601E";
paths = (
{
closed = 1;
nodes = (
"67 0 OFFCURVE",
"108 2 OFFCURVE",
"123 2 CURVE SMOOTH",
"136 2 OFFCURVE",
"174 0 OFFCURVE",
"236 -3 CURVE",
"237 -1 OFFCURVE",
"238 3 OFFCURVE",
"238 10 CURVE SMOOTH",
"238 21 OFFCURVE",
"237 26 OFFCURVE",
"234 26 CURVE SMOOTH",
"198 26 OFFCURVE",
"166 40 OFFCURVE",
"166 55 CURVE SMOOTH",
"166 59 OFFCURVE",
"169 71 OFFCURVE",
"191 102 CURVE SMOOTH",
"330 295 LINE",
"480 66 LINE SMOOTH",
"483 61 OFFCURVE",
"485 57 OFFCURVE",
"485 54 CURVE SMOOTH",
"485 38 OFFCURVE",
"446 26 OFFCURVE",
"427 26 CURVE SMOOTH",
"424 26 OFFCURVE",
"423 22 OFFCURVE",
"423 14 CURVE SMOOTH",
"423 5 OFFCURVE",
"424 0 OFFCURVE",
"427 -3 CURVE",
"520 0 OFFCURVE",
"569 2 OFFCURVE",
"573 2 CURVE SMOOTH",
"576 2 OFFCURVE",
"611 0 OFFCURVE",
"678 -3 CURVE",
"679 0 OFFCURVE",
"680 4 OFFCURVE",
"680 10 CURVE SMOOTH",
"680 21 OFFCURVE",
"678 26 OFFCURVE",
"675 26 CURVE SMOOTH",
"638 26 OFFCURVE",
"595 39 OFFCURVE",
"577 66 CURVE SMOOTH",
"385 358 LINE",
"573 604 LINE SMOOTH",
"586 621 OFFCURVE",
"650 633 OFFCURVE",
"669 633 CURVE SMOOTH",
"671 633 OFFCURVE",
"673 642 OFFCURVE",
"673 649 CURVE SMOOTH",
"673 655 OFFCURVE",
"672 660 OFFCURVE",
"671 662 CURVE",
"604 659 OFFCURVE",
"567 657 OFFCURVE",
"559 657 CURVE SMOOTH",
"536 657 OFFCURVE",
"494 659 OFFCURVE",
"432 662 CURVE",
"429 659 OFFCURVE",
"428 654 OFFCURVE",
"428 646 CURVE SMOOTH",
"428 637 OFFCURVE",
"429 633 OFFCURVE",
"432 633 CURVE SMOOTH",
"471 633 OFFCURVE",
"502 617 OFFCURVE",
"502 602 CURVE SMOOTH",
"502 588 OFFCURVE",
"477 549 OFFCURVE",
"464 532 CURVE SMOOTH",
"360 396 LINE",
"245 571 LINE SMOOTH",
"237 583 OFFCURVE",
"233 593 OFFCURVE",
"233 601 CURVE SMOOTH",
"233 624 OFFCURVE",
"269 633 OFFCURVE",
"293 633 CURVE SMOOTH",
"295 633 OFFCURVE",
"297 642 OFFCURVE",
"297 649 CURVE SMOOTH",
"297 655 OFFCURVE",
"296 660 OFFCURVE",
"295 662 CURVE",
"228 659 OFFCURVE",
"186 657 OFFCURVE",
"167 657 CURVE SMOOTH",
"166 657 OFFCURVE",
"124 659 OFFCURVE",
"42 662 CURVE",
"39 659 OFFCURVE",
"38 654 OFFCURVE",
"38 646 CURVE SMOOTH",
"38 637 OFFCURVE",
"39 633 OFFCURVE",
"42 633 CURVE SMOOTH",
"61 633 OFFCURVE",
"80 628 OFFCURVE",
"98 617 CURVE SMOOTH",
"121 603 OFFCURVE",
"143 581 OFFCURVE",
"164 548 CURVE SMOOTH",
"304 334 LINE",
"90 54 LINE",
"69 33 OFFCURVE",
"18 26 OFFCURVE",
"2 26 CURVE SMOOTH",
"-1 26 OFFCURVE",
"-2 21 OFFCURVE",
"-2 10 CURVE SMOOTH",
"-2 5 OFFCURVE",
"-1 1 OFFCURVE",
"0 -3 CURVE"
);
}
);
width = 670;
}
);
note = X;
unicode = 0058;
},
